<?xml version="1.0" encoding="UTF-8"?>
<svg width="77px" height="27px" viewBox="0 0 77 27" version="1.1" xmlns="http://www.w3.org/2000/svg" xmlns:xlink="http://www.w3.org/1999/xlink">
    <!-- Generator: Sketch 48.2 (47327) - http://www.bohemiancoding.com/sketch -->
    <title>login-button-md</title>
    <desc>Created with Sketch.</desc>
    <defs>
        <rect id="path-1" x="0" y="0" width="74.56231" height="25.0362884" rx="1.62"></rect>
    </defs>
    <g id="design-system" stroke="none" stroke-width="1" fill="none" fill-rule="evenodd" transform="translate(-3825.000000, -857.000000)">
        <g id="blockstack-facebook" transform="translate(3826.000000, 826.000000)">
            <g id="login-button-md" transform="translate(0.537994, 31.963712)">
                <g id="btn">
                    <use fill="#270F34" fill-rule="evenodd" xlink:href="#path-1"></use>
                    <rect stroke-opacity="0.15" stroke="#FFFFFF" stroke-width="0.81" x="-0.405" y="-0.405" width="75.37231" height="25.8462884" rx="1.62"></rect>
                </g>
                <text id="Login" font-family="SourceCodePro-Bold, Source Code Pro" font-size="12.15" font-weight="bold" fill="#FFFFFF">
                    <tspan x="27.6566966" y="16.0747355">Login</tspan>
                </text>
                <g id="Logo/blockstack-bug-rev" transform="translate(3.373860, 1.691641)">
                    <path d="M7.99563209,8.92253113 C7.0056091,8.92253113 6.20303689,8.13265775 6.20303689,7.15829955 C6.20303689,6.18394136 7.0056091,5.39406798 7.99563209,5.39406798 C8.98565508,5.39406798 9.78822729,6.18394136 9.78822729,7.15829955 C9.78822729,8.13265775 8.98565508,8.92253113 7.99563209,8.92253113 Z M15.1660129,8.92253113 C14.1759899,8.92253113 13.3734177,8.13265775 13.3734177,7.15829955 C13.3734177,6.18394136 14.1759899,5.39406798 15.1660129,5.39406798 C16.1560359,5.39406798 16.9586081,6.18394136 16.9586081,7.15829955 C16.9586081,8.13265775 16.1560359,8.92253113 15.1660129,8.92253113 Z M15.1660129,15.9794574 C14.1759899,15.9794574 13.3734177,15.189584 13.3734177,14.2152258 C13.3734177,13.2408677 14.1759899,12.4509943 15.1660129,12.4509943 C16.1560359,12.4509943 16.9586081,13.2408677 16.9586081,14.2152258 C16.9586081,15.189584 16.1560359,15.9794574 15.1660129,15.9794574 Z M7.99563209,15.9794574 C7.0056091,15.9794574 6.20303689,15.189584 6.20303689,14.2152258 C6.20303689,13.2408677 7.0056091,12.4509943 7.99563209,12.4509943 C8.98565508,12.4509943 9.78822729,13.2408677 9.78822729,14.2152258 C9.78822729,15.189584 8.98565508,15.9794574 7.99563209,15.9794574 Z" id="4dots-electric-blue" fill="#2C96FF"></path>
                    <path d="M6.80396369,9.39165634 C5.8139407,9.39165634 5.01136849,8.60178296 5.01136849,7.62742477 C5.01136849,6.65306657 5.8139407,5.86319319 6.80396369,5.86319319 C7.79398668,5.86319319 8.59655889,6.65306657 8.59655889,7.62742477 C8.59655889,8.60178296 7.79398668,9.39165634 6.80396369,9.39165634 Z M13.9743445,9.39165634 C12.9843215,9.39165634 12.1817493,8.60178296 12.1817493,7.62742477 C12.1817493,6.65306657 12.9843215,5.86319319 13.9743445,5.86319319 C14.9643675,5.86319319 15.7669397,6.65306657 15.7669397,7.62742477 C15.7669397,8.60178296 14.9643675,9.39165634 13.9743445,9.39165634 Z M13.9743445,16.4485826 C12.9843215,16.4485826 12.1817493,15.6587093 12.1817493,14.6843511 C12.1817493,13.7099929 12.9843215,12.9201195 13.9743445,12.9201195 C14.9643675,12.9201195 15.7669397,13.7099929 15.7669397,14.6843511 C15.7669397,15.6587093 14.9643675,16.4485826 13.9743445,16.4485826 Z M6.80396369,16.4485826 C5.8139407,16.4485826 5.01136849,15.6587093 5.01136849,14.6843511 C5.01136849,13.7099929 5.8139407,12.9201195 6.80396369,12.9201195 C7.79398668,12.9201195 8.59655889,13.7099929 8.59655889,14.6843511 C8.59655889,15.6587093 7.79398668,16.4485826 6.80396369,16.4485826 Z" id="4dots-magenta" fill="#E91E63"></path>
                    <path d="M7.39979789,8.68796852 C6.4097749,8.68796852 5.60720269,7.89809514 5.60720269,6.92373695 C5.60720269,5.94937875 6.4097749,5.15950537 7.39979789,5.15950537 C8.38982088,5.15950537 9.19239309,5.94937875 9.19239309,6.92373695 C9.19239309,7.89809514 8.38982088,8.68796852 7.39979789,8.68796852 Z M14.5701787,8.68796852 C13.5801557,8.68796852 12.7775835,7.89809514 12.7775835,6.92373695 C12.7775835,5.94937875 13.5801557,5.15950537 14.5701787,5.15950537 C15.5602017,5.15950537 16.3627739,5.94937875 16.3627739,6.92373695 C16.3627739,7.89809514 15.5602017,8.68796852 14.5701787,8.68796852 Z M14.5701787,15.7448948 C13.5801557,15.7448948 12.7775835,14.9550214 12.7775835,13.9806632 C12.7775835,13.006305 13.5801557,12.2164317 14.5701787,12.2164317 C15.5602017,12.2164317 16.3627739,13.006305 16.3627739,13.9806632 C16.3627739,14.9550214 15.5602017,15.7448948 14.5701787,15.7448948 Z M7.39979789,15.7448948 C6.4097749,15.7448948 5.60720269,14.9550214 5.60720269,13.9806632 C5.60720269,13.006305 6.4097749,12.2164317 7.39979789,12.2164317 C8.38982088,12.2164317 9.19239309,13.006305 9.19239309,13.9806632 C9.19239309,14.9550214 8.38982088,15.7448948 7.39979789,15.7448948 Z" id="4dots-rev" fill="#FFFFFF"></path>
                </g>
            </g>
        </g>
    </g>
</svg>