<?xml version="1.0" encoding="UTF-8"?>
<svg width="172px" height="403px" viewBox="0 0 172 403" version="1.1" xmlns="http://www.w3.org/2000/svg" xmlns:xlink="http://www.w3.org/1999/xlink">
    <!-- Generator: Sketch 49 (51002) - http://www.bohemiancoding.com/sketch -->
    <title>easy-graphic</title>
    <desc>Created with Sketch.</desc>
    <defs>
        <rect id="path-1" x="0" y="0" width="131.999992" height="362.999978"></rect>
        <filter x="-23.9%" y="-7.9%" width="147.7%" height="117.4%" filterUnits="objectBoundingBox" id="filter-2">
            <feOffset dx="0" dy="3" in="SourceAlpha" result="shadowOffsetOuter1"></feOffset>
            <feGaussianBlur stdDeviation="10" in="shadowOffsetOuter1" result="shadowBlurOuter1"></feGaussianBlur>
            <feColorMatrix values="0 0 0 0 0.0862745098   0 0 0 0 0.180392157   0 0 0 0 0.22745098  0 0 0 0.338258605 0" type="matrix" in="shadowBlurOuter1"></feColorMatrix>
        </filter>
    </defs>
    <g id="Sign-In" stroke="none" stroke-width="1" fill="none" fill-rule="evenodd">
        <g id="Desktop-HD" transform="translate(-903.000000, -2043.000000)">
            <g id="Group-13" transform="translate(268.000000, 2060.000000)">
                <g id="easy-graphic" transform="translate(655.000000, 0.000000)">
                    <g id="Sidebar">
                        <g id="Rectangle">
                            <use fill="black" fill-opacity="1" filter="url(#filter-2)" xlink:href="#path-1"></use>
                            <use fill="#00334C" fill-rule="evenodd" xlink:href="#path-1"></use>
                        </g>
                        <g id="graph" transform="translate(45.000000, 223.599987)" fill="#FFFFFF" font-family="SourceSansPro-Regular, Source Sans Pro" font-size="10.7999994" font-weight="normal" opacity="0.9">
                            <text id="Graph">
                                <tspan x="-2.68220901e-06" y="11.7999992">Graph</tspan>
                            </text>
                        </g>
                        <g id="History" transform="translate(45.000000, 266.799985)" fill="#FFFFFF" font-family="SourceSansPro-Regular, Source Sans Pro" font-size="10.7999994" font-weight="normal" opacity="0.9">
                            <text>
                                <tspan x="-2.68220901e-06" y="11.7999992">History</tspan>
                            </text>
                        </g>
                        <g id="settings" transform="translate(45.000000, 309.999982)" fill="#FFFFFF" font-family="SourceSansPro-Regular, Source Sans Pro" font-size="10.7999994" font-weight="normal" opacity="0.9">
                            <text id="Settings">
                                <tspan x="-2.68220901e-06" y="11.7999992">Settings</tspan>
                            </text>
                        </g>
                        <g id="overview" transform="translate(43.000000, 182.399990)" fill="#FFFFFF" fill-opacity="0.8" font-family="SourceSansPro-Bold, Source Sans Pro" font-size="10.7999994" font-weight="bold">
                            <text id="Overview">
                                <tspan x="0.799997389" y="10.9999991">Overview</tspan>
                            </text>
                        </g>
                        <g id="Group-2" transform="translate(38.999998, 131.999992)" fill="#FFFFFF" font-family="SourceSansPro-Regular, Source Sans Pro" font-size="9.59999943" font-weight="normal" opacity="0.9">
                            <text id="Sign-Out">
                                <tspan x="0" y="9">Sign Out</tspan>
                            </text>
                        </g>
                        <g id="stock" transform="translate(22.799999, 225.599987)" fill="#FFFFFF" fill-rule="nonzero">
                            <path d="M11.6825993,7.11239958 C11.9879993,6.84179959 12.2369993,6.50999961 12.3947993,6.12659963 L14.3999991,7.12919958 L14.3999991,0.599999964 C14.3999991,0.268799984 14.1311992,0 13.7999992,0 L0.599999964,0 C0.268799984,0 0,0.268799984 0,0.599999964 L0,8.03999952 L3.59339979,5.24519969 L6.02039964,7.06559958 L7.40879956,6.13919963 C7.56659955,6.51659961 7.81439953,6.84359959 8.11559952,7.11119958 L5.97899964,8.53499949 L3.60599979,6.7553996 L0,9.56039943 L0,12.5999992 C0,12.9311992 0.268799984,13.1999992 0.599999964,13.1999992 L13.7999992,13.1999992 C14.1311992,13.1999992 14.3999991,12.9311992 14.3999991,12.5999992 L14.3999991,8.4707995 L11.6825993,7.11239958 Z M10.1999994,6.56939961 L10.1999994,11.9999993 L9.59999943,11.9999993 L9.59999943,6.56939961 C8.91599947,6.43019962 8.3999995,5.82419965 8.3999995,5.0999997 C8.3999995,4.37579974 8.91599947,3.76979978 9.59999943,3.63059978 L9.59999943,1.19999993 L10.1999994,1.19999993 L10.1999994,3.63059978 C10.8839994,3.76979978 11.3999993,4.37579974 11.3999993,5.0999997 C11.3999993,5.82419965 10.8839994,6.43019962 10.1999994,6.56939961 Z" id="Shape"></path>
                        </g>
                        <g id="Group-2" opacity="0.9" transform="translate(22.199999, 116.399993)" fill="#FFFFFF" font-family="SourceSansPro-Regular, Source Sans Pro" font-size="9.59999943" font-weight="normal">
                            <text id="Marvin-Fox">
                                <tspan x="22.2227987" y="9">Marvin Fox</tspan>
                            </text>
                        </g>
                    </g>
                    <g id="log-out" transform="translate(79.799995, 134.399992)" fill="#FFFFFF" fill-rule="nonzero">
                        <polygon id="Shape" points="2.39999986 2.39999986 0 4.79999971 2.39999986 7.19999957 2.39999986 5.39999968 5.99999964 5.39999968 5.99999964 4.19999975 2.39999986 4.19999975"></polygon>
                        <path d="M8.99999946,9.59999943 L3.59999979,9.59999943 C3.23999981,9.59999943 2.99999982,9.35999944 2.99999982,8.99999946 L2.99999982,7.19999957 L4.19999975,7.19999957 L4.19999975,8.3999995 L8.3999995,8.3999995 L8.3999995,1.19999993 L4.19999975,1.19999993 L4.19999975,2.39999986 L2.99999982,2.39999986 L2.99999982,0.599999964 C2.99999982,0.239999986 3.23999981,0 3.59999979,0 L8.99999946,0 C9.35999944,0 9.59999943,0.239999986 9.59999943,0.599999964 L9.59999943,8.99999946 C9.59999943,9.35999944 9.35999944,9.59999943 8.99999946,9.59999943 Z" id="Shape"></path>
                    </g>
                    <text id="Lio" font-family="SourceSansPro-Semibold, Source Sans Pro" font-size="21.5999987" font-weight="500" fill="#FFFFFF">
                        <tspan x="60.5999964" y="38.399999">Lio</tspan>
                    </text>
                    <polygon id="Path" fill-opacity="0.33" fill="#00FFA2" points="49.499997 32.999998 55.1999967 36.3003068 49.5006133 39.5999976 43.7999974 36.3003068"></polygon>
                    <polygon id="Path" stroke="#004466" stroke-width="0.599999964" fill="#00FFA2" points="49.3499971 37.6025978 43.1999974 34.052398 43.1999974 26.9507984 49.3499971 23.3999986 55.4999967 26.9507984 55.4999967 34.052398"></polygon>
                    <g id="circle-08" transform="translate(47.399997, 74.999996)" fill="#FFFFFF" fill-rule="nonzero">
                        <path d="M18.5999989,0 C8.3435995,0 0,8.3441995 0,18.5999989 C0,28.8557983 8.3435995,37.1999978 18.5999989,37.1999978 C28.8563983,37.1999978 37.1999978,28.8557983 37.1999978,18.5999989 C37.1999978,8.3441995 28.8563983,0 18.5999989,0 Z M11.3999993,16.199999 C11.3999993,12.2297993 14.6297991,8.99999946 18.5999989,8.99999946 C22.5701987,8.99999946 25.7999985,12.2297993 25.7999985,16.199999 L25.7999985,17.9999989 C25.7999985,21.9701987 22.5701987,25.1999985 18.5999989,25.1999985 C14.6297991,25.1999985 11.3999993,21.9701987 11.3999993,17.9999989 L11.3999993,16.199999 Z M18.5999989,35.9999979 C14.5793991,35.9999979 10.8761994,34.6253979 7.92659953,32.3267981 C9.64919942,29.3939982 12.7559992,27.5999984 16.199999,27.5999984 L20.9999987,27.5999984 C24.4397985,27.5999984 27.5465984,29.3939982 29.2727983,32.3273981 C26.3231984,34.6259979 22.6199987,35.9999979 18.5999989,35.9999979 Z" id="Shape"></path>
                    </g>
                    <g id="settings-gear-65" transform="translate(24.599999, 311.999981)" fill="#FFFFFF" fill-rule="nonzero">
                        <path d="M11.9999993,5.39999968 L11.2199993,5.39999968 C11.0999993,4.9799997 10.9199993,4.55999973 10.6799994,4.13999975 L11.2199993,3.59999979 C11.6999993,3.11999981 11.6999993,2.39999986 11.2199993,1.91999989 C10.7399994,1.43999991 10.0199994,1.43999991 9.53999943,1.91999989 L8.99999946,2.45999985 C8.63999949,2.21999987 8.21999951,2.03999988 7.73999954,1.91999989 L7.73999954,1.19999993 C7.73999954,0.539999968 7.19999957,0 6.53999961,0 C5.87999965,0 5.33999968,0.539999968 5.33999968,1.19999993 L5.33999968,1.97999988 C4.9799997,2.09999987 4.55999973,2.21999987 4.13999975,2.45999985 L3.65999978,1.91999989 C3.17999981,1.43999991 2.45999985,1.43999991 1.97999988,1.91999989 C1.49999991,2.39999986 1.49999991,3.11999981 1.97999988,3.59999979 L2.51999985,4.13999975 C2.21999987,4.55999973 2.09999987,4.9799997 1.97999988,5.39999968 L1.19999993,5.39999968 C0.539999968,5.39999968 0,5.93999965 0,6.59999961 C0,7.25999957 0.539999968,7.79999954 1.19999993,7.79999954 L1.97999988,7.79999954 C2.09999987,8.21999951 2.27999986,8.63999949 2.51999985,9.05999946 L1.97999988,9.59999943 C1.49999991,10.0799994 1.49999991,10.7999994 1.97999988,11.2799993 C2.45999985,11.7599993 3.17999981,11.7599993 3.65999978,11.2799993 L4.19999975,10.7399994 C4.55999973,10.9799993 4.9799997,11.1599993 5.45999967,11.2799993 L5.45999967,11.9999993 C5.45999967,12.6599992 5.99999964,13.1999992 6.6599996,13.1999992 C7.31999956,13.1999992 7.85999953,12.6599992 7.85999953,11.9999993 L7.85999953,11.2199993 C8.27999951,11.0999993 8.69999948,10.9199993 9.11999946,10.6799994 L9.65999942,11.2199993 C10.1399994,11.6999993 10.8599994,11.6999993 11.3399993,11.2199993 C11.8199993,10.7399994 11.8199993,10.0199994 11.3399993,9.53999943 L10.7999994,8.99999946 C11.0399993,8.63999949 11.2199993,8.21999951 11.3399993,7.73999954 L11.9999993,7.73999954 C12.6599992,7.73999954 13.1999992,7.19999957 13.1999992,6.53999961 C13.1999992,5.93999965 12.6599992,5.39999968 11.9999993,5.39999968 Z M6.59999961,8.3999995 C5.57999967,8.3999995 4.79999971,7.61999955 4.79999971,6.59999961 C4.79999971,5.57999967 5.57999967,4.79999971 6.59999961,4.79999971 C7.61999955,4.79999971 8.3999995,5.57999967 8.3999995,6.59999961 C8.3999995,7.61999955 7.61999955,8.3999995 6.59999961,8.3999995 Z" id="Shape"></path>
                    </g>
                    <g id="coins" transform="translate(22.799999, 181.799989)" fill="#00FFA2" fill-rule="nonzero">
                        <path d="M10.1999994,9.59999943 C8.4293995,9.59999943 6.95819959,9.21659945 5.99999964,8.57279949 C5.99999964,9.02039946 5.99999964,9.31559944 5.99999964,9.59999943 C5.99999964,10.5941994 7.88039953,11.3999993 10.1999994,11.3999993 C12.5195993,11.3999993 14.3999991,10.5941994 14.3999991,9.59999943 C14.3999991,9.31559944 14.3999991,9.02039946 14.3999991,8.57279949 C13.4417992,9.21659945 11.9705993,9.59999943 10.1999994,9.59999943 Z" id="Shape"></path>
                        <path d="M10.1999994,12.5999992 C8.4293995,12.5999992 6.95819959,12.2165993 5.99999964,11.5727993 C5.99999964,12.0203993 5.99999964,12.3155993 5.99999964,12.5999992 C5.99999964,13.5941992 7.88039953,14.3999991 10.1999994,14.3999991 C12.5195993,14.3999991 14.3999991,13.5941992 14.3999991,12.5999992 C14.3999991,12.3155993 14.3999991,12.0203993 14.3999991,11.5727993 C13.4417992,12.2165993 11.9705993,12.5999992 10.1999994,12.5999992 Z" id="Shape"></path>
                        <ellipse id="Oval" cx="10.1999994" cy="6.59999961" rx="4.19999975" ry="1.79999989"></ellipse>
                        <ellipse id="Oval" cx="4.19999975" cy="1.79999989" rx="4.19999975" ry="1.79999989"></ellipse>
                        <path d="M4.79999971,10.7837994 C4.60379973,10.7933994 4.40459974,10.7999994 4.19999975,10.7999994 C2.42939986,10.7999994 0.958199943,10.4165994 0,9.77279942 C0,10.2203994 0,10.5155994 0,10.7999994 C0,11.7941993 1.88039989,12.5999992 4.19999975,12.5999992 C4.40399974,12.5999992 4.60379973,12.5915992 4.79999971,12.5795993 L4.79999971,10.7837994 Z" id="Shape"></path>
                        <path d="M4.79999971,7.78379954 C4.60379973,7.79339954 4.40459974,7.79999954 4.19999975,7.79999954 C2.42939986,7.79999954 0.958199943,7.41659956 0,6.7727996 C0,7.22039957 0,7.51559955 0,7.79999954 C0,8.79419948 1.88039989,9.59999943 4.19999975,9.59999943 C4.40399974,9.59999943 4.60379973,9.59159943 4.79999971,9.57959943 L4.79999971,7.78379954 Z" id="Shape"></path>
                        <path d="M5.95199965,4.65959972 C5.41079968,4.74959972 4.82519971,4.79999971 4.19999975,4.79999971 C2.42939986,4.79999971 0.958199943,4.41659974 0,3.77279978 C0,4.22039975 0,4.51559973 0,4.79999971 C0,5.79419965 1.88039989,6.59999961 4.19999975,6.59999961 C4.40459974,6.59999961 4.60439973,6.59159961 4.80179971,6.57959961 C4.80899971,5.82179965 5.22599969,5.16359969 5.95199965,4.65959972 Z" id="Shape"></path>
                    </g>
                    <g id="money-time" transform="translate(22.199999, 268.199984)" fill="#FFFFFF" fill-rule="nonzero">
                        <path d="M10.1999994,9.42719944 C8.4293995,9.42719944 6.95819959,9.04379946 5.99999964,8.3999995 C5.99999964,8.84759947 5.99999964,9.14279946 5.99999964,9.42719944 C5.99999964,10.4213994 7.88039953,11.2271993 10.1999994,11.2271993 C12.5195993,11.2271993 14.3999991,10.4213994 14.3999991,9.42719944 C14.3999991,9.14279946 14.3999991,8.84759947 14.3999991,8.3999995 C13.4417992,9.04379946 11.9705993,9.42719944 10.1999994,9.42719944 Z" id="Shape"></path>
                        <path d="M10.1999994,12.4271993 C8.4293995,12.4271993 6.95819959,12.0437993 5.99999964,11.3999993 C5.99999964,11.8475993 5.99999964,12.1427993 5.99999964,12.4271993 C5.99999964,13.4213992 7.88039953,14.2271992 10.1999994,14.2271992 C12.5195993,14.2271992 14.3999991,13.4213992 14.3999991,12.4271993 C14.3999991,12.1427993 14.3999991,11.8475993 14.3999991,11.3999993 C13.4417992,12.0437993 11.9705993,12.4271993 10.1999994,12.4271993 Z" id="Shape"></path>
                        <polygon id="Shape" points="5.39999968 5.39999968 2.39999986 5.39999968 2.39999986 4.19999975 4.19999975 4.19999975 4.19999975 2.39999986 5.39999968 2.39999986"></polygon>
                        <ellipse id="Oval" cx="10.1999994" cy="6.59999961" rx="4.19999975" ry="1.79999989"></ellipse>
                        <path d="M4.79999971,8.3999995 C2.81459983,8.3999995 1.19999993,6.7853996 1.19999993,4.79999971 C1.19999993,2.81459983 2.81459983,1.19999993 4.79999971,1.19999993 C6.38159962,1.19999993 7.80059954,2.25779987 8.25119951,3.77159978 L8.25239951,3.77579977 C8.63159949,3.70379978 9.03419946,3.65279978 9.45899944,3.62579978 L9.40079944,3.4289998 C8.80019948,1.41059992 6.90839959,0 4.79999971,0 C2.15339987,0 0,2.15339987 0,4.79999971 C0,7.44659956 2.15339987,9.59999943 4.79999971,9.59999943 L4.79999971,8.3999995 Z" id="Shape"></path>
                    </g>
                </g>
            </g>
        </g>
    </g>
</svg>