<?xml version="1.0" encoding="UTF-8"?>
<svg width="172px" height="403px" viewBox="0 0 172 403" version="1.1" xmlns="http://www.w3.org/2000/svg" xmlns:xlink="http://www.w3.org/1999/xlink">
    <!-- Generator: Sketch 49.1 (51147) - http://www.bohemiancoding.com/sketch -->
    <title>easy-graphic</title>
    <desc>Created with Sketch.</desc>
    <defs>
        <rect id="path-1" x="0" y="0" width="131.999992" height="362.999978"></rect>
        <filter x="-23.9%" y="-7.9%" width="147.7%" height="117.4%" filterUnits="objectBoundingBox" id="filter-2">
            <feOffset dx="0" dy="3" in="SourceAlpha" result="shadowOffsetOuter1"></feOffset>
            <feGaussianBlur stdDeviation="10" in="shadowOffsetOuter1" result="shadowBlurOuter1"></feGaussianBlur>
            <feColorMatrix values="0 0 0 0 0.0862745098   0 0 0 0 0.180392157   0 0 0 0 0.22745098  0 0 0 0.338258605 0" type="matrix" in="shadowBlurOuter1"></feColorMatrix>
        </filter>
    </defs>
    <g id="Sign-In" stroke="none" stroke-width="1" fill="none" fill-rule="evenodd">
        <g id="Desktop-HD" transform="translate(-903.000000, -2043.000000)">
            <g id="Group-13" transform="translate(268.000000, 2060.000000)">
                <g id="easy-graphic" transform="translate(655.000000, 0.000000)">
                    <g id="Sidebar">
                        <g id="Rectangle">
                            <use fill="black" fill-opacity="1" filter="url(#filter-2)" xlink:href="#path-1"></use>
                            <use fill="#00334C" fill-rule="evenodd" xlink:href="#path-1"></use>
                        </g>
                        <g id="graph" transform="translate(45.000000, 223.599987)" fill="#FFFFFF" opacity="0.9">
                            <path d="M3.75839709,11.9295992 C3.29039478,11.9295992 2.86019911,11.8468 2.46779717,11.6811992 C2.07539523,11.5155984 1.73879862,11.2762008 1.45799723,10.9629992 C1.17719584,10.6497977 0.957598053,10.2646016 0.79919727,9.8073993 C0.640796488,9.35019704 0.561597284,8.83360223 0.561597284,8.25759939 C0.561597284,7.68879658 0.642596469,7.17760172 0.80459727,6.72399948 C0.96659807,6.27039724 1.19159581,5.88520111 1.47959723,5.56839955 C1.76759865,5.25159798 2.11139519,5.00860043 2.51099717,4.83939959 C2.91059914,4.67019876 3.34439478,4.58559961 3.81239709,4.58559961 C4.0571983,4.58559961 4.28219604,4.61079935 4.48739705,4.6611996 C4.69259806,4.71159985 4.87979618,4.77819918 5.04899702,4.86099959 C5.21819785,4.9438 5.36939633,5.03739906 5.50259699,5.14179957 C5.63579765,5.24620009 5.75279647,5.35239902 5.85359697,5.46039956 L5.356797,6.04359952 C5.17679611,5.8563986 4.96799821,5.69800019 4.73039704,5.56839955 C4.49279586,5.43879891 4.19399887,5.37399956 3.83399709,5.37399956 C3.47399531,5.37399956 3.14999857,5.44059889 2.86199715,5.57379955 C2.57399572,5.70700021 2.32919819,5.89779829 2.12759719,6.14619951 C1.92599619,6.39460074 1.76939777,6.69519772 1.65779722,7.04799946 C1.54619667,7.4008012 1.49039723,7.79679722 1.49039723,8.23599939 C1.49039723,8.6824016 1.5425967,9.08379756 1.64699722,9.44019932 C1.75139774,9.79660108 1.90259621,10.100798 2.10059719,10.3527993 C2.29859817,10.6048005 2.54339571,10.7991986 2.83499715,10.9359992 C3.12659859,11.0727999 3.4631952,11.1411992 3.84479709,11.1411992 C4.09679833,11.1411992 4.33619593,11.1033996 4.56299705,11.0277992 C4.78979817,10.9521988 4.9751963,10.8495999 5.11919701,10.7199992 L5.11919701,8.87319935 L3.6179971,8.87319935 L3.6179971,8.1279994 L5.93999696,8.1279994 L5.93999696,11.1087992 C5.70959583,11.3464004 5.40719887,11.5425984 5.03279702,11.6973992 C4.65839517,11.8521999 4.23359944,11.9295992 3.75839709,11.9295992 Z M7.54919687,11.7999992 L7.54919687,6.55119949 L8.28359682,6.55119949 L8.35919682,7.50159943 L8.39159682,7.50159943 C8.57159771,7.1703978 8.78939552,6.90760044 9.04499678,6.71319948 C9.30059804,6.51879852 9.57959523,6.4215995 9.88199673,6.4215995 C10.0907978,6.4215995 10.2779959,6.45759914 10.4435967,6.52959949 L10.2707967,7.30719945 C10.1843963,7.2783993 10.1051971,7.25679952 10.0331967,7.24239945 C9.96119636,7.22799938 9.87119727,7.22079945 9.76319674,7.22079945 C9.53999563,7.22079945 9.30779797,7.31079855 9.06659678,7.49079943 C8.82539559,7.67080032 8.6147977,7.98399717 8.43479682,8.43039938 L8.43479682,11.7999992 L7.54919687,11.7999992 Z M12.2471966,11.9295992 C11.8079944,11.9295992 11.4425981,11.8000005 11.1509967,11.5407992 C10.8593952,11.2815979 10.7135967,10.9144016 10.7135967,10.4391993 C10.7135967,9.86319641 10.9691941,9.42220085 11.4803966,9.11619934 C11.9915992,8.81019783 12.8087909,8.59599998 13.9319965,8.47359938 C13.9319965,8.30799856 13.9157967,8.14600019 13.8833965,7.9875994 C13.8509963,7.82919862 13.7951969,7.68880003 13.7159965,7.56639943 C13.6367961,7.44399883 13.5269972,7.34499982 13.3865965,7.26939945 C13.2461958,7.19379907 13.0679976,7.15599945 12.8519966,7.15599945 C12.5495951,7.15599945 12.2651979,7.21359887 11.9987966,7.32879944 C11.7323953,7.44400001 11.4947977,7.57359871 11.2859966,7.71759942 L10.9403967,7.10199946 C11.1851979,6.94359867 11.4839949,6.79060021 11.8367966,6.64299948 C12.1895984,6.49539876 12.5783944,6.4215995 13.0031965,6.4215995 C13.6439997,6.4215995 14.108395,6.61779752 14.3963965,7.01019946 C14.6843979,7.4026014 14.8283964,7.92639613 14.8283964,8.58159937 L14.8283964,11.7999992 L14.0939965,11.7999992 L14.0183965,11.1735992 L13.9859965,11.1735992 C13.7339952,11.3824002 13.463998,11.5605985 13.1759965,11.7081992 C12.8879951,11.8557999 12.5783982,11.9295992 12.2471966,11.9295992 Z M12.5063966,11.2167992 C12.7583978,11.2167992 12.9959954,11.1573998 13.2191965,11.0385992 C13.4423976,10.9197986 13.6799952,10.7452004 13.9319965,10.5147993 L13.9319965,9.05679934 C13.4927943,9.11439963 13.123798,9.18279894 12.8249966,9.26199933 C12.5261951,9.34119972 12.2849975,9.43479878 12.1013966,9.54279931 C11.9177957,9.65079985 11.784597,9.7749986 11.7017966,9.91539929 C11.6189962,10.0558 11.5775966,10.2087984 11.5775966,10.3743993 C11.5775966,10.6768008 11.6675957,10.8927986 11.8475966,11.0223992 C12.0275975,11.1519999 12.2471953,11.2167992 12.5063966,11.2167992 Z M16.4807963,14.013999 L16.4807963,6.55119949 L17.2151963,6.55119949 L17.2907963,7.15599945 L17.3231963,7.15599945 C17.5607975,6.95439846 17.8217948,6.7816002 18.1061962,6.63759949 C18.3905976,6.49359877 18.6875947,6.4215995 18.9971962,6.4215995 C19.3355979,6.4215995 19.6343949,6.48459886 19.8935961,6.61059949 C20.1527974,6.73660011 20.3687952,6.9165983 20.5415961,7.15059945 C20.7143969,7.38460061 20.8457956,7.66539779 20.9357961,7.9929994 C21.0257965,8.32060102 21.0707961,8.68959731 21.0707961,9.09999934 C21.0707961,9.54640154 21.0095967,9.94419754 20.8871961,10.2933993 C20.7647955,10.642601 20.5991971,10.939598 20.3903961,11.1843992 C20.1815951,11.4292004 19.9403975,11.6145986 19.6667961,11.7405992 C19.3931948,11.8665998 19.1051977,11.9295992 18.8027962,11.9295992 C18.557995,11.9295992 18.3149974,11.8755997 18.0737962,11.7675992 C17.832595,11.6595986 17.5895975,11.5120001 17.3447963,11.3247992 L17.3663963,12.2427992 L17.3663963,14.013999 L16.4807963,14.013999 Z M18.6515962,11.1843992 C18.8675973,11.1843992 19.0673953,11.1357997 19.2509962,11.0385992 C19.4345971,10.9413987 19.5929955,10.8046001 19.7261961,10.6281992 C19.8593968,10.4517984 19.9637957,10.2340006 20.0393961,9.97479929 C20.1149965,9.71559801 20.1527961,9.42400094 20.1527961,9.09999934 C20.1527961,8.81199792 20.1275964,8.54920056 20.0771961,8.31159939 C20.0267959,8.07399821 19.9457967,7.87060026 19.8341961,7.70139942 C19.7225956,7.53219859 19.578597,7.40079991 19.4021962,7.30719945 C19.2257953,7.21359898 19.0151974,7.16679945 18.7703962,7.16679945 C18.5471951,7.16679945 18.3221974,7.22799884 18.0953962,7.35039944 C17.8685951,7.47280005 17.6255976,7.64919827 17.3663963,7.87959941 L17.3663963,10.6335992 C17.6039975,10.8352002 17.8343951,10.9773988 18.0575962,11.0601992 C18.2807973,11.1429996 18.4787954,11.1843992 18.6515962,11.1843992 Z M22.474796,11.7999992 L22.474796,4.11039964 L23.3603959,4.11039964 L23.3603959,6.20559951 L23.3279959,7.28559945 C23.5799972,7.04799827 23.8427945,6.84460032 24.1163959,6.67539948 C24.3899972,6.50619865 24.710394,6.4215995 25.0775958,6.4215995 C25.6319986,6.4215995 26.0369945,6.59439776 26.2925958,6.93999947 C26.548197,7.28560117 26.6759957,7.79679603 26.6759957,8.47359938 L26.6759957,11.7999992 L25.7903958,11.7999992 L25.7903958,8.59239937 C25.7903958,8.09559691 25.7111966,7.73740052 25.5527958,7.51779943 C25.394395,7.29819835 25.1423975,7.18839945 24.7967958,7.18839945 C24.5231945,7.18839945 24.2819969,7.25679876 24.0731959,7.39359944 C23.8643949,7.53040012 23.6267972,7.73199809 23.3603959,7.9983994 L23.3603959,11.7999992 L22.474796,11.7999992 Z" id="Graph"></path>
                        </g>
                        <g id="History" transform="translate(45.000000, 266.799985)" fill="#FFFFFF" opacity="0.9">
                            <path d="M0.97199726,11.7999992 L0.97199726,4.7151996 L1.86839721,4.7151996 L1.86839721,7.68519942 L5.16239701,7.68519942 L5.16239701,4.7151996 L6.06959696,4.7151996 L6.06959696,11.7999992 L5.16239701,11.7999992 L5.16239701,8.46279938 L1.86839721,8.46279938 L1.86839721,11.7999992 L0.97199726,11.7999992 Z M7.92719685,11.7999992 L7.92719685,6.55119949 L8.81279679,6.55119949 L8.81279679,11.7999992 L7.92719685,11.7999992 Z M8.38079682,5.47119955 C8.20799596,5.47119955 8.06219743,5.4172001 7.94339684,5.30919956 C7.82459626,5.20119903 7.76519685,5.06440041 7.76519685,4.89879959 C7.76519685,4.72599874 7.82459626,4.58740013 7.94339684,4.48299961 C8.06219743,4.3785991 8.20799596,4.32639962 8.38079682,4.32639962 C8.55359767,4.32639962 8.69939621,4.3785991 8.81819679,4.48299961 C8.93699738,4.58740013 8.99639678,4.72599874 8.99639678,4.89879959 C8.99639678,5.06440041 8.93699738,5.20119903 8.81819679,5.30919956 C8.69939621,5.4172001 8.55359767,5.47119955 8.38079682,5.47119955 Z M11.9555966,11.9295992 C11.5811948,11.9295992 11.2247983,11.8611999 10.8863967,11.7243992 C10.547995,11.5875985 10.252798,11.4148002 10.0007967,11.2059992 L10.4435967,10.6119992 C10.6739978,10.7992002 10.9097955,10.9503987 11.1509967,11.0655992 C11.3921978,11.1807998 11.671195,11.2383992 11.9879966,11.2383992 C12.3335983,11.2383992 12.5927957,11.1592 12.7655966,11.0007992 C12.9383974,10.8423984 13.0247965,10.6480004 13.0247965,10.4175993 C13.0247965,10.2807986 12.9887969,10.1619998 12.9167965,10.0611993 C12.8447962,9.96039878 12.7529971,9.87219967 12.6413966,9.7965993 C12.529796,9.72099892 12.4019973,9.65439959 12.2579966,9.59679931 L11.8259966,9.42399932 C11.6387957,9.359199 11.4515976,9.28539974 11.2643966,9.20259933 C11.0771957,9.11979892 10.9097974,9.01899994 10.7621967,8.90019935 C10.6145959,8.78139876 10.4939972,8.64280016 10.4003967,8.48439938 C10.3067962,8.32599859 10.2599967,8.13520051 10.2599967,7.91199941 C10.2599967,7.70319838 10.3013963,7.50700035 10.3841967,7.32339944 C10.4669971,7.13979854 10.5857959,6.98140013 10.7405967,6.84819947 C10.8953974,6.71499881 11.0843955,6.61059986 11.3075966,6.53499949 C11.5307977,6.45939912 11.7827952,6.4215995 12.0635966,6.4215995 C12.3947982,6.4215995 12.6989952,6.47919892 12.9761965,6.59439949 C13.2533979,6.70960006 13.4927955,6.84999864 13.6943965,7.01559946 L13.2731965,7.57719943 C13.0931956,7.44039875 12.9059975,7.32879988 12.7115966,7.24239945 C12.5171956,7.15599902 12.3047977,7.11279946 12.0743966,7.11279946 C11.743195,7.11279946 11.5001974,7.1883987 11.3453966,7.33959944 C11.1905959,7.49080019 11.1131967,7.66719842 11.1131967,7.86879941 C11.1131967,7.99120002 11.1455963,8.09739895 11.2103966,8.18739939 C11.275197,8.27739984 11.3615961,8.35659904 11.4695966,8.42499938 C11.5775972,8.49339972 11.7017959,8.5545991 11.8421966,8.60859937 C11.9825973,8.66259963 12.1283958,8.71839907 12.2795966,8.77599936 C12.4667975,8.84799971 12.6557956,8.92359895 12.8465966,9.00279934 C13.0373975,9.08199974 13.2083958,9.18099874 13.3595965,9.29979933 C13.5107973,9.41859991 13.634996,9.56439845 13.7321965,9.7371993 C13.829397,9.91000015 13.8779965,10.1187981 13.8779965,10.3635993 C13.8779965,10.5796003 13.8365969,10.7811983 13.7537965,10.9683992 C13.6709961,11.1556002 13.5485973,11.3211985 13.3865965,11.4651992 C13.2245957,11.6091999 13.0229977,11.7225988 12.7817966,11.8053992 C12.5405954,11.8881996 12.2651981,11.9295992 11.9555966,11.9295992 Z M16.5455963,11.9295992 C16.2647949,11.9295992 16.0289973,11.8863996 15.8381964,11.7999992 C15.6473954,11.7135988 15.492597,11.5947999 15.3737964,11.4435992 C15.2549958,11.2923985 15.1703967,11.1088003 15.1199964,10.8927992 C15.0695962,10.6767982 15.0443964,10.4392006 15.0443964,10.1799993 L15.0443964,7.27479945 L14.2667965,7.27479945 L14.2667965,6.60519949 L15.0875964,6.55119949 L15.1955964,5.08239958 L15.9407964,5.08239958 L15.9407964,6.55119949 L17.3555963,6.55119949 L17.3555963,7.27479945 L15.9407964,7.27479945 L15.9407964,10.1907993 C15.9407964,10.5148009 16.0001958,10.7649984 16.1189964,10.9413992 C16.2377969,11.1178001 16.4483948,11.2059992 16.7507963,11.2059992 C16.8443968,11.2059992 16.9451958,11.1915994 17.0531963,11.1627992 C17.1611968,11.1339991 17.2583959,11.1015994 17.3447963,11.0655992 L17.5175963,11.7351992 C17.3735956,11.7855994 17.2169971,11.830599 17.0477963,11.8701992 C16.8785955,11.9097994 16.7111971,11.9295992 16.5455963,11.9295992 Z M20.4335961,11.9295992 C20.1095945,11.9295992 19.8017976,11.8683998 19.5101962,11.7459992 C19.2185947,11.6235986 18.9611973,11.4454004 18.7379962,11.2113992 C18.5147951,10.9773981 18.3365969,10.689401 18.2033962,10.3473993 C18.0701956,10.0053976 18.0035962,9.61840147 18.0035962,9.18639933 C18.0035962,8.74719716 18.0701956,8.35660109 18.2033962,8.0145994 C18.3365969,7.67259771 18.5147951,7.38280063 18.7379962,7.14519945 C18.9611973,6.90759828 19.2185947,6.72760009 19.5101962,6.60519949 C19.8017976,6.48279888 20.1095945,6.4215995 20.4335961,6.4215995 C20.7575977,6.4215995 21.0653946,6.48279888 21.356996,6.60519949 C21.6485975,6.72760009 21.9059949,6.90759828 22.129196,7.14519945 C22.3523971,7.38280063 22.5305953,7.67259771 22.663796,8.0145994 C22.7969966,8.35660109 22.863596,8.74719716 22.863596,9.18639933 C22.863596,9.61840147 22.7969966,10.0053976 22.663796,10.3473993 C22.5305953,10.689401 22.3523971,10.9773981 22.129196,11.2113992 C21.9059949,11.4454004 21.6485975,11.6235986 21.356996,11.7459992 C21.0653946,11.8683998 20.7575977,11.9295992 20.4335961,11.9295992 Z M20.4335961,11.1951992 C20.6567972,11.1951992 20.8619951,11.1465997 21.0491961,11.0493992 C21.236397,10.9521987 21.3965954,10.8154001 21.529796,10.6389992 C21.6629967,10.4625984 21.7655957,10.2520005 21.837596,10.0071993 C21.9095964,9.76239807 21.945596,9.48880083 21.945596,9.18639933 C21.945596,8.88399784 21.9095964,8.60860061 21.837596,8.36019938 C21.7655957,8.11179816 21.6629967,7.89760031 21.529796,7.71759942 C21.3965954,7.53759853 21.236397,7.39899993 21.0491961,7.30179945 C20.8619951,7.20459897 20.6567972,7.15599945 20.4335961,7.15599945 C20.210395,7.15599945 20.0051971,7.20459897 19.8179961,7.30179945 C19.6307952,7.39899993 19.4705968,7.53759853 19.3373962,7.71759942 C19.2041955,7.89760031 19.1015965,8.11179816 19.0295962,8.36019938 C18.9575958,8.60860061 18.9215962,8.88399784 18.9215962,9.18639933 C18.9215962,9.48880083 18.9575958,9.76239807 19.0295962,10.0071993 C19.1015965,10.2520005 19.2041955,10.4625984 19.3373962,10.6389992 C19.4705968,10.8154001 19.6307952,10.9521987 19.8179961,11.0493992 C20.0051971,11.1465997 20.210395,11.1951992 20.4335961,11.1951992 Z M24.2459959,11.7999992 L24.2459959,6.55119949 L24.9803958,6.55119949 L25.0559958,7.50159943 L25.0883958,7.50159943 C25.2683967,7.1703978 25.4861945,6.90760044 25.7417958,6.71319948 C25.997397,6.51879852 26.2763942,6.4215995 26.5787957,6.4215995 C26.7875968,6.4215995 26.9747949,6.45759914 27.1403957,6.52959949 L26.9675957,7.30719945 C26.8811953,7.2783993 26.8019961,7.25679952 26.7299957,7.24239945 C26.6579954,7.22799938 26.5679963,7.22079945 26.4599957,7.22079945 C26.2367946,7.22079945 26.004597,7.31079855 25.7633958,7.49079943 C25.5221946,7.67080032 25.3115967,7.98399717 25.1315958,8.43039938 L25.1315958,11.7999992 L24.2459959,11.7999992 Z M28.3499956,14.057199 C28.227595,14.057199 28.1159961,14.0481991 28.0151956,14.030199 C27.9143951,14.012199 27.8207961,13.9851992 27.7343957,13.949199 L27.9071957,13.2471991 L28.1015956,13.2957991 C28.173596,13.3137992 28.2419953,13.3227991 28.3067956,13.3227991 C28.6091971,13.3227991 28.8557946,13.2166002 29.0465956,13.0041991 C29.2373965,12.7917981 29.386795,12.5236008 29.4947956,12.1995992 L29.6135956,11.8107992 L27.5075957,6.55119949 L28.4255956,6.55119949 L29.4947956,9.45639932 C29.573996,9.68680046 29.6585951,9.92979801 29.7485955,10.1853993 C29.838596,10.4410005 29.9231951,10.691198 30.0023955,10.9359992 L30.0455955,10.9359992 C30.1247959,10.6983981 30.2003952,10.4500006 30.2723955,10.1907993 C30.3443959,9.93159799 30.4163951,9.68680046 30.4883955,9.45639932 L31.4279954,6.55119949 L32.2919954,6.55119949 L30.3155955,12.2319992 C30.221995,12.4912004 30.1175961,12.732398 30.0023955,12.9555991 C29.887195,13.1788002 29.7503963,13.3713983 29.5919956,13.5333991 C29.4335948,13.6953999 29.2535966,13.8231986 29.0519956,13.9167991 C28.8503946,14.0103995 28.6163969,14.057199 28.3499956,14.057199 Z"></path>
                        </g>
                        <g id="settings" transform="translate(45.000000, 309.999982)" fill="#FFFFFF" opacity="0.9">
                            <path d="M2.93759714,11.9295992 C2.44079469,11.9295992 1.97999932,11.8360001 1.55519723,11.6487992 C1.13039513,11.4615983 0.76319882,11.2060008 0.453597291,10.8819992 L0.993597259,10.2555993 C1.2455985,10.5220006 1.54259552,10.7361984 1.88459721,10.8981992 C2.2265989,11.0602 2.58119533,11.1411992 2.94839714,11.1411992 C3.41639945,11.1411992 3.7799958,11.0350003 4.03919708,10.8225992 C4.29839836,10.6101982 4.42799705,10.331201 4.42799705,9.98559929 C4.42799705,9.8055984 4.39739736,9.65259994 4.33619706,9.52659931 C4.27499676,9.40059869 4.19219759,9.29259978 4.08779707,9.20259933 C3.98339656,9.11259889 3.85919781,9.0315997 3.7151971,8.95959935 C3.57119638,8.88759899 3.41639794,8.81199975 3.25079712,8.73279936 L2.23559718,8.28999939 C2.06999637,8.21799903 1.90079807,8.1315999 1.72799721,8.0307994 C1.55519636,7.9299989 1.40039792,7.80760014 1.26359724,7.66359942 C1.12679657,7.51959871 1.01519769,7.34860043 0.928797262,7.15059945 C0.842396836,6.95259848 0.79919727,6.72400078 0.79919727,6.4647995 C0.79919727,6.19839818 0.854996709,5.95000068 0.96659726,5.71959954 C1.07819781,5.4891984 1.23299625,5.28940041 1.43099723,5.12019958 C1.62899821,4.95099874 1.86299586,4.81960006 2.13299719,4.7259996 C2.40299852,4.63239914 2.69999554,4.58559961 3.02399714,4.58559961 C3.44879924,4.58559961 3.84119529,4.66659879 4.20119707,4.82859959 C4.56119885,4.99060039 4.86719577,5.20119827 5.11919701,5.46039956 L4.63319704,6.04359952 C4.41719597,5.83479849 4.17779838,5.67100014 3.91499708,5.55219955 C3.65219579,5.43339896 3.35519877,5.37399956 3.02399714,5.37399956 C2.62799518,5.37399956 2.30939839,5.46579864 2.06819719,5.64939954 C1.826996,5.83300045 1.70639722,6.0867979 1.70639722,6.4107995 C1.70639722,6.58360035 1.74059687,6.72939889 1.80899721,6.84819947 C1.87739755,6.96700006 1.96919662,7.07139901 2.08439719,7.16139945 C2.19959776,7.2513999 2.3255965,7.3305991 2.46239717,7.39899944 C2.59919785,7.46739978 2.73959643,7.53039914 2.88359715,7.58799943 L3.88799709,8.0199994 C4.08959808,8.10639983 4.28039616,8.20539883 4.46039705,8.31699939 C4.64039794,8.42859994 4.79519638,8.55819863 4.92479702,8.70579936 C5.05439766,8.85340009 5.15699663,9.02619835 5.23259701,9.22419933 C5.30819738,9.42220031 5.345997,9.65079801 5.345997,9.90999929 C5.345997,10.1908007 5.29019756,10.453598 5.17859701,10.6983992 C5.06699646,10.9432005 4.90679807,11.1573983 4.69799704,11.3409992 C4.48919601,11.5246001 4.23719854,11.6685987 3.94199708,11.7729992 C3.64679562,11.8773997 3.31199899,11.9295992 2.93759714,11.9295992 Z M8.78039679,11.9295992 C8.42759505,11.9295992 8.09819837,11.8665998 7.79219685,11.7405992 C7.48619534,11.6145986 7.21979802,11.4346004 6.9929969,11.2005992 C6.76619578,10.9665981 6.58799757,10.6804009 6.45839693,10.3419993 C6.32879629,10.0035976 6.26399694,9.61840147 6.26399694,9.18639933 C6.26399694,8.7543972 6.33059627,8.36740109 6.46379693,8.0253994 C6.59699759,7.68339771 6.77339582,7.39360063 6.9929969,7.15599945 C7.21259799,6.91839828 7.46279547,6.73660011 7.74359686,6.61059949 C8.02439824,6.48459886 8.31599531,6.4215995 8.6183968,6.4215995 C8.94959844,6.4215995 9.24659545,6.47919892 9.50939675,6.59439949 C9.77219805,6.70960006 9.99179584,6.87519839 10.1681967,7.09119946 C10.3445976,7.30720053 10.4795962,7.56639792 10.5731967,7.86879941 C10.6667972,8.17120091 10.7135967,8.5095975 10.7135967,8.88399935 C10.7135967,8.97759981 10.7117967,9.06939889 10.7081967,9.15939933 C10.7045967,9.24939978 10.6955968,9.326799 10.6811967,9.39159932 L7.13879689,9.39159932 C7.17479707,9.9532021 7.34939531,10.3977976 7.66259686,10.7253992 C7.97579841,11.0530009 8.3843943,11.2167992 8.88839679,11.2167992 C9.14039803,11.2167992 9.3725957,11.1789996 9.58499675,11.1033992 C9.7973978,11.0277988 10.0007957,10.9287998 10.1951967,10.8063992 L10.5083967,11.3895992 C10.2779956,11.5335999 10.0223981,11.6595986 9.74159674,11.7675992 C9.46079535,11.8755997 9.14039857,11.9295992 8.78039679,11.9295992 Z M7.12799689,8.75439936 L9.93599673,8.75439936 C9.93599673,8.22159673 9.82259787,7.8166008 9.59579675,7.53939943 C9.36899563,7.26219806 9.05039883,7.12359946 8.6399968,7.12359946 C8.45279588,7.12359946 8.27459767,7.15959909 8.10539683,7.23159945 C7.936196,7.30359981 7.78319754,7.40979874 7.64639686,7.55019943 C7.50959619,7.69060012 7.39619733,7.8615984 7.30619688,8.0631994 C7.21619644,8.2648004 7.15679704,8.49519808 7.12799689,8.75439936 Z M13.5539965,11.9295992 C13.2731951,11.9295992 13.0373975,11.8863996 12.8465966,11.7999992 C12.6557956,11.7135988 12.5009972,11.5947999 12.3821966,11.4435992 C12.263396,11.2923985 12.1787968,11.1088003 12.1283966,10.8927992 C12.0779963,10.6767982 12.0527966,10.4392006 12.0527966,10.1799993 L12.0527966,7.27479945 L11.2751966,7.27479945 L11.2751966,6.60519949 L12.0959966,6.55119949 L12.2039966,5.08239958 L12.9491965,5.08239958 L12.9491965,6.55119949 L14.3639965,6.55119949 L14.3639965,7.27479945 L12.9491965,7.27479945 L12.9491965,10.1907993 C12.9491965,10.5148009 13.0085959,10.7649984 13.1273965,10.9413992 C13.2461971,11.1178001 13.456795,11.2059992 13.7591965,11.2059992 C13.852797,11.2059992 13.9535959,11.1915994 14.0615965,11.1627992 C14.169597,11.1339991 14.266796,11.1015994 14.3531965,11.0655992 L14.5259965,11.7351992 C14.3819957,11.7855994 14.2253973,11.830599 14.0561965,11.8701992 C13.8869956,11.9097994 13.7195973,11.9295992 13.5539965,11.9295992 Z M16.9883963,11.9295992 C16.7075949,11.9295992 16.4717973,11.8863996 16.2809963,11.7999992 C16.0901954,11.7135988 15.935397,11.5947999 15.8165964,11.4435992 C15.6977958,11.2923985 15.6131966,11.1088003 15.5627964,10.8927992 C15.5123961,10.6767982 15.4871964,10.4392006 15.4871964,10.1799993 L15.4871964,7.27479945 L14.7095964,7.27479945 L14.7095964,6.60519949 L15.5303964,6.55119949 L15.6383964,5.08239958 L16.3835963,5.08239958 L16.3835963,6.55119949 L17.7983963,6.55119949 L17.7983963,7.27479945 L16.3835963,7.27479945 L16.3835963,10.1907993 C16.3835963,10.5148009 16.4429957,10.7649984 16.5617963,10.9413992 C16.6805969,11.1178001 16.8911948,11.2059992 17.1935963,11.2059992 C17.2871968,11.2059992 17.3879957,11.1915994 17.4959963,11.1627992 C17.6039968,11.1339991 17.7011958,11.1015994 17.7875963,11.0655992 L17.9603962,11.7351992 C17.8163955,11.7855994 17.6597971,11.830599 17.4905963,11.8701992 C17.3213954,11.9097994 17.1539971,11.9295992 16.9883963,11.9295992 Z M18.9863962,11.7999992 L18.9863962,6.55119949 L19.8719961,6.55119949 L19.8719961,11.7999992 L18.9863962,11.7999992 Z M19.4399962,5.47119955 C19.2671953,5.47119955 19.1213968,5.4172001 19.0025962,5.30919956 C18.8837956,5.20119903 18.8243962,5.06440041 18.8243962,4.89879959 C18.8243962,4.72599874 18.8837956,4.58740013 19.0025962,4.48299961 C19.1213968,4.3785991 19.2671953,4.32639962 19.4399962,4.32639962 C19.612797,4.32639962 19.7585955,4.3785991 19.8773961,4.48299961 C19.9961967,4.58740013 20.0555961,4.72599874 20.0555961,4.89879959 C20.0555961,5.06440041 19.9961967,5.20119903 19.8773961,5.30919956 C19.7585955,5.4172001 19.612797,5.47119955 19.4399962,5.47119955 Z M21.643196,11.7999992 L21.643196,6.55119949 L22.377596,6.55119949 L22.453196,7.30719945 L22.485596,7.30719945 C22.7375972,7.0551982 23.0021946,6.84460032 23.2793959,6.67539948 C23.5565973,6.50619865 23.8787941,6.4215995 24.2459959,6.4215995 C24.8003986,6.4215995 25.2053945,6.59439776 25.4609958,6.93999947 C25.7165971,7.28560117 25.8443958,7.79679603 25.8443958,8.47359938 L25.8443958,11.7999992 L24.9587958,11.7999992 L24.9587958,8.59239937 C24.9587958,8.09559691 24.8795966,7.73740052 24.7211958,7.51779943 C24.5627951,7.29819835 24.3107976,7.18839945 23.9651959,7.18839945 C23.6915945,7.18839945 23.450397,7.25679876 23.2415959,7.39359944 C23.0327949,7.53040012 22.7951973,7.73199809 22.528796,7.9983994 L22.528796,11.7999992 L21.643196,11.7999992 Z M29.3219956,14.219199 C28.997994,14.219199 28.7027969,14.1885993 28.4363956,14.127399 C28.1699943,14.0661987 27.9413966,13.9743997 27.7505957,13.8519991 C27.5597947,13.7295985 27.4121962,13.5819999 27.3077957,13.4091991 C27.2033952,13.2363982 27.1511957,13.0348003 27.1511957,12.8043991 C27.1511957,12.581198 27.219595,12.3688002 27.3563957,12.1671992 C27.4931964,11.9655982 27.6803945,11.782 27.9179957,11.6163992 L27.9179957,11.5731992 C27.788395,11.4939988 27.6785961,11.3841999 27.5885957,11.2437992 C27.4985952,11.1033985 27.4535957,10.9288003 27.4535957,10.7199992 C27.4535957,10.4967981 27.5147951,10.3024001 27.6371957,10.1367993 C27.7595963,9.97119846 27.889195,9.84159976 28.0259956,9.7479993 L28.0259956,9.7047993 C27.8531948,9.56079859 27.6965964,9.36820053 27.5561957,9.12699934 C27.415795,8.88579815 27.3455957,8.60680095 27.3455957,8.28999939 C27.3455957,8.00199796 27.3977952,7.74280057 27.5021957,7.51239943 C27.6065962,7.28199829 27.7487948,7.08580027 27.9287957,6.92379947 C28.1087965,6.76179867 28.3193944,6.63759992 28.5605956,6.55119949 C28.8017968,6.46479906 29.0555943,6.4215995 29.3219956,6.4215995 C29.4659963,6.4215995 29.6009949,6.43419937 29.7269955,6.4593995 C29.8529962,6.48459962 29.966395,6.51519931 30.0671955,6.55119949 L31.8923954,6.55119949 L31.8923954,7.23159945 L30.8123955,7.23159945 C30.9347961,7.35400005 31.0373951,7.5087985 31.1201955,7.69599942 C31.2029959,7.88320035 31.2443955,8.08839828 31.2443955,8.31159939 C31.2443955,8.59240077 31.193996,8.84619822 31.0931955,9.07299934 C30.992395,9.29980046 30.8555963,9.49059854 30.6827955,9.64539931 C30.5099946,9.80020007 30.3065967,9.92079886 30.0725955,10.0071993 C29.8385944,10.0935997 29.5883969,10.1367993 29.3219956,10.1367993 C29.1923949,10.1367993 29.0591963,10.1205994 28.9223956,10.0881993 C28.7855949,10.0557991 28.6559962,10.0107996 28.5335956,9.95319929 C28.4399952,10.0323997 28.360796,10.1205988 28.2959956,10.2177993 C28.2311953,10.3149998 28.1987956,10.4355985 28.1987956,10.5795993 C28.1987956,10.7452001 28.263595,10.8819987 28.3931956,10.9899992 C28.5227963,11.0979998 28.7675938,11.1519992 29.1275956,11.1519992 L30.1427955,11.1519992 C30.7547985,11.1519992 31.2137939,11.2509982 31.5197954,11.4489992 C31.825797,11.6470002 31.9787954,11.965597 31.9787954,12.4047991 C31.9787954,12.6496004 31.917596,12.881798 31.7951954,13.1013991 C31.6727948,13.3210002 31.4963966,13.5135982 31.2659955,13.6791991 C31.0355943,13.8447999 30.7565971,13.9761986 30.4289955,14.073399 C30.1013939,14.1705995 29.7323976,14.219199 29.3219956,14.219199 Z M29.3219956,9.54279931 C29.4731963,9.54279931 29.6153949,9.5139996 29.7485955,9.45639932 C29.8817962,9.39879903 30.000595,9.31599987 30.1049955,9.20799933 C30.209396,9.0999988 30.2903952,8.96860012 30.3479955,8.81379936 C30.4055958,8.65899859 30.4343955,8.48440035 30.4343955,8.28999939 C30.4343955,7.90119747 30.3263966,7.60060049 30.1103955,7.38819944 C29.8943945,7.17579839 29.6315971,7.06959946 29.3219956,7.06959946 C29.012394,7.06959946 28.7495967,7.17579839 28.5335956,7.38819944 C28.3175945,7.60060049 28.2095956,7.90119747 28.2095956,8.28999939 C28.2095956,8.48440035 28.2383953,8.65899859 28.2959956,8.81379936 C28.3535959,8.96860012 28.4345951,9.0999988 28.5389956,9.20799933 C28.6433961,9.31599987 28.7621949,9.39879903 28.8953956,9.45639932 C29.0285963,9.5139996 29.1707948,9.54279931 29.3219956,9.54279931 Z M29.4515956,13.6035991 C29.7035968,13.6035991 29.9321945,13.5729994 30.1373955,13.5117991 C30.3425965,13.4505988 30.5171948,13.3713996 30.6611955,13.2741991 C30.8051962,13.1769986 30.9167951,13.0635998 30.9959955,12.9339991 C31.0751959,12.8043985 31.1147955,12.6711998 31.1147955,12.5343991 C31.1147955,12.2895979 31.0247964,12.1203996 30.8447955,12.0267992 C30.6647946,11.9331987 30.4019972,11.8863992 30.0563955,11.8863992 L29.1491956,11.8863992 C29.0483951,11.8863992 28.9385962,11.8809992 28.8197956,11.8701992 C28.700995,11.8593991 28.5839962,11.8359994 28.4687956,11.7999992 C28.2815947,11.9367999 28.1447961,12.0807984 28.0583956,12.2319992 C27.9719952,12.3831999 27.9287957,12.5343984 27.9287957,12.6855991 C27.9287957,12.9664005 28.0637943,13.1895983 28.3337956,13.3551991 C28.603797,13.5207999 28.9763932,13.6035991 29.4515956,13.6035991 Z M34.3655953,11.9295992 C33.9911934,11.9295992 33.634797,11.8611999 33.2963953,11.7243992 C32.9579937,11.5875985 32.6627966,11.4148002 32.4107954,11.2059992 L32.8535954,10.6119992 C33.0839965,10.7992002 33.3197941,10.9503987 33.5609953,11.0655992 C33.8021965,11.1807998 34.0811937,11.2383992 34.3979953,11.2383992 C34.743597,11.2383992 35.0027944,11.1592 35.1755952,11.0007992 C35.3483961,10.8423984 35.4347952,10.6480004 35.4347952,10.4175993 C35.4347952,10.2807986 35.3987956,10.1619998 35.3267952,10.0611993 C35.2547949,9.96039878 35.1629958,9.87219967 35.0513952,9.7965993 C34.9397947,9.72099892 34.811996,9.65439959 34.6679953,9.59679931 L34.2359953,9.42399932 C34.0487944,9.359199 33.8615962,9.28539974 33.6743953,9.20259933 C33.4871944,9.11979892 33.3197961,9.01899994 33.1721953,8.90019935 C33.0245946,8.78139876 32.9039958,8.64280016 32.8103954,8.48439938 C32.7167949,8.32599859 32.6699954,8.13520051 32.6699954,7.91199941 C32.6699954,7.70319838 32.711395,7.50700035 32.7941954,7.32339944 C32.8769958,7.13979854 32.9957946,6.98140013 33.1505953,6.84819947 C33.3053961,6.71499881 33.4943942,6.61059986 33.7175953,6.53499949 C33.9407964,6.45939912 34.1927939,6.4215995 34.4735953,6.4215995 C34.8047969,6.4215995 35.1089938,6.47919892 35.3861952,6.59439949 C35.6633966,6.70960006 35.9027942,6.84999864 36.1043952,7.01559946 L35.6831952,7.57719943 C35.5031943,7.44039875 35.3159962,7.32879988 35.1215952,7.24239945 C34.9271943,7.15599902 34.7147964,7.11279946 34.4843953,7.11279946 C34.1531936,7.11279946 33.9101961,7.1883987 33.7553953,7.33959944 C33.6005945,7.49080019 33.5231953,7.66719842 33.5231953,7.86879941 C33.5231953,7.99120002 33.555595,8.09739895 33.6203953,8.18739939 C33.6851956,8.27739984 33.7715948,8.35659904 33.8795953,8.42499938 C33.9875958,8.49339972 34.1117946,8.5545991 34.2521953,8.60859937 C34.392596,8.66259963 34.5383945,8.71839907 34.6895953,8.77599936 C34.8767962,8.84799971 35.0657943,8.92359895 35.2565952,9.00279934 C35.4473962,9.08199974 35.6183944,9.18099874 35.7695952,9.29979933 C35.9207959,9.41859991 36.0449947,9.56439845 36.1421952,9.7371993 C36.2393956,9.91000015 36.2879952,10.1187981 36.2879952,10.3635993 C36.2879952,10.5796003 36.2465956,10.7811983 36.1637952,10.9683992 C36.0809948,11.1556002 35.958596,11.3211985 35.7965952,11.4651992 C35.6345944,11.6091999 35.4329964,11.7225988 35.1917952,11.8053992 C34.950594,11.8881996 34.6751968,11.9295992 34.3655953,11.9295992 Z" id="Settings"></path>
                        </g>
                        <g id="overview" transform="translate(43.000000, 182.399990)" fill="#FFFFFF" fill-opacity="0.8">
                            <path d="M4.49359717,11.1295991 C4.01839482,11.1295991 3.58459919,11.0449999 3.19219725,10.8757991 C2.79979531,10.7065983 2.46319869,10.4636007 2.18239731,10.1467992 C1.90159592,9.82999759 1.68379811,9.44480147 1.52899735,8.99119923 C1.37419658,8.53759698 1.29679736,8.02280216 1.29679736,7.44679932 C1.29679736,6.87079647 1.37419658,6.35780163 1.52899735,5.90779941 C1.68379811,5.45779719 1.90159592,5.07980099 2.18239731,4.77379948 C2.46319869,4.46779797 2.79979531,4.23380032 3.19219725,4.07179952 C3.58459919,3.90979872 4.01839482,3.82879953 4.49359717,3.82879953 C4.96879952,3.82879953 5.40259515,3.90979872 5.79499709,4.07179952 C6.18739903,4.23380032 6.52399564,4.46959795 6.80479703,4.77919948 C7.08559842,5.08880101 7.30339623,5.46859719 7.45819699,5.91859941 C7.61299776,6.36860163 7.69039698,6.87799651 7.69039698,7.44679932 C7.69039698,8.02280216 7.61299776,8.53759698 7.45819699,8.99119923 C7.30339623,9.44480147 7.08559842,9.82999759 6.80479703,10.1467992 C6.52399564,10.4636007 6.18739903,10.7065983 5.79499709,10.8757991 C5.40259515,11.0449999 4.96879952,11.1295991 4.49359717,11.1295991 Z M4.49359717,9.75799918 C4.97599955,9.75799918 5.35759571,9.55100126 5.6383971,9.13699922 C5.91919849,8.72299717 6.05959708,8.15960284 6.05959708,7.44679932 C6.05959708,6.74119583 5.91919849,6.19040137 5.6383971,5.79439942 C5.35759571,5.39839746 4.97599955,5.20039945 4.49359717,5.20039945 C4.01119479,5.20039945 3.62959862,5.39839746 3.34879724,5.79439942 C3.06799585,6.19040137 2.92759726,6.74119583 2.92759726,7.44679932 C2.92759726,8.15960284 3.06799585,8.72299717 3.34879724,9.13699922 C3.62959862,9.55100126 4.01119479,9.75799918 4.49359717,9.75799918 Z M10.1203968,10.9999991 L8.31679694,5.64319943 L9.91519685,5.64319943 L10.6063968,8.17039927 C10.6783972,8.43680059 10.7485965,8.70859786 10.8169968,8.98579923 C10.8853971,9.2630006 10.9555964,9.54199779 11.0275968,9.82279918 L11.0707968,9.82279918 C11.1355971,9.54199779 11.2021964,9.2630006 11.2705968,8.98579923 C11.3389971,8.70859786 11.4091964,8.43680059 11.4811968,8.17039927 L12.1831967,5.64319943 L13.7059966,5.64319943 L11.9563967,10.9999991 L10.1203968,10.9999991 Z M16.8487964,11.1295991 C16.4671945,11.1295991 16.1107981,11.0665997 15.7795965,10.9405991 C15.4483949,10.8145985 15.1603978,10.6310003 14.9155965,10.3897991 C14.6707953,10.148598 14.4799973,9.8552009 14.3431966,9.50959919 C14.2063959,9.16399749 14.1379966,8.76800147 14.1379966,8.32159927 C14.1379966,7.88959713 14.2099959,7.49900106 14.3539966,7.14979934 C14.4979973,6.80059761 14.6869954,6.50540058 14.9209965,6.26419939 C15.1549977,6.0229982 15.423195,5.83760006 15.7255965,5.70799942 C16.027998,5.57839878 16.3411948,5.51359943 16.6651964,5.51359943 C17.0467983,5.51359943 17.379795,5.57839878 17.6641964,5.70799942 C17.9485978,5.83760006 18.1861954,6.01759825 18.3769963,6.24799939 C18.5677973,6.47840053 18.7099959,6.75019779 18.8035963,7.06339934 C18.8971968,7.37660089 18.9439963,7.71679747 18.9439963,8.08399928 C18.9439963,8.22799999 18.9367964,8.36479862 18.9223963,8.49439926 C18.9079962,8.6239999 18.8935964,8.72119892 18.8791963,8.78599924 L15.6715965,8.78599924 C15.7435969,9.17480116 15.9037952,9.46099828 16.1521965,9.64459919 C16.4005977,9.82820009 16.7047946,9.91999917 17.0647964,9.91999917 C17.4463983,9.91999917 17.8315944,9.80120037 18.2203964,9.56359919 L18.7495963,10.5247991 C18.475995,10.7120001 18.171798,10.8595986 17.8369964,10.9675991 C17.5021947,11.0755996 17.172798,11.1295991 16.8487964,11.1295991 Z M15.6607965,7.7383993 L17.5939964,7.7383993 C17.5939964,7.43599781 17.5255971,7.19120027 17.3887964,7.00399934 C17.2519957,6.81679842 17.021598,6.72319936 16.6975964,6.72319936 C16.4455952,6.72319936 16.2241974,6.80599853 16.0333965,6.97159935 C15.8425955,7.13720016 15.7183968,7.39279759 15.6607965,7.7383993 Z M20.0455962,10.9999991 L20.0455962,5.64319943 L21.3415962,5.64319943 L21.4495962,6.58279937 L21.4927962,6.58279937 C21.6871971,6.21559756 21.9211948,5.94560027 22.1947961,5.77279942 C22.4683975,5.59999856 22.7419947,5.51359943 23.0155961,5.51359943 C23.1667968,5.51359943 23.2909956,5.52259934 23.388196,5.54059943 C23.4853965,5.55859952 23.5735956,5.58559925 23.652796,5.62159943 L23.393596,6.99319934 C23.2927955,6.9643992 23.1991965,6.94279942 23.1127961,6.92839935 C23.0263956,6.91399928 22.9255966,6.90679935 22.8103961,6.90679935 C22.6087951,6.90679935 22.3981972,6.97879863 22.1785961,7.12279934 C21.958995,7.26680005 21.7771969,7.52239748 21.6331961,7.88959929 L21.6331961,10.9999991 L20.0455962,10.9999991 Z M25.6507959,10.9999991 L23.847196,5.64319943 L25.4455959,5.64319943 L26.1367959,8.17039927 C26.2087962,8.43680059 26.2789955,8.70859786 26.3473959,8.98579923 C26.4157962,9.2630006 26.4859955,9.54199779 26.5579959,9.82279918 L26.6011959,9.82279918 C26.6659962,9.54199779 26.7325955,9.2630006 26.8009958,8.98579923 C26.8693962,8.70859786 26.9395955,8.43680059 27.0115958,8.17039927 L27.7135958,5.64319943 L29.2363957,5.64319943 L27.4867958,10.9999991 L25.6507959,10.9999991 Z M30.0679956,10.9999991 L30.0679956,5.64319943 L31.6555956,5.64319943 L31.6555956,10.9999991 L30.0679956,10.9999991 Z M30.8563956,4.85479947 C30.5899943,4.85479947 30.3703965,4.77740025 30.1975956,4.62259949 C30.0247948,4.46779872 29.9383957,4.26800073 29.9383957,4.02319952 C29.9383957,3.77839831 30.0247948,3.5804003 30.1975956,3.42919956 C30.3703965,3.27799881 30.5899943,3.20239957 30.8563956,3.20239957 C31.1299969,3.20239957 31.3513947,3.27799881 31.5205956,3.42919956 C31.6897964,3.5804003 31.7743955,3.77839831 31.7743955,4.02319952 C31.7743955,4.26800073 31.6897964,4.46779872 31.5205956,4.62259949 C31.3513947,4.77740025 31.1299969,4.85479947 30.8563956,4.85479947 Z M35.4463953,11.1295991 C35.0647934,11.1295991 34.708397,11.0665997 34.3771954,10.9405991 C34.0459938,10.8145985 33.7579966,10.6310003 33.5131954,10.3897991 C33.2683942,10.148598 33.0775961,9.8552009 32.9407955,9.50959919 C32.8039948,9.16399749 32.7355955,8.76800147 32.7355955,8.32159927 C32.7355955,7.88959713 32.8075948,7.49900106 32.9515955,7.14979934 C33.0955962,6.80059761 33.2845943,6.50540058 33.5185954,6.26419939 C33.7525966,6.0229982 34.0207939,5.83760006 34.3231954,5.70799942 C34.6255969,5.57839878 34.9387937,5.51359943 35.2627953,5.51359943 C35.6443972,5.51359943 35.9773939,5.57839878 36.2617953,5.70799942 C36.5461967,5.83760006 36.7837943,6.01759825 36.9745952,6.24799939 C37.1653962,6.47840053 37.3075947,6.75019779 37.4011952,7.06339934 C37.4947957,7.37660089 37.5415952,7.71679747 37.5415952,8.08399928 C37.5415952,8.22799999 37.5343953,8.36479862 37.5199952,8.49439926 C37.5055951,8.6239999 37.4911953,8.72119892 37.4767952,8.78599924 L34.2691954,8.78599924 C34.3411958,9.17480116 34.5013941,9.46099828 34.7497954,9.64459919 C34.9981966,9.82820009 35.3023935,9.91999917 35.6623953,9.91999917 C36.0439972,9.91999917 36.4291933,9.80120037 36.8179952,9.56359919 L37.3471952,10.5247991 C37.0735939,10.7120001 36.7693969,10.8595986 36.4345953,10.9675991 C36.0997936,11.0755996 35.7703969,11.1295991 35.4463953,11.1295991 Z M34.2583954,7.7383993 L36.1915953,7.7383993 C36.1915953,7.43599781 36.123196,7.19120027 35.9863953,7.00399934 C35.8495946,6.81679842 35.6191969,6.72319936 35.2951953,6.72319936 C35.0431941,6.72319936 34.8217963,6.80599853 34.6309954,6.97159935 C34.4401944,7.13720016 34.3159957,7.39279759 34.2583954,7.7383993 Z M39.4747951,10.9999991 L38.1355952,5.64319943 L39.7123951,5.64319943 L40.230795,8.12719928 C40.2739953,8.39360059 40.3135949,8.65639795 40.349595,8.91559923 C40.3855952,9.17480051 40.4251948,9.44119783 40.468395,9.71479918 L40.511595,9.71479918 C40.5619953,9.44119783 40.6105948,9.17120055 40.657395,8.90479923 C40.7041952,8.63839791 40.7599947,8.37920052 40.824795,8.12719928 L41.418795,5.64319943 L42.7903949,5.64319943 L43.3951949,8.12719928 C43.4599952,8.39360059 43.5175946,8.65639795 43.5679948,8.91559923 C43.6183951,9.17480051 43.6723945,9.44119783 43.7299948,9.71479918 L43.7731948,9.71479918 C43.8235951,9.44119783 43.8649947,9.17480051 43.8973948,8.91559923 C43.929795,8.65639795 43.9711946,8.39360059 44.0215948,8.12719928 L44.5291948,5.64319943 L45.9979947,5.64319943 L44.7127948,10.9999991 L42.8551949,10.9999991 L42.3691949,8.86159923 C42.3115946,8.60959799 42.2611951,8.35760052 42.2179949,8.10559928 C42.1747947,7.85359803 42.1279952,7.58360075 42.0775949,7.29559933 L42.0343949,7.29559933 C41.9839947,7.58360075 41.9389951,7.85359803 41.8993949,8.10559928 C41.8597947,8.35760052 41.8147952,8.60959799 41.7643949,8.86159923 L41.289195,10.9999991 L39.4747951,10.9999991 Z" id="Overview"></path>
                        </g>
                        <g id="Group-2" transform="translate(38.999998, 131.999992)" fill="#FFFFFF" opacity="0.9">
                            <path d="M2.61119984,9.11519999 C2.16959766,9.11519999 1.76000178,9.03200083 1.38239992,8.86560001 C1.00479805,8.69919919 0.678401336,8.47200147 0.403199976,8.18400005 L0.883199947,7.62720008 C1.10720105,7.86400125 1.3711984,8.05439934 1.6751999,8.19840005 C1.9792014,8.34240076 2.29439823,8.41440003 2.62079984,8.41440003 C3.0368019,8.41440003 3.35999865,8.32000098 3.59039979,8.13120005 C3.82080092,7.94239912 3.93599977,7.69440161 3.93599977,7.3872001 C3.93599977,7.22719931 3.90880004,7.09120067 3.85439977,6.97920012 C3.7999995,6.86719957 3.72640024,6.77120053 3.63359978,6.69120014 C3.54079932,6.61119974 3.43040044,6.53920047 3.3023998,6.47520015 C3.17439917,6.41119983 3.03680055,6.34400051 2.88959983,6.27360016 L1.98719988,5.88000019 C1.83999915,5.81599987 1.68960067,5.73920064 1.53599991,5.6496002 C1.38239915,5.55999976 1.24480053,5.45120085 1.12319993,5.32320022 C1.00159933,5.19519959 0.90240033,5.04320112 0.825599951,4.86720025 C0.748799571,4.69119938 0.710399958,4.48800142 0.710399958,4.25760028 C0.710399958,4.02079911 0.759999459,3.80000133 0.859199949,3.59520032 C0.958400439,3.39039931 1.09599905,3.2128011 1.27199992,3.06240035 C1.44800079,2.91199961 1.6559987,2.79520079 1.89599989,2.71200037 C2.13600107,2.62879996 2.39999842,2.58720038 2.68799984,2.58720038 C3.06560171,2.58720038 3.4143982,2.65919966 3.73439978,2.80320037 C4.05440136,2.94720108 4.32639862,3.1343992 4.55039973,3.36480034 L4.11839975,3.8832003 C3.92639881,3.69759939 3.71360095,3.55200085 3.47999979,3.44640033 C3.24639864,3.34079981 2.98240129,3.28800034 2.68799984,3.28800034 C2.3359981,3.28800034 2.05280095,3.36959952 1.83839989,3.53280033 C1.62399883,3.69600113 1.51679991,3.92159886 1.51679991,4.20960029 C1.51679991,4.36320104 1.5471996,4.49279974 1.6079999,4.59840026 C1.6688002,4.70400078 1.75039938,4.79679985 1.85279989,4.87680025 C1.9552004,4.95680064 2.06719927,5.02719993 2.18879987,5.08800023 C2.31040047,5.14880053 2.43519921,5.20479997 2.56319985,5.25600022 L3.45599979,5.6400002 C3.63520068,5.71680058 3.80479897,5.80479969 3.96479976,5.90400018 C4.12480055,6.00320067 4.26239917,6.11839952 4.37759974,6.24960016 C4.49280031,6.38080081 4.58399939,6.53439927 4.65119972,6.71040014 C4.71840005,6.88640101 4.75199972,7.08959896 4.75199972,7.3200001 C4.75199972,7.56960133 4.70240022,7.80319898 4.60319973,8.02080006 C4.50399924,8.23840113 4.36160067,8.42879922 4.17599975,8.59200002 C3.99039883,8.75520083 3.76640109,8.88319954 3.50399979,8.976 C3.24159849,9.06880046 2.94400149,9.11519999 2.61119984,9.11519999 Z M5.91359965,9 L5.91359965,4.33440028 L6.7007996,4.33440028 L6.7007996,9 L5.91359965,9 Z M6.31679962,3.37440034 C6.16319886,3.37440034 6.03360017,3.32640082 5.92799965,3.23040034 C5.82239912,3.13439987 5.76959966,3.01280109 5.76959966,2.86560037 C5.76959966,2.71199961 5.82239912,2.58880085 5.92799965,2.49600039 C6.03360017,2.40319993 6.16319886,2.3568004 6.31679962,2.3568004 C6.47040038,2.3568004 6.59999908,2.40319993 6.7055996,2.49600039 C6.81120012,2.58880085 6.86399959,2.71199961 6.86399959,2.86560037 C6.86399959,3.01280109 6.81120012,3.13439987 6.7055996,3.23040034 C6.59999908,3.32640082 6.47040038,3.37440034 6.31679962,3.37440034 Z M9.84959941,11.1503999 C9.56159799,11.1503999 9.29920063,11.1232001 9.06239946,11.0687999 C8.82559829,11.0143996 8.62240033,10.9328004 8.4527995,10.8239999 C8.28319866,10.7151994 8.15199998,10.5840007 8.05919952,10.4303999 C7.96639906,10.2767992 7.91999953,10.097601 7.91999953,9.89279995 C7.91999953,9.69439897 7.98079892,9.50560087 8.10239952,9.32639998 C8.22400012,9.1471991 8.39039844,8.98400074 8.60159949,8.83680001 L8.60159949,8.79840001 C8.48639892,8.72799966 8.3887999,8.63040065 8.3087995,8.50560003 C8.22879911,8.38079941 8.18879951,8.22560097 8.18879951,8.04000006 C8.18879951,7.84159908 8.24319896,7.66880082 8.3519995,7.52160009 C8.46080004,7.37439936 8.57599888,7.25920052 8.69759948,7.17600011 L8.69759948,7.13760011 C8.54399872,7.00959948 8.40480012,6.8384012 8.27999951,6.62400014 C8.15519889,6.40959908 8.09279952,6.16160158 8.09279952,5.88000019 C8.09279952,5.62399892 8.13919905,5.39360124 8.23199951,5.18880023 C8.32479997,4.98399922 8.4511987,4.80960097 8.61119949,4.66560026 C8.77120028,4.52159955 8.95839839,4.41120066 9.17279945,4.33440028 C9.38720051,4.2575999 9.61279824,4.21920028 9.84959941,4.21920028 C9.97760005,4.21920028 10.0975988,4.23040017 10.2095994,4.25280028 C10.3215999,4.27520039 10.4223989,4.30240012 10.5119994,4.33440028 L12.1343993,4.33440028 L12.1343993,4.93920024 L11.1743993,4.93920024 C11.2831999,5.04800078 11.374399,5.1855994 11.4479993,5.35200022 C11.5215997,5.51840104 11.5583993,5.7007992 11.5583993,5.89920018 C11.5583993,6.14880142 11.5135998,6.37439915 11.4239993,6.57600014 C11.3343989,6.77760114 11.2128001,6.94719943 11.0591993,7.08480011 C10.9055986,7.22240079 10.7248004,7.32959972 10.5167994,7.40640009 C10.3087983,7.48320047 10.0864006,7.52160009 9.84959941,7.52160009 C9.73439884,7.52160009 9.61600003,7.50720023 9.49439943,7.47840009 C9.37279883,7.44959995 9.25759999,7.40960035 9.14879945,7.3584001 C9.06559904,7.42880045 8.99519975,7.50719966 8.93759947,7.59360008 C8.87999918,7.68000051 8.85119947,7.78719943 8.85119947,7.91520006 C8.85119947,8.06240079 8.90879889,8.18399957 9.02399946,8.28000004 C9.13920003,8.37600052 9.35679784,8.42400003 9.67679942,8.42400003 L10.5791994,8.42400003 C11.1232021,8.42400003 11.531198,8.51199915 11.8031993,8.68800002 C12.0752006,8.86400089 12.2111993,9.14719804 12.2111993,9.53759997 C12.2111993,9.75520104 12.1567998,9.96159897 12.0479993,10.1567999 C11.9391987,10.3520009 11.7824003,10.5231992 11.5775993,10.6703999 C11.3727983,10.8176006 11.1248008,10.9343995 10.8335994,11.0207999 C10.5423979,11.1072003 10.2144012,11.1503999 9.84959941,11.1503999 Z M9.84959941,6.99360012 C9.98400008,6.99360012 10.1103988,6.96800038 10.2287994,6.91680012 C10.3472,6.86559987 10.4527989,6.79200061 10.5455994,6.69600014 C10.6383998,6.59999966 10.7103991,6.48320084 10.7615994,6.34560016 C10.8127996,6.20799948 10.8383994,6.05280104 10.8383994,5.88000019 C10.8383994,5.53439848 10.7424003,5.26720117 10.5503994,5.07840023 C10.3583984,4.8895993 10.1248008,4.79520025 9.84959941,4.79520025 C9.57439805,4.79520025 9.3408004,4.8895993 9.14879945,5.07840023 C8.95679851,5.26720117 8.86079947,5.53439848 8.86079947,5.88000019 C8.86079947,6.05280104 8.88639921,6.20799948 8.93759947,6.34560016 C8.98879972,6.48320084 9.060799,6.59999966 9.15359945,6.69600014 C9.24639991,6.79200061 9.35199885,6.86559987 9.47039944,6.91680012 C9.58880002,6.96800038 9.71519875,6.99360012 9.84959941,6.99360012 Z M9.96479941,10.6031999 C10.1888005,10.6031999 10.3919985,10.5760002 10.5743994,10.5215999 C10.7568003,10.4671996 10.9119987,10.3968003 11.0399993,10.3103999 C11.168,10.2239995 11.267199,10.1232005 11.3375993,10.0079999 C11.4079997,9.89279937 11.4431993,9.77440056 11.4431993,9.65279996 C11.4431993,9.43519889 11.3632001,9.2848004 11.2031993,9.20159999 C11.0431985,9.11839958 10.8096009,9.0768 10.5023994,9.0768 L9.69599942,9.0768 C9.60639898,9.0768 9.50879996,9.07200004 9.40319944,9.0624 C9.29759892,9.05279995 9.19359996,9.03200016 9.09119946,9 C8.92479864,9.1216006 8.80319986,9.24959931 8.72639948,9.38399998 C8.6495991,9.51840064 8.61119949,9.65279929 8.61119949,9.78719995 C8.61119949,10.0368012 8.73119828,10.2351992 8.97119947,10.3823999 C9.21120065,10.5296006 9.54239732,10.6031999 9.96479941,10.6031999 Z M13.1135992,9 L13.1135992,4.33440028 L13.7663992,4.33440028 L13.8335992,5.00640024 L13.8623992,5.00640024 C14.0864003,4.78239913 14.3215979,4.59520101 14.5679991,4.44480027 C14.8144003,4.29439953 15.1007975,4.21920028 15.4271991,4.21920028 C15.9200015,4.21920028 16.2799979,4.37279874 16.507199,4.68000026 C16.7344001,4.98720178 16.847999,5.4415972 16.847999,6.04320018 L16.847999,9 L16.060799,9 L16.060799,6.14880017 C16.060799,5.70719799 15.9903998,5.38880119 15.8495991,5.19360023 C15.7087984,4.99839926 15.4848006,4.90080024 15.1775991,4.90080024 C14.9343979,4.90080024 14.7200001,4.96159963 14.5343991,5.08320023 C14.3487982,5.20480083 14.1376003,5.38399903 13.9007992,5.6208002 L13.9007992,9 L13.1135992,9 Z M22.6847986,9.11519999 C22.2879967,9.11519999 21.9248003,9.03840077 21.5951987,8.88480001 C21.2655971,8.73119925 20.9823999,8.51200145 20.7455988,8.22720005 C20.5087976,7.94239864 20.3247994,7.59680212 20.1935988,7.19040011 C20.0623981,6.7839981 19.9967988,6.32800269 19.9967988,5.82240019 C19.9967988,5.31679769 20.0623981,4.86400225 20.1935988,4.46400027 C20.3247994,4.06399829 20.5087976,3.72480171 20.7455988,3.44640033 C20.9823999,3.16799896 21.2655971,2.9552011 21.5951987,2.80800037 C21.9248003,2.66079964 22.2879967,2.58720038 22.6847986,2.58720038 C23.0816006,2.58720038 23.444797,2.66239963 23.7743986,2.81280037 C24.1040002,2.96320111 24.3887973,3.17759896 24.6287985,3.45600033 C24.8687997,3.73440171 25.0543979,4.07359829 25.1855985,4.47360027 C25.3167991,4.87360225 25.3823985,5.32319772 25.3823985,5.82240019 C25.3823985,6.32800269 25.3167991,6.7839981 25.1855985,7.19040011 C25.0543979,7.59680212 24.8687997,7.94239864 24.6287985,8.22720005 C24.3887973,8.51200145 24.1040002,8.73119925 23.7743986,8.88480001 C23.444797,9.03840077 23.0816006,9.11519999 22.6847986,9.11519999 Z M22.6847986,8.41440003 C22.9664,8.41440003 23.2207975,8.35360065 23.4479986,8.23200005 C23.6751997,8.11039945 23.8703978,7.9360012 24.0335986,7.70880008 C24.1967994,7.48159895 24.3231981,7.20960169 24.4127985,6.89280013 C24.502399,6.57599856 24.5471985,6.21920215 24.5471985,5.82240019 C24.5471985,5.43199826 24.502399,5.0800018 24.4127985,4.76640025 C24.3231981,4.4527987 24.1967994,4.18720137 24.0335986,3.9696003 C23.8703978,3.75199922 23.6751997,3.58400091 23.4479986,3.46560033 C23.2207975,3.34719974 22.9664,3.28800034 22.6847986,3.28800034 C22.4031973,3.28800034 22.1487998,3.34719974 21.9215987,3.46560033 C21.6943976,3.58400091 21.4991995,3.75199922 21.3359987,3.9696003 C21.1727979,4.18720137 21.0463992,4.4527987 20.9567988,4.76640025 C20.8671983,5.0800018 20.8223988,5.43199826 20.8223988,5.82240019 C20.8223988,6.21920215 20.8671983,6.57599856 20.9567988,6.89280013 C21.0463992,7.20960169 21.1727979,7.48159895 21.3359987,7.70880008 C21.4991995,7.9360012 21.6943976,8.11039945 21.9215987,8.23200005 C22.1487998,8.35360065 22.4031973,8.41440003 22.6847986,8.41440003 Z M28.0223983,9.11519999 C27.5231959,9.11519999 27.1599995,8.96160154 26.9327984,8.65440002 C26.7055973,8.3471985 26.5919984,7.89280307 26.5919984,7.2912001 L26.5919984,4.33440028 L27.3887984,4.33440028 L27.3887984,7.18560011 C27.3887984,7.62720229 27.4575977,7.94559909 27.5951984,8.14080005 C27.732799,8.33600102 27.9551968,8.43360003 28.2623983,8.43360003 C28.5055995,8.43360003 28.7199974,8.37120066 28.9055983,8.24640004 C29.0911992,8.12159943 29.2959971,7.92160144 29.5199982,7.64640008 L29.5199982,4.33440028 L30.3071982,4.33440028 L30.3071982,9 L29.6543982,9 L29.5871982,8.27040004 L29.5583982,8.27040004 C29.3407972,8.52640131 29.1119995,8.73119925 28.8719983,8.88480001 C28.6319971,9.03840077 28.3487999,9.11519999 28.0223983,9.11519999 Z M33.350398,9.11519999 C33.1007968,9.11519999 32.8911989,9.07680038 32.721598,9 C32.5519972,8.92319962 32.4143986,8.81760068 32.3087981,8.68320002 C32.2031976,8.54879935 32.1279983,8.385601 32.0831981,8.19360005 C32.0383979,8.0015991 32.0159981,7.79040122 32.0159981,7.56000009 L32.0159981,4.97760024 L31.3247981,4.97760024 L31.3247981,4.38240028 L32.0543981,4.33440028 L32.1503981,3.02880036 L32.812798,3.02880036 L32.812798,4.33440028 L34.070398,4.33440028 L34.070398,4.97760024 L32.812798,4.97760024 L32.812798,7.56960009 C32.812798,7.85760151 32.8655975,8.07999927 32.971198,8.23680005 C33.0767986,8.39360082 33.2639967,8.47200003 33.532798,8.47200003 C33.6159984,8.47200003 33.7055975,8.45920016 33.801598,8.43360003 C33.8975985,8.40799991 33.9839976,8.3792002 34.060798,8.34720004 L34.214398,8.9424 C34.0863973,8.98720022 33.9471987,9.02719982 33.796798,9.0624 C33.6463972,9.09760017 33.4975987,9.11519999 33.350398,9.11519999 Z" id="Sign-Out"></path>
                        </g>
                        <g id="stock" transform="translate(22.799999, 225.599987)" fill="#FFFFFF" fill-rule="nonzero">
                            <path d="M11.6825993,7.11239958 C11.9879993,6.84179959 12.2369993,6.50999961 12.3947993,6.12659963 L14.3999991,7.12919958 L14.3999991,0.599999964 C14.3999991,0.268799984 14.1311992,0 13.7999992,0 L0.599999964,0 C0.268799984,0 0,0.268799984 0,0.599999964 L0,8.03999952 L3.59339979,5.24519969 L6.02039964,7.06559958 L7.40879956,6.13919963 C7.56659955,6.51659961 7.81439953,6.84359959 8.11559952,7.11119958 L5.97899964,8.53499949 L3.60599979,6.7553996 L0,9.56039943 L0,12.5999992 C0,12.9311992 0.268799984,13.1999992 0.599999964,13.1999992 L13.7999992,13.1999992 C14.1311992,13.1999992 14.3999991,12.9311992 14.3999991,12.5999992 L14.3999991,8.4707995 L11.6825993,7.11239958 Z M10.1999994,6.56939961 L10.1999994,11.9999993 L9.59999943,11.9999993 L9.59999943,6.56939961 C8.91599947,6.43019962 8.3999995,5.82419965 8.3999995,5.0999997 C8.3999995,4.37579974 8.91599947,3.76979978 9.59999943,3.63059978 L9.59999943,1.19999993 L10.1999994,1.19999993 L10.1999994,3.63059978 C10.8839994,3.76979978 11.3999993,4.37579974 11.3999993,5.0999997 C11.3999993,5.82419965 10.8839994,6.43019962 10.1999994,6.56939961 Z" id="Shape"></path>
                        </g>
                        <g id="Group-2" opacity="0.9" transform="translate(22.199999, 116.399993)" fill="#FFFFFF">
                            <path d="M23.0867986,9 L23.0867986,2.70240038 L24.0467986,2.70240038 L25.2563985,6.06240018 C25.3331989,6.28000125 25.4083981,6.49919905 25.4819985,6.72000014 C25.5555988,6.94080123 25.6307981,7.15999902 25.7075985,7.3776001 L25.7459985,7.3776001 C25.8227988,7.15999902 25.8947981,6.94080123 25.9619985,6.72000014 C26.0291988,6.49919905 26.1011981,6.28000125 26.1779984,6.06240018 L27.3683984,2.70240038 L28.3379983,2.70240038 L28.3379983,9 L27.5891984,9 L27.5891984,5.53440021 C27.5891984,5.25279882 27.6019982,4.94240194 27.6275984,4.60320026 C27.6531985,4.26399859 27.6755983,3.95360171 27.6947983,3.67200032 L27.6563984,3.67200032 L27.1571984,5.10240023 L25.9667985,8.36640004 L25.4387985,8.36640004 L24.2483986,5.10240023 L23.7491986,3.67200032 L23.7107986,3.67200032 C23.7299987,3.95360171 23.7507985,4.26399859 23.7731986,4.60320026 C23.7955987,4.94240194 23.8067986,5.25279882 23.8067986,5.53440021 L23.8067986,9 L23.0867986,9 Z M31.0643981,9.11519999 C30.6739962,9.11519999 30.3491995,9.00000115 30.0899982,8.76960001 C29.8307969,8.53919888 29.7011982,8.21280216 29.7011982,7.79040007 C29.7011982,7.27839754 29.9283959,6.88640149 30.3827982,6.61440014 C30.8372004,6.3423988 31.5635931,6.15200071 32.5619981,6.04320018 C32.5619981,5.89599945 32.5475982,5.7520009 32.5187981,5.6112002 C32.4899979,5.47039951 32.4403984,5.34560076 32.3699981,5.23680022 C32.2995977,5.12799969 32.2019987,5.04000057 32.0771981,4.97280024 C31.9523975,4.90559991 31.7939991,4.87200025 31.6019981,4.87200025 C31.3331968,4.87200025 31.0803993,4.92319973 30.8435982,5.02560024 C30.606797,5.12800074 30.3955991,5.24319958 30.2099982,5.37120022 L29.9027982,4.82400025 C30.1203993,4.68319955 30.3859966,4.54720092 30.6995982,4.41600027 C31.0131997,4.28479963 31.3587962,4.21920028 31.7363981,4.21920028 C32.3060009,4.21920028 32.7187968,4.39359853 32.974798,4.74240025 C33.2307993,5.09120198 33.358798,5.55679729 33.358798,6.13920017 L33.358798,9 L32.7059981,9 L32.6387981,8.44320003 L32.6099981,8.44320003 C32.3859969,8.62880095 32.1459994,8.78719936 31.8899981,8.9184 C31.6339968,9.04960065 31.3587996,9.11519999 31.0643981,9.11519999 Z M31.2947981,8.48160003 C31.5187992,8.48160003 31.7299971,8.42880056 31.9283981,8.32320004 C32.1267991,8.21759952 32.337997,8.06240108 32.5619981,7.85760007 L32.5619981,6.56160015 C32.1715961,6.6128004 31.8435994,6.67359979 31.5779981,6.74400013 C31.3123968,6.81440048 31.097999,6.89759965 30.9347982,6.99360012 C30.7715973,7.08960059 30.6531985,7.19999948 30.5795982,7.3248001 C30.5059978,7.44960072 30.4691982,7.58559935 30.4691982,7.73280008 C30.4691982,8.0016014 30.5491974,8.19359947 30.7091982,8.30880004 C30.869199,8.42400061 31.064397,8.48160003 31.2947981,8.48160003 Z M34.8275979,9 L34.8275979,4.33440028 L35.4803979,4.33440028 L35.5475979,5.17920023 L35.5763979,5.17920023 C35.7363987,4.88479877 35.9299967,4.65120112 36.1571978,4.47840027 C36.384399,4.30559942 36.6323965,4.21920028 36.9011978,4.21920028 C37.0867987,4.21920028 37.253197,4.25119996 37.4003978,4.31520028 L37.2467978,5.00640024 C37.1699974,4.98080011 37.0995981,4.9616003 37.0355978,4.94880024 C36.9715975,4.93600018 36.8915983,4.92960024 36.7955978,4.92960024 C36.5971968,4.92960024 36.3907989,5.00959944 36.1763978,5.16960023 C35.9619968,5.32960102 35.7747987,5.60799822 35.6147979,6.00480018 L35.6147979,9 L34.8275979,9 Z M39.4067977,9 L37.7267978,4.33440028 L38.5427977,4.33440028 L39.4259977,6.98400012 C39.496398,7.21440126 39.5683973,7.44479894 39.6419976,7.67520008 C39.715598,7.90560122 39.7875973,8.13279893 39.8579976,8.35680004 L39.8963976,8.35680004 C39.966798,8.13279893 40.0371973,7.90560122 40.1075976,7.67520008 L40.3187976,6.98400012 L41.2019975,4.33440028 L41.9795975,4.33440028 L40.3283976,9 L39.4067977,9 Z M42.8819974,9 L42.8819974,4.33440028 L43.6691974,4.33440028 L43.6691974,9 L42.8819974,9 Z M43.2851974,3.37440034 C43.1315967,3.37440034 43.001998,3.32640082 42.8963974,3.23040034 C42.7907969,3.13439987 42.7379975,3.01280109 42.7379975,2.86560037 C42.7379975,2.71199961 42.7907969,2.58880085 42.8963974,2.49600039 C43.001998,2.40319993 43.1315967,2.3568004 43.2851974,2.3568004 C43.4387982,2.3568004 43.5683969,2.40319993 43.6739974,2.49600039 C43.7795979,2.58880085 43.8323974,2.71199961 43.8323974,2.86560037 C43.8323974,3.01280109 43.7795979,3.13439987 43.6739974,3.23040034 C43.5683969,3.32640082 43.4387982,3.37440034 43.2851974,3.37440034 Z M45.2435973,9 L45.2435973,4.33440028 L45.8963973,4.33440028 L45.9635973,5.00640024 L45.9923973,5.00640024 C46.2163984,4.78239913 46.451596,4.59520101 46.6979972,4.44480027 C46.9443984,4.29439953 47.2307956,4.21920028 47.5571972,4.21920028 C48.0499996,4.21920028 48.409996,4.37279874 48.6371971,4.68000026 C48.8643982,4.98720178 48.9779971,5.4415972 48.9779971,6.04320018 L48.9779971,9 L48.1907971,9 L48.1907971,6.14880017 C48.1907971,5.70719799 48.1203978,5.38880119 47.9795971,5.19360023 C47.8387964,4.99839926 47.6147987,4.90080024 47.3075972,4.90080024 C47.064396,4.90080024 46.8499981,4.96159963 46.6643972,5.08320023 C46.4787963,5.20480083 46.2675984,5.38399903 46.0307973,5.6208002 L46.0307973,9 L45.2435973,9 Z M52.4915969,9 L52.4915969,2.70240038 L56.1203967,2.70240038 L56.1203967,3.37440034 L53.2883968,3.37440034 L53.2883968,5.50560021 L55.6883967,5.50560021 L55.6883967,6.17760017 L53.2883968,6.17760017 L53.2883968,9 L52.4915969,9 Z M58.8371965,9.11519999 C58.5491951,9.11519999 58.2755978,9.06080054 58.0163965,8.952 C57.7571953,8.84319947 57.5283976,8.68480106 57.3299966,8.47680003 C57.1315956,8.268799 56.9731972,8.01280158 56.8547966,7.70880008 C56.736396,7.40479858 56.6771966,7.06080204 56.6771966,6.67680014 C56.6771966,6.28639821 56.736396,5.9392017 56.8547966,5.6352002 C56.9731972,5.3311987 57.1315956,5.07360129 57.3299966,4.86240025 C57.5283976,4.6511992 57.7571953,4.49120081 58.0163965,4.38240028 C58.2755978,4.27359974 58.5491951,4.21920028 58.8371965,4.21920028 C59.1251979,4.21920028 59.3987952,4.27359974 59.6579964,4.38240028 C59.9171977,4.49120081 60.1459954,4.6511992 60.3443964,4.86240025 C60.5427974,5.07360129 60.7011958,5.3311987 60.8195964,5.6352002 C60.937997,5.9392017 60.9971964,6.28639821 60.9971964,6.67680014 C60.9971964,7.06080204 60.937997,7.40479858 60.8195964,7.70880008 C60.7011958,8.01280158 60.5427974,8.268799 60.3443964,8.47680003 C60.1459954,8.68480106 59.9171977,8.84319947 59.6579964,8.952 C59.3987952,9.06080054 59.1251979,9.11519999 58.8371965,9.11519999 Z M58.8371965,8.46240003 C59.0355975,8.46240003 59.2179956,8.41920047 59.3843965,8.33280004 C59.5507973,8.24639961 59.6931959,8.12480084 59.8115964,7.96800006 C59.929997,7.81119929 60.0211961,7.62400117 60.0851964,7.40640009 C60.1491967,7.18879902 60.1811964,6.94560147 60.1811964,6.67680014 C60.1811964,6.40799881 60.1491967,6.16320127 60.0851964,5.94240018 C60.0211961,5.72159909 59.929997,5.53120101 59.8115964,5.37120022 C59.6931959,5.21119943 59.5507973,5.08800067 59.3843965,5.00160024 C59.2179956,4.91519981 59.0355975,4.87200025 58.8371965,4.87200025 C58.6387955,4.87200025 58.4563973,4.91519981 58.2899965,5.00160024 C58.1235957,5.08800067 57.9811971,5.21119943 57.8627966,5.37120022 C57.744396,5.53120101 57.6531969,5.72159909 57.5891966,5.94240018 C57.5251963,6.16320127 57.4931966,6.40799881 57.4931966,6.67680014 C57.4931966,6.94560147 57.5251963,7.18879902 57.5891966,7.40640009 C57.6531969,7.62400117 57.744396,7.81119929 57.8627966,7.96800006 C57.9811971,8.12480084 58.1235957,8.24639961 58.2899965,8.33280004 C58.4563973,8.41920047 58.6387955,8.46240003 58.8371965,8.46240003 Z M61.4099963,9 L62.9363962,6.56160015 L61.5251963,4.33440028 L62.3795963,4.33440028 L63.0035962,5.36160022 C63.0739966,5.48960085 63.1475959,5.61919955 63.2243962,5.75040019 C63.3011966,5.88160084 63.3811958,6.01119954 63.4643962,6.13920017 L63.5027962,6.13920017 C63.5731966,6.01119954 63.6435959,5.88160084 63.7139962,5.75040019 C63.7843966,5.61919955 63.8547958,5.48960085 63.9251962,5.36160022 L64.4915962,4.33440028 L65.3171961,4.33440028 L63.9059962,6.64800014 L65.4227961,9 L64.5683962,9 L63.8867962,7.91520006 L63.6371962,7.49280009 C63.5539958,7.35199939 63.4675967,7.21440078 63.3779962,7.08000011 L63.3395962,7.08000011 C63.2563958,7.21440078 63.1763966,7.35039941 63.0995962,7.48800009 C63.0227959,7.62560077 62.9459966,7.76799934 62.8691963,7.91520006 L62.2355963,9 L61.4099963,9 Z" id="Marvin-Fox"></path>
                        </g>
                    </g>
                    <g id="log-out" transform="translate(79.799995, 134.399992)" fill="#FFFFFF" fill-rule="nonzero">
                        <polygon id="Shape" points="2.39999986 2.39999986 0 4.79999971 2.39999986 7.19999957 2.39999986 5.39999968 5.99999964 5.39999968 5.99999964 4.19999975 2.39999986 4.19999975"></polygon>
                        <path d="M8.99999946,9.59999943 L3.59999979,9.59999943 C3.23999981,9.59999943 2.99999982,9.35999944 2.99999982,8.99999946 L2.99999982,7.19999957 L4.19999975,7.19999957 L4.19999975,8.3999995 L8.3999995,8.3999995 L8.3999995,1.19999993 L4.19999975,1.19999993 L4.19999975,2.39999986 L2.99999982,2.39999986 L2.99999982,0.599999964 C2.99999982,0.239999986 3.23999981,0 3.59999979,0 L8.99999946,0 C9.35999944,0 9.59999943,0.239999986 9.59999943,0.599999964 L9.59999943,8.99999946 C9.59999943,9.35999944 9.35999944,9.59999943 8.99999946,9.59999943 Z" id="Shape"></path>
                    </g>
                    <path d="M62.3927963,38.399999 L62.3927963,24.2735998 L64.8983961,24.2735998 L64.8983961,36.2831991 L70.7735958,36.2831991 L70.7735958,38.399999 L62.3927963,38.399999 Z M73.0199956,38.399999 L73.0199956,27.7943996 L75.5039955,27.7943996 L75.5039955,38.399999 L73.0199956,38.399999 Z M74.2727956,25.9367997 C73.3871956,25.9367997 72.7391957,25.3535997 72.7391957,24.5327998 C72.7391957,23.6903998 73.3871956,23.1071999 74.2727956,23.1071999 C75.1583955,23.1071999 75.8063955,23.6903998 75.8063955,24.5327998 C75.8063955,25.3535997 75.1583955,25.9367997 74.2727956,25.9367997 Z M83.0207951,38.6591989 C80.3855952,38.6591989 77.9879954,36.6287991 77.9879954,33.1079993 C77.9879954,29.5655995 80.3855952,27.5351996 83.0207951,27.5351996 C85.6775949,27.5351996 88.0751948,29.5655995 88.0751948,33.1079993 C88.0751948,36.6287991 85.6775949,38.6591989 83.0207951,38.6591989 Z M83.0207951,36.6287991 C84.575995,36.6287991 85.5263949,35.2247992 85.5263949,33.1079993 C85.5263949,30.9695994 84.575995,29.5655995 83.0207951,29.5655995 C81.4655951,29.5655995 80.5367952,30.9695994 80.5367952,33.1079993 C80.5367952,35.2247992 81.4655951,36.6287991 83.0207951,36.6287991 Z" id="Lio" fill="#FFFFFF"></path>
                    <polygon id="Path" fill-opacity="0.33" fill="#00FFA2" points="49.499997 32.999998 55.1999967 36.3003068 49.5006133 39.5999976 43.7999974 36.3003068"></polygon>
                    <polygon id="Path" stroke="#004466" stroke-width="0.599999964" fill="#00FFA2" points="49.3499971 37.6025978 43.1999974 34.052398 43.1999974 26.9507984 49.3499971 23.3999986 55.4999967 26.9507984 55.4999967 34.052398"></polygon>
                    <g id="circle-08" transform="translate(47.399997, 74.999996)" fill="#FFFFFF" fill-rule="nonzero">
                        <path d="M18.5999989,0 C8.3435995,0 0,8.3441995 0,18.5999989 C0,28.8557983 8.3435995,37.1999978 18.5999989,37.1999978 C28.8563983,37.1999978 37.1999978,28.8557983 37.1999978,18.5999989 C37.1999978,8.3441995 28.8563983,0 18.5999989,0 Z M11.3999993,16.199999 C11.3999993,12.2297993 14.6297991,8.99999946 18.5999989,8.99999946 C22.5701987,8.99999946 25.7999985,12.2297993 25.7999985,16.199999 L25.7999985,17.9999989 C25.7999985,21.9701987 22.5701987,25.1999985 18.5999989,25.1999985 C14.6297991,25.1999985 11.3999993,21.9701987 11.3999993,17.9999989 L11.3999993,16.199999 Z M18.5999989,35.9999979 C14.5793991,35.9999979 10.8761994,34.6253979 7.92659953,32.3267981 C9.64919942,29.3939982 12.7559992,27.5999984 16.199999,27.5999984 L20.9999987,27.5999984 C24.4397985,27.5999984 27.5465984,29.3939982 29.2727983,32.3273981 C26.3231984,34.6259979 22.6199987,35.9999979 18.5999989,35.9999979 Z" id="Shape"></path>
                    </g>
                    <g id="settings-gear-65" transform="translate(24.599999, 311.999981)" fill="#FFFFFF" fill-rule="nonzero">
                        <path d="M11.9999993,5.39999968 L11.2199993,5.39999968 C11.0999993,4.9799997 10.9199993,4.55999973 10.6799994,4.13999975 L11.2199993,3.59999979 C11.6999993,3.11999981 11.6999993,2.39999986 11.2199993,1.91999989 C10.7399994,1.43999991 10.0199994,1.43999991 9.53999943,1.91999989 L8.99999946,2.45999985 C8.63999949,2.21999987 8.21999951,2.03999988 7.73999954,1.91999989 L7.73999954,1.19999993 C7.73999954,0.539999968 7.19999957,0 6.53999961,0 C5.87999965,0 5.33999968,0.539999968 5.33999968,1.19999993 L5.33999968,1.97999988 C4.9799997,2.09999987 4.55999973,2.21999987 4.13999975,2.45999985 L3.65999978,1.91999989 C3.17999981,1.43999991 2.45999985,1.43999991 1.97999988,1.91999989 C1.49999991,2.39999986 1.49999991,3.11999981 1.97999988,3.59999979 L2.51999985,4.13999975 C2.21999987,4.55999973 2.09999987,4.9799997 1.97999988,5.39999968 L1.19999993,5.39999968 C0.539999968,5.39999968 0,5.93999965 0,6.59999961 C0,7.25999957 0.539999968,7.79999954 1.19999993,7.79999954 L1.97999988,7.79999954 C2.09999987,8.21999951 2.27999986,8.63999949 2.51999985,9.05999946 L1.97999988,9.59999943 C1.49999991,10.0799994 1.49999991,10.7999994 1.97999988,11.2799993 C2.45999985,11.7599993 3.17999981,11.7599993 3.65999978,11.2799993 L4.19999975,10.7399994 C4.55999973,10.9799993 4.9799997,11.1599993 5.45999967,11.2799993 L5.45999967,11.9999993 C5.45999967,12.6599992 5.99999964,13.1999992 6.6599996,13.1999992 C7.31999956,13.1999992 7.85999953,12.6599992 7.85999953,11.9999993 L7.85999953,11.2199993 C8.27999951,11.0999993 8.69999948,10.9199993 9.11999946,10.6799994 L9.65999942,11.2199993 C10.1399994,11.6999993 10.8599994,11.6999993 11.3399993,11.2199993 C11.8199993,10.7399994 11.8199993,10.0199994 11.3399993,9.53999943 L10.7999994,8.99999946 C11.0399993,8.63999949 11.2199993,8.21999951 11.3399993,7.73999954 L11.9999993,7.73999954 C12.6599992,7.73999954 13.1999992,7.19999957 13.1999992,6.53999961 C13.1999992,5.93999965 12.6599992,5.39999968 11.9999993,5.39999968 Z M6.59999961,8.3999995 C5.57999967,8.3999995 4.79999971,7.61999955 4.79999971,6.59999961 C4.79999971,5.57999967 5.57999967,4.79999971 6.59999961,4.79999971 C7.61999955,4.79999971 8.3999995,5.57999967 8.3999995,6.59999961 C8.3999995,7.61999955 7.61999955,8.3999995 6.59999961,8.3999995 Z" id="Shape"></path>
                    </g>
                    <g id="coins" transform="translate(22.799999, 181.799989)" fill="#00FFA2" fill-rule="nonzero">
                        <path d="M10.1999994,9.59999943 C8.4293995,9.59999943 6.95819959,9.21659945 5.99999964,8.57279949 C5.99999964,9.02039946 5.99999964,9.31559944 5.99999964,9.59999943 C5.99999964,10.5941994 7.88039953,11.3999993 10.1999994,11.3999993 C12.5195993,11.3999993 14.3999991,10.5941994 14.3999991,9.59999943 C14.3999991,9.31559944 14.3999991,9.02039946 14.3999991,8.57279949 C13.4417992,9.21659945 11.9705993,9.59999943 10.1999994,9.59999943 Z" id="Shape"></path>
                        <path d="M10.1999994,12.5999992 C8.4293995,12.5999992 6.95819959,12.2165993 5.99999964,11.5727993 C5.99999964,12.0203993 5.99999964,12.3155993 5.99999964,12.5999992 C5.99999964,13.5941992 7.88039953,14.3999991 10.1999994,14.3999991 C12.5195993,14.3999991 14.3999991,13.5941992 14.3999991,12.5999992 C14.3999991,12.3155993 14.3999991,12.0203993 14.3999991,11.5727993 C13.4417992,12.2165993 11.9705993,12.5999992 10.1999994,12.5999992 Z" id="Shape"></path>
                        <ellipse id="Oval" cx="10.1999994" cy="6.59999961" rx="4.19999975" ry="1.79999989"></ellipse>
                        <ellipse id="Oval" cx="4.19999975" cy="1.79999989" rx="4.19999975" ry="1.79999989"></ellipse>
                        <path d="M4.79999971,10.7837994 C4.60379973,10.7933994 4.40459974,10.7999994 4.19999975,10.7999994 C2.42939986,10.7999994 0.958199943,10.4165994 0,9.77279942 C0,10.2203994 0,10.5155994 0,10.7999994 C0,11.7941993 1.88039989,12.5999992 4.19999975,12.5999992 C4.40399974,12.5999992 4.60379973,12.5915992 4.79999971,12.5795993 L4.79999971,10.7837994 Z" id="Shape"></path>
                        <path d="M4.79999971,7.78379954 C4.60379973,7.79339954 4.40459974,7.79999954 4.19999975,7.79999954 C2.42939986,7.79999954 0.958199943,7.41659956 0,6.7727996 C0,7.22039957 0,7.51559955 0,7.79999954 C0,8.79419948 1.88039989,9.59999943 4.19999975,9.59999943 C4.40399974,9.59999943 4.60379973,9.59159943 4.79999971,9.57959943 L4.79999971,7.78379954 Z" id="Shape"></path>
                        <path d="M5.95199965,4.65959972 C5.41079968,4.74959972 4.82519971,4.79999971 4.19999975,4.79999971 C2.42939986,4.79999971 0.958199943,4.41659974 0,3.77279978 C0,4.22039975 0,4.51559973 0,4.79999971 C0,5.79419965 1.88039989,6.59999961 4.19999975,6.59999961 C4.40459974,6.59999961 4.60439973,6.59159961 4.80179971,6.57959961 C4.80899971,5.82179965 5.22599969,5.16359969 5.95199965,4.65959972 Z" id="Shape"></path>
                    </g>
                    <g id="money-time" transform="translate(22.199999, 268.199984)" fill="#FFFFFF" fill-rule="nonzero">
                        <path d="M10.1999994,9.42719944 C8.4293995,9.42719944 6.95819959,9.04379946 5.99999964,8.3999995 C5.99999964,8.84759947 5.99999964,9.14279946 5.99999964,9.42719944 C5.99999964,10.4213994 7.88039953,11.2271993 10.1999994,11.2271993 C12.5195993,11.2271993 14.3999991,10.4213994 14.3999991,9.42719944 C14.3999991,9.14279946 14.3999991,8.84759947 14.3999991,8.3999995 C13.4417992,9.04379946 11.9705993,9.42719944 10.1999994,9.42719944 Z" id="Shape"></path>
                        <path d="M10.1999994,12.4271993 C8.4293995,12.4271993 6.95819959,12.0437993 5.99999964,11.3999993 C5.99999964,11.8475993 5.99999964,12.1427993 5.99999964,12.4271993 C5.99999964,13.4213992 7.88039953,14.2271992 10.1999994,14.2271992 C12.5195993,14.2271992 14.3999991,13.4213992 14.3999991,12.4271993 C14.3999991,12.1427993 14.3999991,11.8475993 14.3999991,11.3999993 C13.4417992,12.0437993 11.9705993,12.4271993 10.1999994,12.4271993 Z" id="Shape"></path>
                        <polygon id="Shape" points="5.39999968 5.39999968 2.39999986 5.39999968 2.39999986 4.19999975 4.19999975 4.19999975 4.19999975 2.39999986 5.39999968 2.39999986"></polygon>
                        <ellipse id="Oval" cx="10.1999994" cy="6.59999961" rx="4.19999975" ry="1.79999989"></ellipse>
                        <path d="M4.79999971,8.3999995 C2.81459983,8.3999995 1.19999993,6.7853996 1.19999993,4.79999971 C1.19999993,2.81459983 2.81459983,1.19999993 4.79999971,1.19999993 C6.38159962,1.19999993 7.80059954,2.25779987 8.25119951,3.77159978 L8.25239951,3.77579977 C8.63159949,3.70379978 9.03419946,3.65279978 9.45899944,3.62579978 L9.40079944,3.4289998 C8.80019948,1.41059992 6.90839959,0 4.79999971,0 C2.15339987,0 0,2.15339987 0,4.79999971 C0,7.44659956 2.15339987,9.59999943 4.79999971,9.59999943 L4.79999971,8.3999995 Z" id="Shape"></path>
                    </g>
                </g>
            </g>
        </g>
    </g>
</svg>