<svg xmlns="http://www.w3.org/2000/svg" xmlns:xlink="http://www.w3.org/1999/xlink" width="172" height="403" viewBox="0 0 172 403"><defs><path id="b" d="M0 0h132v363H0z"/><filter id="a" width="147.7%" height="117.4%" x="-23.9%" y="-7.9%" filterUnits="objectBoundingBox"><feOffset dy="3" in="SourceAlpha" result="shadowOffsetOuter1"/><feGaussianBlur in="shadowOffsetOuter1" result="shadowBlurOuter1" stdDeviation="10"/><feColorMatrix in="shadowBlurOuter1" values="0 0 0 0 0.0862745098   0 0 0 0 0.180392157   0 0 0 0 0.22745098  0 0 0 0.338258605 0"/></filter></defs><g fill="none" fill-rule="evenodd"><g transform="translate(20 17)"><use fill="#000" filter="url(#a)" xlink:href="#b"/><use fill="#00334C" xlink:href="#b"/></g><text fill="#FFF" font-family="SourceSansPro-Regular, Source Sans Pro" font-size="10.8" opacity=".9" transform="translate(65 240.6)"><tspan x="0" y="11.8">Graph</tspan></text><text fill="#FFF" font-family="SourceSansPro-Regular, Source Sans Pro" font-size="10.8" opacity=".9" transform="translate(65 283.8)"><tspan x="0" y="11.8">History</tspan></text><text fill="#FFF" font-family="SourceSansPro-Regular, Source Sans Pro" font-size="10.8" opacity=".9" transform="translate(65 327)"><tspan x="0" y="11.8">Settings</tspan></text><text fill="#FFF" fill-opacity=".8" font-family="SourceSansPro-Bold, Source Sans Pro" font-size="10.8" font-weight="bold" transform="translate(63 199.4)"><tspan x=".8" y="11">Overview</tspan></text><text fill="#FFF" font-family="SourceSansPro-Regular, Source Sans Pro" font-size="9.6" opacity=".9" transform="translate(59 149)"><tspan x="0" y="9">Sign Out</tspan></text><path fill="#FFF" fill-rule="nonzero" d="M54.4826 249.7124c.3054-.2706.5544-.6024.7122-.9858l2.0052 1.0026V243.2c0-.3312-.2688-.6-.6-.6H43.4c-.3312 0-.6.2688-.6.6v7.44l3.5934-2.7948 2.427 1.8204 1.3884-.9264c.1578.3774.4056.7044.7068.972l-2.1366 1.4238-2.373-1.7796-3.606 2.805V255.2c0 .3312.2688.6.6.6h13.2c.3312 0 .6-.2688.6-.6v-4.1292l-2.7174-1.3584zM53 249.1694V254.6h-.6v-5.4306c-.684-.1392-1.2-.7452-1.2-1.4694 0-.7242.516-1.3302 1.2-1.4694V243.8h.6v2.4306c.684.1392 1.2.7452 1.2 1.4694 0 .7242-.516 1.3302-1.2 1.4694z"/><text fill="#FFF" font-family="SourceSansPro-Regular, Source Sans Pro" font-size="9.6" opacity=".9" transform="translate(42.2 133.4)"><tspan x="22.2228" y="9">Marvin Fox</tspan></text><g fill="#FFF" fill-rule="nonzero"><path d="M102.2 153.8l-2.4 2.4 2.4 2.4v-1.8h3.6v-1.2h-3.6z"/><path d="M108.8 161h-5.4c-.36 0-.6-.24-.6-.6v-1.8h1.2v1.2h4.2v-7.2H104v1.2h-1.2V152c0-.36.24-.6.6-.6h5.4c.36 0 .6.24.6.6v8.4c0 .36-.24.6-.6.6z"/></g><text fill="#FFF" font-family="SourceSansPro-Semibold, Source Sans Pro" font-size="21.6" font-weight="500" transform="translate(20 17)"><tspan x="60.6" y="38.4">Lio</tspan></text><path fill="#00FFA2" fill-opacity=".33" d="M69.5 50l5.7 3.3003L69.5006 56.6 63.8 53.3003z"/><path fill="#00FFA2" stroke="#046" stroke-width=".6" d="M69.35 54.6026l-6.15-3.5502v-7.1016L69.35 40.4l6.15 3.5508v7.1016z"/><path fill="#FFF" fill-rule="nonzero" d="M86 92c-10.2564 0-18.6 8.3442-18.6 18.6s8.3436 18.6 18.6 18.6c10.2564 0 18.6-8.3442 18.6-18.6S96.2564 92 86 92zm-7.2 16.2c0-3.9702 3.2298-7.2 7.2-7.2s7.2 3.2298 7.2 7.2v1.8c0 3.9702-3.2298 7.2-7.2 7.2s-7.2-3.2298-7.2-7.2v-1.8zM86 128c-4.0206 0-7.7238-1.3746-10.6734-3.6732C77.0492 121.394 80.156 119.6 83.6 119.6h4.8c3.4398 0 6.5466 1.794 8.2728 4.7274C93.7232 126.626 90.02 128 86 128zM56.6 334.4h-.78c-.12-.42-.3-.84-.54-1.26l.54-.54c.48-.48.48-1.2 0-1.68s-1.2-.48-1.68 0l-.54.54c-.36-.24-.78-.42-1.26-.54v-.72c0-.66-.54-1.2-1.2-1.2-.66 0-1.2.54-1.2 1.2v.78c-.36.12-.78.24-1.2.48l-.48-.54c-.48-.48-1.2-.48-1.68 0s-.48 1.2 0 1.68l.54.54c-.3.42-.42.84-.54 1.26h-.78c-.66 0-1.2.54-1.2 1.2 0 .66.54 1.2 1.2 1.2h.78c.12.42.3.84.54 1.26l-.54.54c-.48.48-.48 1.2 0 1.68s1.2.48 1.68 0l.54-.54c.36.24.78.42 1.26.54v.72c0 .66.54 1.2 1.2 1.2.66 0 1.2-.54 1.2-1.2v-.78c.42-.12.84-.3 1.26-.54l.54.54c.48.48 1.2.48 1.68 0s.48-1.2 0-1.68l-.54-.54c.24-.36.42-.78.54-1.26h.66c.66 0 1.2-.54 1.2-1.2 0-.6-.54-1.14-1.2-1.14zm-5.4 3c-1.02 0-1.8-.78-1.8-1.8s.78-1.8 1.8-1.8 1.8.78 1.8 1.8-.78 1.8-1.8 1.8z"/><g fill="#00FFA2" fill-rule="nonzero" transform="translate(42.8 198.8)"><path d="M10.2 9.6c-1.7706 0-3.2418-.3834-4.2-1.0272V9.6c0 .9942 1.8804 1.8 4.2 1.8 2.3196 0 4.2-.8058 4.2-1.8V8.5728C13.4418 9.2166 11.9706 9.6 10.2 9.6zm0 3c-1.7706 0-3.2418-.3834-4.2-1.0272V12.6c0 .9942 1.8804 1.8 4.2 1.8 2.3196 0 4.2-.8058 4.2-1.8v-1.0272c-.9582.6438-2.4294 1.0272-4.2 1.0272z"/><ellipse cx="10.2" cy="6.6" rx="4.2" ry="1.8"/><ellipse cx="4.2" cy="1.8" rx="4.2" ry="1.8"/><path d="M4.8 10.7838a12.2254 12.2254 0 0 1-.6.0162c-1.7706 0-3.2418-.3834-4.2-1.0272V10.8c0 .9942 1.8804 1.8 4.2 1.8.204 0 .4038-.0084.6-.0204v-1.7958zm0-3a12.2254 12.2254 0 0 1-.6.0162C2.4294 7.8.9582 7.4166 0 6.7728V7.8c0 .9942 1.8804 1.8 4.2 1.8.204 0 .4038-.0084.6-.0204V7.7838zm1.152-3.1242c-.5412.09-1.1268.1404-1.752.1404C2.4294 4.8.9582 4.4166 0 3.7728V4.8c0 .9942 1.8804 1.8 4.2 1.8.2046 0 .4044-.0084.6018-.0204.0072-.7578.4242-1.416 1.1502-1.92z"/></g><g fill="#FFF" fill-rule="nonzero" transform="translate(42.2 285.2)"><path d="M10.2 9.4272c-1.7706 0-3.2418-.3834-4.2-1.0272v1.0272c0 .9942 1.8804 1.8 4.2 1.8 2.3196 0 4.2-.8058 4.2-1.8V8.4c-.9582.6438-2.4294 1.0272-4.2 1.0272zm0 3c-1.7706 0-3.2418-.3834-4.2-1.0272v1.0272c0 .9942 1.8804 1.8 4.2 1.8 2.3196 0 4.2-.8058 4.2-1.8V11.4c-.9582.6438-2.4294 1.0272-4.2 1.0272zM5.4 5.4h-3V4.2h1.8V2.4h1.2z"/><ellipse cx="10.2" cy="6.6" rx="4.2" ry="1.8"/><path d="M4.8 8.4c-1.9854 0-3.6-1.6146-3.6-3.6s1.6146-3.6 3.6-3.6c1.5816 0 3.0006 1.0578 3.4512 2.5716l.0012.0042a9.8042 9.8042 0 0 1 1.2066-.15l-.0582-.1968C8.8002 1.4106 6.9084 0 4.8 0 2.1534 0 0 2.1534 0 4.8s2.1534 4.8 4.8 4.8V8.4z"/></g></g></svg>