<svg xmlns="http://www.w3.org/2000/svg" width="132px" height="363px" viewBox="0 0 132 363"><g fill="none" fill-rule="evenodd"><path fill="#00334C" d="M0 0h132v363H0z"/><path fill="#FFF" d="M48.7584 235.5296c-.468 0-.8982-.0828-1.2906-.2484-.3924-.1656-.729-.405-1.0098-.7182-.2808-.3132-.5004-.6984-.6588-1.1556-.1584-.4572-.2376-.9738-.2376-1.5498 0-.5688.081-1.08.243-1.5336.162-.4536.387-.8388.675-1.1556.288-.3168.6318-.5598 1.0314-.729.3996-.1692.8334-.2538 1.3014-.2538.2448 0 .4698.0252.675.0756.2052.0504.3924.117.5616.1998.1692.0828.3204.1764.4536.2808.1332.1044.2502.2106.351.3186l-.4968.5832c-.18-.1872-.3888-.3456-.6264-.4752-.2376-.1296-.5364-.1944-.8964-.1944s-.684.0666-.972.1998a2.0342 2.0342 0 0 0-.7344.5724c-.2016.2484-.3582.549-.4698.9018-.1116.3528-.1674.7488-.1674 1.188 0 .4464.0522.8478.1566 1.2042.1044.3564.2556.6606.4536.9126s.4428.4464.7344.5832c.2916.1368.6282.2052 1.0098.2052.252 0 .4914-.0378.7182-.1134.2268-.0756.4122-.1782.5562-.3078v-1.8468H48.618v-.7452h2.322v2.9808c-.2304.2376-.5328.4338-.9072.5886-.3744.1548-.7992.2322-1.2744.2322zm3.7908-.1296v-5.2488h.7344l.0756.9504h.0324c.18-.3312.3978-.594.6534-.7884.2556-.1944.5346-.2916.837-.2916.2088 0 .396.036.5616.108l-.1728.7776a1.9971 1.9971 0 0 0-.2376-.0648c-.072-.0144-.162-.0216-.27-.0216-.2232 0-.4554.09-.6966.27-.2412.18-.4518.4932-.6318.9396V235.4h-.8856zm4.698.1296c-.4392 0-.8046-.1296-1.0962-.3888-.2916-.2592-.4374-.6264-.4374-1.1016 0-.576.2556-1.017.7668-1.323.5112-.306 1.3284-.5202 2.4516-.6426a2.419 2.419 0 0 0-.0486-.486c-.0324-.1584-.0882-.2988-.1674-.4212-.0792-.1224-.189-.2214-.3294-.297-.1404-.0756-.3186-.1134-.5346-.1134-.3024 0-.5868.0576-.8532.1728-.2664.1152-.504.2448-.7128.3888l-.3456-.6156c.2448-.1584.5436-.3114.8964-.459s.7416-.2214 1.1664-.2214c.6408 0 1.1052.1962 1.3932.5886.288.3924.432.9162.432 1.5714V235.4h-.7344l-.0756-.6264h-.0324a4.441 4.441 0 0 1-.81.5346c-.288.1476-.5976.2214-.9288.2214zm.2592-.7128c.252 0 .4896-.0594.7128-.1782.2232-.1188.4608-.2934.7128-.5238v-1.458c-.4392.0576-.8082.126-1.107.2052-.2988.0792-.54.1728-.7236.2808-.1836.108-.3168.2322-.3996.3726a.8874.8874 0 0 0-.1242.459c0 .3024.09.5184.27.648.18.1296.3996.1944.6588.1944zm3.9744 2.7972v-7.4628h.7344l.0756.6048h.0324a3.9932 3.9932 0 0 1 .783-.5184c.2844-.144.5814-.216.891-.216.3384 0 .6372.063.8964.189s.4752.306.648.54c.1728.234.3042.5148.3942.8424.09.3276.135.6966.135 1.107 0 .4464-.0612.8442-.1836 1.1934-.1224.3492-.288.6462-.4968.891-.2088.2448-.45.4302-.7236.5562a2.0416 2.0416 0 0 1-.864.189c-.2448 0-.4878-.054-.729-.162-.2412-.108-.4842-.2556-.729-.4428l.0216.918v1.7712h-.8856zm2.1708-2.8296c.216 0 .4158-.0486.5994-.1458.1836-.0972.342-.234.4752-.4104.1332-.1764.2376-.3942.3132-.6534.0756-.2592.1134-.5508.1134-.8748 0-.288-.0252-.5508-.0756-.7884-.0504-.2376-.1314-.441-.243-.6102a1.1642 1.1642 0 0 0-.432-.3942c-.1764-.0936-.387-.1404-.6318-.1404-.2232 0-.4482.0612-.675.1836-.2268.1224-.4698.2988-.729.5292v2.754c.2376.2016.468.3438.6912.4266.2232.0828.4212.1242.594.1242zm3.8232.6156v-7.6896h.8856v2.0952l-.0324 1.08c.252-.2376.5148-.441.7884-.6102.2736-.1692.594-.2538.9612-.2538.5544 0 .9594.1728 1.215.5184.2556.3456.3834.8568.3834 1.5336V235.4h-.8856v-3.2076c0-.4968-.0792-.855-.2376-1.0746-.1584-.2196-.4104-.3294-.756-.3294-.2736 0-.5148.0684-.7236.2052-.2088.1368-.4464.3384-.7128.6048V235.4h-.8856zM45.972 278.6v-7.0848h.8964v2.97h3.294v-2.97h.9072V278.6h-.9072v-3.3372h-3.294V278.6h-.8964zm6.9552 0v-5.2488h.8856V278.6h-.8856zm.4536-6.3288c-.1728 0-.3186-.054-.4374-.162-.1188-.108-.1782-.2448-.1782-.4104 0-.1728.0594-.3114.1782-.4158.1188-.1044.2646-.1566.4374-.1566s.3186.0522.4374.1566c.1188.1044.1782.243.1782.4158 0 .1656-.0594.3024-.1782.4104-.1188.108-.2646.162-.4374.162zm3.5748 6.4584c-.3744 0-.7308-.0684-1.0692-.2052-.3384-.1368-.6336-.3096-.8856-.5184l.4428-.594c.2304.1872.4662.3384.7074.4536.2412.1152.5202.1728.837.1728.3456 0 .6048-.0792.7776-.2376.1728-.1584.2592-.3528.2592-.5832 0-.1368-.036-.2556-.108-.3564-.072-.1008-.1638-.189-.2754-.2646-.1116-.0756-.2394-.1422-.3834-.1998l-.432-.1728a7.2565 7.2565 0 0 1-.5616-.2214c-.1872-.0828-.3546-.1836-.5022-.3024a1.5299 1.5299 0 0 1-.3618-.4158c-.0936-.1584-.1404-.3492-.1404-.5724 0-.2088.0414-.405.1242-.5886a1.3554 1.3554 0 0 1 .3564-.4752c.1548-.1332.3438-.2376.567-.3132.2232-.0756.4752-.1134.756-.1134.3312 0 .6354.0576.9126.1728.2772.1152.5166.2556.7182.4212l-.4212.5616a2.8213 2.8213 0 0 0-.5616-.3348c-.1944-.0864-.4068-.1296-.6372-.1296-.3312 0-.5742.0756-.729.2268-.1548.1512-.2322.3276-.2322.5292 0 .1224.0324.2286.0972.3186s.1512.1692.2592.2376c.108.0684.2322.1296.3726.1836.1404.054.2862.1098.4374.1674.1872.072.3762.1476.567.2268.1908.0792.3618.1782.513.297.1512.1188.2754.2646.3726.4374.0972.1728.1458.3816.1458.6264 0 .216-.0414.4176-.1242.6048-.0828.1872-.2052.3528-.3672.4968-.162.144-.3636.2574-.6048.3402-.2412.0828-.5166.1242-.8262.1242zm4.59 0c-.2808 0-.5166-.0432-.7074-.1296-.1908-.0864-.3456-.2052-.4644-.3564-.1188-.1512-.2034-.3348-.2538-.5508-.0504-.216-.0756-.4536-.0756-.7128v-2.9052h-.7776v-.6696l.8208-.054.108-1.4688h.7452v1.4688h1.4148v.7236h-1.4148v2.916c0 .324.0594.5742.1782.7506.1188.1764.3294.2646.6318.2646.0936 0 .1944-.0144.3024-.0432a2.3033 2.3033 0 0 0 .2916-.0972l.1728.6696a4.5916 4.5916 0 0 1-.4698.135 2.1982 2.1982 0 0 1-.5022.0594zm3.888 0c-.324 0-.6318-.0612-.9234-.1836-.2916-.1224-.549-.3006-.7722-.5346-.2232-.234-.4014-.522-.5346-.864-.1332-.342-.1998-.729-.1998-1.161 0-.4392.0666-.8298.1998-1.1718.1332-.342.3114-.6318.5346-.8694.2232-.2376.4806-.4176.7722-.54.2916-.1224.5994-.1836.9234-.1836.324 0 .6318.0612.9234.1836.2916.1224.549.3024.7722.54.2232.2376.4014.5274.5346.8694.1332.342.1998.7326.1998 1.1718 0 .432-.0666.819-.1998 1.161-.1332.342-.3114.63-.5346.864-.2232.234-.4806.4122-.7722.5346-.2916.1224-.5994.1836-.9234.1836zm0-.7344c.2232 0 .4284-.0486.6156-.1458.1872-.0972.3474-.234.4806-.4104.1332-.1764.2358-.387.3078-.6318.072-.2448.108-.5184.108-.8208s-.036-.5778-.108-.8262c-.072-.2484-.1746-.4626-.3078-.6426-.1332-.18-.2934-.3186-.4806-.4158-.1872-.0972-.3924-.1458-.6156-.1458s-.4284.0486-.6156.1458c-.1872.0972-.3474.2358-.4806.4158-.1332.18-.2358.3942-.3078.6426-.072.2484-.108.5238-.108.8262s.036.576.108.8208c.072.2448.1746.4554.3078.6318s.2934.3132.4806.4104c.1872.0972.3924.1458.6156.1458zm3.8124.6048v-5.2488h.7344l.0756.9504h.0324c.18-.3312.3978-.594.6534-.7884.2556-.1944.5346-.2916.837-.2916.2088 0 .396.036.5616.108l-.1728.7776a1.9971 1.9971 0 0 0-.2376-.0648c-.072-.0144-.162-.0216-.27-.0216-.2232 0-.4554.09-.6966.27-.2412.18-.4518.4932-.6318.9396V278.6h-.8856zm4.104 2.2572c-.1224 0-.234-.009-.3348-.027a1.3408 1.3408 0 0 1-.2808-.081l.1728-.702.1944.0486c.072.018.1404.027.2052.027.3024 0 .549-.1062.7398-.3186.1908-.2124.3402-.4806.4482-.8046l.1188-.3888-2.106-5.2596h.918l1.0692 2.9052c.0792.2304.1638.4734.2538.729a30.9 30.9 0 0 1 .2538.7506h.0432c.0792-.2376.1548-.486.2268-.7452.072-.2592.144-.504.216-.7344l.9396-2.9052h.864l-1.9764 5.6808a6.0762 6.0762 0 0 1-.3132.7236c-.1152.2232-.252.4158-.4104.5778a1.8249 1.8249 0 0 1-.54.3834c-.2016.0936-.4356.1404-.702.1404zm-25.4124 41.0724c-.4968 0-.9576-.0936-1.3824-.2808-.4248-.1872-.792-.4428-1.1016-.7668l.54-.6264c.252.2664.549.4806.891.6426.342.162.6966.243 1.0638.243.468 0 .8316-.1062 1.0908-.3186.2592-.2124.3888-.4914.3888-.837 0-.18-.0306-.333-.0918-.459a.9993.9993 0 0 0-.2484-.324c-.1044-.09-.2286-.171-.3726-.243a29.5568 29.5568 0 0 0-.4644-.2268l-1.0152-.4428a4.8403 4.8403 0 0 1-.5076-.2592 2.0889 2.0889 0 0 1-.4644-.3672c-.1368-.144-.2484-.315-.3348-.513-.0864-.198-.1296-.4266-.1296-.6858 0-.2664.0558-.5148.1674-.7452a1.8315 1.8315 0 0 1 .4644-.5994c.198-.1692.432-.3006.702-.3942.27-.0936.567-.1404.891-.1404.4248 0 .8172.081 1.1772.243.36.162.666.3726.918.6318l-.486.5832c-.216-.2088-.4554-.3726-.7182-.4914-.2628-.1188-.5598-.1782-.891-.1782-.396 0-.7146.0918-.9558.2754-.2412.1836-.3618.4374-.3618.7614 0 .1728.0342.3186.1026.4374.0684.1188.1602.2232.2754.3132.1152.09.2412.1692.378.2376.1368.0684.2772.1314.4212.189l1.0044.432a4.295 4.295 0 0 1 .5724.297c.18.1116.3348.2412.4644.3888.1296.1476.2322.3204.3078.5184.0756.198.1134.4266.1134.6858 0 .2808-.0558.5436-.1674.7884-.1116.2448-.2718.459-.4806.6426-.2088.1836-.4608.3276-.756.432-.2952.1044-.63.1566-1.0044.1566zm5.8428 0c-.3528 0-.6822-.063-.9882-.189-.306-.126-.5724-.306-.7992-.54-.2268-.234-.405-.5202-.5346-.8586-.1296-.3384-.1944-.7236-.1944-1.1556 0-.432.0666-.819.1998-1.161.1332-.342.3096-.6318.5292-.8694.2196-.2376.4698-.4194.7506-.5454.2808-.126.5724-.189.8748-.189.3312 0 .6282.0576.891.1728.2628.1152.4824.2808.6588.4968.1764.216.3114.4752.405.7776.0936.3024.1404.6408.1404 1.0152 0 .0936-.0018.1854-.0054.2754-.0036.09-.0126.1674-.027.2322h-3.5424c.036.5616.2106 1.0062.5238 1.3338.3132.3276.7218.4914 1.2258.4914.252 0 .4842-.0378.6966-.1134a3.0822 3.0822 0 0 0 .6102-.297l.3132.5832c-.2304.144-.486.27-.7668.378-.2808.108-.6012.162-.9612.162zm-1.6524-3.1752h2.808c0-.5328-.1134-.9378-.3402-1.215-.2268-.2772-.5454-.4158-.9558-.4158-.1872 0-.3654.036-.5346.108-.1692.072-.3222.1782-.459.3186-.1368.1404-.2502.3114-.3402.513-.09.2016-.1494.432-.1782.6912zm6.426 3.1752c-.2808 0-.5166-.0432-.7074-.1296-.1908-.0864-.3456-.2052-.4644-.3564-.1188-.1512-.2034-.3348-.2538-.5508-.0504-.216-.0756-.4536-.0756-.7128v-2.9052h-.7776v-.6696l.8208-.054.108-1.4688h.7452v1.4688h1.4148v.7236h-1.4148v2.916c0 .324.0594.5742.1782.7506.1188.1764.3294.2646.6318.2646.0936 0 .1944-.0144.3024-.0432a2.3033 2.3033 0 0 0 .2916-.0972l.1728.6696a4.5916 4.5916 0 0 1-.4698.135 2.1982 2.1982 0 0 1-.5022.0594zm3.4344 0c-.2808 0-.5166-.0432-.7074-.1296-.1908-.0864-.3456-.2052-.4644-.3564-.1188-.1512-.2034-.3348-.2538-.5508-.0504-.216-.0756-.4536-.0756-.7128v-2.9052h-.7776v-.6696l.8208-.054.108-1.4688h.7452v1.4688h1.4148v.7236h-1.4148v2.916c0 .324.0594.5742.1782.7506.1188.1764.3294.2646.6318.2646.0936 0 .1944-.0144.3024-.0432a2.3033 2.3033 0 0 0 .2916-.0972l.1728.6696a4.5916 4.5916 0 0 1-.4698.135 2.1982 2.1982 0 0 1-.5022.0594zm1.998-.1296v-5.2488h.8856V321.8h-.8856zm.4536-6.3288c-.1728 0-.3186-.054-.4374-.162-.1188-.108-.1782-.2448-.1782-.4104 0-.1728.0594-.3114.1782-.4158.1188-.1044.2646-.1566.4374-.1566s.3186.0522.4374.1566c.1188.1044.1782.243.1782.4158 0 .1656-.0594.3024-.1782.4104-.1188.108-.2646.162-.4374.162zm2.2032 6.3288v-5.2488h.7344l.0756.756h.0324c.252-.252.5166-.4626.7938-.6318.2772-.1692.5994-.2538.9666-.2538.5544 0 .9594.1728 1.215.5184.2556.3456.3834.8568.3834 1.5336V321.8h-.8856v-3.2076c0-.4968-.0792-.855-.2376-1.0746-.1584-.2196-.4104-.3294-.756-.3294-.2736 0-.5148.0684-.7236.2052-.2088.1368-.4464.3384-.7128.6048V321.8h-.8856zm7.6788 2.4192c-.324 0-.6192-.0306-.8856-.0918-.2664-.0612-.495-.153-.6858-.2754-.1908-.1224-.3384-.27-.4428-.4428-.1044-.1728-.1566-.3744-.1566-.6048 0-.2232.0684-.4356.2052-.6372.1368-.2016.324-.3852.5616-.5508v-.0432c-.1296-.0792-.2394-.189-.3294-.3294-.09-.1404-.135-.315-.135-.5238 0-.2232.0612-.4176.1836-.5832.1224-.1656.252-.2952.3888-.3888v-.0432c-.1728-.144-.3294-.3366-.4698-.5778-.1404-.2412-.2106-.5202-.2106-.837 0-.288.0522-.5472.1566-.7776.1044-.2304.2466-.4266.4266-.5886.18-.162.3906-.2862.6318-.3726.2412-.0864.495-.1296.7614-.1296.144 0 .279.0126.405.0378s.2394.0558.3402.0918h1.8252v.6804h-1.08c.1224.1224.225.2772.3078.4644.0828.1872.1242.3924.1242.6156 0 .2808-.0504.5346-.1512.7614s-.2376.4176-.4104.5724c-.1728.1548-.3762.2754-.6102.3618-.234.0864-.4842.1296-.7506.1296a1.7312 1.7312 0 0 1-.3996-.0486 1.9843 1.9843 0 0 1-.3888-.135 1.2662 1.2662 0 0 0-.2376.2646c-.0648.0972-.0972.2178-.0972.3618 0 .1656.0648.3024.1944.4104.1296.108.3744.162.7344.162h1.0152c.612 0 1.071.099 1.377.297.306.198.459.5166.459.9558 0 .2448-.0612.477-.1836.6966-.1224.2196-.2988.4122-.5292.5778-.2304.1656-.5094.297-.837.3942-.3276.0972-.6966.1458-1.107.1458zm0-4.6764c.1512 0 .2934-.0288.4266-.0864a1.0988 1.0988 0 0 0 .3564-.2484c.1044-.108.1854-.2394.243-.3942.0576-.1548.0864-.3294.0864-.5238 0-.3888-.108-.6894-.324-.9018-.216-.2124-.4788-.3186-.7884-.3186s-.5724.1062-.7884.3186c-.216.2124-.324.513-.324.9018 0 .1944.0288.369.0864.5238.0576.1548.1386.2862.243.3942.1044.108.2232.1908.3564.2484.1332.0576.2754.0864.4266.0864zm.1296 4.0608c.252 0 .4806-.0306.6858-.0918.2052-.0612.3798-.1404.5238-.2376.144-.0972.2556-.2106.3348-.3402.0792-.1296.1188-.2628.1188-.3996 0-.2448-.09-.414-.27-.5076-.18-.0936-.4428-.1404-.7884-.1404h-.9072a3.6565 3.6565 0 0 1-.3294-.0162 1.6851 1.6851 0 0 1-.351-.0702c-.1872.1368-.324.2808-.4104.432-.0864.1512-.1296.3024-.1296.4536 0 .2808.135.504.405.6696.27.1656.6426.2484 1.1178.2484zm4.914-1.674c-.3744 0-.7308-.0684-1.0692-.2052-.3384-.1368-.6336-.3096-.8856-.5184l.4428-.594c.2304.1872.4662.3384.7074.4536.2412.1152.5202.1728.837.1728.3456 0 .6048-.0792.7776-.2376.1728-.1584.2592-.3528.2592-.5832 0-.1368-.036-.2556-.108-.3564-.072-.1008-.1638-.189-.2754-.2646-.1116-.0756-.2394-.1422-.3834-.1998l-.432-.1728a7.2565 7.2565 0 0 1-.5616-.2214c-.1872-.0828-.3546-.1836-.5022-.3024a1.5299 1.5299 0 0 1-.3618-.4158c-.0936-.1584-.1404-.3492-.1404-.5724 0-.2088.0414-.405.1242-.5886a1.3554 1.3554 0 0 1 .3564-.4752c.1548-.1332.3438-.2376.567-.3132.2232-.0756.4752-.1134.756-.1134.3312 0 .6354.0576.9126.1728.2772.1152.5166.2556.7182.4212l-.4212.5616a2.8213 2.8213 0 0 0-.5616-.3348c-.1944-.0864-.4068-.1296-.6372-.1296-.3312 0-.5742.0756-.729.2268-.1548.1512-.2322.3276-.2322.5292 0 .1224.0324.2286.0972.3186s.1512.1692.2592.2376c.108.0684.2322.1296.3726.1836.1404.054.2862.1098.4374.1674.1872.072.3762.1476.567.2268.1908.0792.3618.1782.513.297.1512.1188.2754.2646.3726.4374.0972.1728.1458.3816.1458.6264 0 .216-.0414.4176-.1242.6048-.0828.1872-.2052.3528-.3672.4968-.162.144-.3636.2574-.6048.3402-.2412.0828-.5166.1242-.8262.1242z" opacity="0.9"/><path fill="#FFF" fill-opacity="0.8" d="M47.4936 193.5296c-.4752 0-.909-.0846-1.3014-.2538-.3924-.1692-.729-.4122-1.0098-.729-.2808-.3168-.4986-.702-.6534-1.1556s-.2322-.9684-.2322-1.5444.0774-1.089.2322-1.539c.1548-.45.3726-.828.6534-1.134.2808-.306.6174-.54 1.0098-.702.3924-.162.8262-.243 1.3014-.243.4752 0 .909.081 1.3014.243.3924.162.729.3978 1.0098.7074.2808.3096.4986.6894.6534 1.1394.1548.45.2322.9594.2322 1.5282 0 .576-.0774 1.0908-.2322 1.5444s-.3726.8388-.6534 1.1556c-.2808.3168-.6174.5598-1.0098.729-.3924.1692-.8262.2538-1.3014.2538zm0-1.3716c.4824 0 .864-.207 1.1448-.621.2808-.414.4212-.9774.4212-1.6902 0-.7056-.1404-1.2564-.4212-1.6524-.2808-.396-.6624-.594-1.1448-.594-.4824 0-.864.198-1.1448.594-.2808.396-.4212.9468-.4212 1.6524 0 .7128.1404 1.2762.4212 1.6902.2808.414.6624.621 1.1448.621zm5.6268 1.242l-1.8036-5.3568h1.5984l.6912 2.5272c.072.2664.1422.5382.2106.8154.0684.2772.1386.5562.2106.837h.0432c.0648-.2808.1314-.5598.1998-.837.0684-.2772.1386-.549.2106-.8154l.702-2.5272h1.5228L54.9564 193.4h-1.836zm6.7284.1296c-.3816 0-.738-.063-1.0692-.189-.3312-.126-.6192-.3096-.864-.5508-.2448-.2412-.4356-.5346-.5724-.8802-.1368-.3456-.2052-.7416-.2052-1.188 0-.432.072-.8226.216-1.1718.144-.3492.333-.6444.567-.8856.234-.2412.5022-.4266.8046-.5562a2.362 2.362 0 0 1 .9396-.1944c.3816 0 .7146.0648.999.1944s.522.3096.7128.54c.1908.2304.333.5022.4266.8154.0936.3132.1404.6534.1404 1.0206 0 .144-.0072.2808-.0216.4104-.0144.1296-.0288.2268-.0432.2916h-3.2076c.072.3888.2322.675.4806.8586.2484.1836.5526.2754.9126.2754.3816 0 .7668-.1188 1.1556-.3564l.5292.9612c-.2736.1872-.5778.3348-.9126.4428-.3348.108-.6642.162-.9882.162zm-1.188-3.3912h1.9332c0-.3024-.0684-.5472-.2052-.7344-.1368-.1872-.3672-.2808-.6912-.2808-.252 0-.4734.0828-.6642.2484-.1908.1656-.315.4212-.3726.7668zm4.3848 3.2616v-5.3568h1.296l.108.9396h.0432c.1944-.3672.4284-.6372.702-.81.2736-.1728.5472-.2592.8208-.2592.1512 0 .2754.009.3726.027.0972.018.1854.045.2646.081l-.2592 1.3716a2.5616 2.5616 0 0 0-.2808-.0648c-.0864-.0144-.1872-.0216-.3024-.0216-.2016 0-.4122.072-.6318.216-.2196.144-.4014.3996-.5454.7668V193.4h-1.5876zm5.6052 0l-1.8036-5.3568h1.5984l.6912 2.5272c.072.2664.1422.5382.2106.8154.0684.2772.1386.5562.2106.837h.0432c.0648-.2808.1314-.5598.1998-.837.0684-.2772.1386-.549.2106-.8154l.702-2.5272h1.5228L70.4868 193.4h-1.836zm4.4172 0v-5.3568h1.5876V193.4H73.068zm.7884-6.1452c-.2664 0-.486-.0774-.6588-.2322-.1728-.1548-.2592-.3546-.2592-.5994 0-.2448.0864-.4428.2592-.594.1728-.1512.3924-.2268.6588-.2268.2736 0 .495.0756.6642.2268.1692.1512.2538.3492.2538.594 0 .2448-.0846.4446-.2538.5994-.1692.1548-.3906.2322-.6642.2322zm4.59 6.2748c-.3816 0-.738-.063-1.0692-.189-.3312-.126-.6192-.3096-.864-.5508-.2448-.2412-.4356-.5346-.5724-.8802-.1368-.3456-.2052-.7416-.2052-1.188 0-.432.072-.8226.216-1.1718.144-.3492.333-.6444.567-.8856.234-.2412.5022-.4266.8046-.5562a2.362 2.362 0 0 1 .9396-.1944c.3816 0 .7146.0648.999.1944s.522.3096.7128.54c.1908.2304.333.5022.4266.8154.0936.3132.1404.6534.1404 1.0206 0 .144-.0072.2808-.0216.4104-.0144.1296-.0288.2268-.0432.2916h-3.2076c.072.3888.2322.675.4806.8586.2484.1836.5526.2754.9126.2754.3816 0 .7668-.1188 1.1556-.3564l.5292.9612c-.2736.1872-.5778.3348-.9126.4428-.3348.108-.6642.162-.9882.162zm-1.188-3.3912h1.9332c0-.3024-.0684-.5472-.2052-.7344-.1368-.1872-.3672-.2808-.6912-.2808-.252 0-.4734.0828-.6642.2484-.1908.1656-.315.4212-.3726.7668zm5.2164 3.2616l-1.3392-5.3568h1.5768l.5184 2.484c.0432.2664.0828.5292.1188.7884.036.2592.0756.5256.1188.7992h.0432c.0504-.2736.099-.5436.1458-.81a10.227 10.227 0 0 1 .1674-.7776l.594-2.484h1.3716l.6048 2.484c.0648.2664.1224.5292.1728.7884.0504.2592.1044.5256.162.7992h.0432c.0504-.2736.0918-.54.1242-.7992s.0738-.522.1242-.7884l.5076-2.484h1.4688L87.7128 193.4h-1.8576l-.486-2.1384c-.0576-.252-.108-.504-.1512-.756s-.09-.522-.1404-.81h-.0432c-.0504.288-.0954.558-.135.81-.0396.252-.0846.504-.135.756l-.4752 2.1384h-1.8144z"/><path fill="#FFF" d="M41.6112 141.1152c-.4416 0-.8512-.0832-1.2288-.2496-.3776-.1664-.704-.3936-.9792-.6816l.48-.5568c.224.2368.488.4272.792.5712.304.144.6192.216.9456.216.416 0 .7392-.0944.9696-.2832.2304-.1888.3456-.4368.3456-.744 0-.16-.0272-.296-.0816-.408a.8883.8883 0 0 0-.2208-.288c-.0928-.08-.2032-.152-.3312-.216a26.2727 26.2727 0 0 0-.4128-.2016l-.9024-.3936a4.3025 4.3025 0 0 1-.4512-.2304 1.8568 1.8568 0 0 1-.4128-.3264c-.1216-.128-.2208-.28-.2976-.456-.0768-.176-.1152-.3792-.1152-.6096 0-.2368.0496-.4576.1488-.6624a1.628 1.628 0 0 1 .4128-.5328c.176-.1504.384-.2672.624-.3504s.504-.1248.792-.1248c.3776 0 .7264.072 1.0464.216.32.144.592.3312.816.5616l-.432.5184c-.192-.1856-.4048-.3312-.6384-.4368-.2336-.1056-.4976-.1584-.792-.1584-.352 0-.6352.0816-.8496.2448-.2144.1632-.3216.3888-.3216.6768 0 .1536.0304.2832.0912.3888.0608.1056.1424.1984.2448.2784.1024.08.2144.1504.336.2112.1216.0608.2464.1168.3744.168l.8928.384c.1792.0768.3488.1648.5088.264.16.0992.2976.2144.4128.3456.1152.1312.2064.2848.2736.4608.0672.176.1008.3792.1008.6096 0 .2496-.0496.4832-.1488.7008-.0992.2176-.2416.408-.4272.5712-.1856.1632-.4096.2912-.672.384s-.56.1392-.8928.1392zM44.9136 141v-4.6656h.7872V141h-.7872zm.4032-5.6256c-.1536 0-.2832-.048-.3888-.144-.1056-.096-.1584-.2176-.1584-.3648 0-.1536.0528-.2768.1584-.3696.1056-.0928.2352-.1392.3888-.1392s.2832.0464.3888.1392c.1056.0928.1584.216.1584.3696 0 .1472-.0528.2688-.1584.3648-.1056.096-.2352.144-.3888.144zm3.5328 7.776c-.288 0-.5504-.0272-.7872-.0816-.2368-.0544-.44-.136-.6096-.2448-.1696-.1088-.3008-.24-.3936-.3936-.0928-.1536-.1392-.3328-.1392-.5376 0-.1984.0608-.3872.1824-.5664.1216-.1792.288-.3424.4992-.4896v-.0384c-.1152-.0704-.2128-.168-.2928-.2928-.08-.1248-.12-.28-.12-.4656 0-.1984.0544-.3712.1632-.5184.1088-.1472.224-.2624.3456-.3456v-.0384c-.1536-.128-.2928-.2992-.4176-.5136-.1248-.2144-.1872-.4624-.1872-.744 0-.256.0464-.4864.1392-.6912.0928-.2048.2192-.3792.3792-.5232.16-.144.3472-.2544.5616-.3312.2144-.0768.44-.1152.6768-.1152.128 0 .248.0112.36.0336.112.0224.2128.0496.3024.0816h1.6224v.6048h-.96c.1088.1088.2.2464.2736.4128s.1104.3488.1104.5472c0 .2496-.0448.4752-.1344.6768-.0896.2016-.2112.3712-.3648.5088-.1536.1376-.3344.2448-.5424.3216-.208.0768-.4304.1152-.6672.1152a1.5388 1.5388 0 0 1-.3552-.0432 1.7638 1.7638 0 0 1-.3456-.12 1.1255 1.1255 0 0 0-.2112.2352c-.0576.0864-.0864.1936-.0864.3216 0 .1472.0576.2688.1728.3648.1152.096.3328.144.6528.144h.9024c.544 0 .952.088 1.224.264.272.176.408.4592.408.8496 0 .2176-.0544.424-.1632.6192-.1088.1952-.2656.3664-.4704.5136-.2048.1472-.4528.264-.744.3504-.2912.0864-.6192.1296-.984.1296zm0-4.1568a.945.945 0 0 0 .3792-.0768.9767.9767 0 0 0 .3168-.2208c.0928-.096.1648-.2128.216-.3504.0512-.1376.0768-.2928.0768-.4656 0-.3456-.096-.6128-.288-.8016-.192-.1888-.4256-.2832-.7008-.2832s-.5088.0944-.7008.2832c-.192.1888-.288.456-.288.8016 0 .1728.0256.328.0768.4656.0512.1376.1232.2544.216.3504a.9767.9767 0 0 0 .3168.2208.945.945 0 0 0 .3792.0768zm.1152 3.6096c.224 0 .4272-.0272.6096-.0816.1824-.0544.3376-.1248.4656-.2112s.2272-.1872.2976-.3024c.0704-.1152.1056-.2336.1056-.3552 0-.2176-.08-.368-.24-.4512-.16-.0832-.3936-.1248-.7008-.1248h-.8064a3.2502 3.2502 0 0 1-.2928-.0144 1.4979 1.4979 0 0 1-.312-.0624c-.1664.1216-.288.2496-.3648.384-.0768.1344-.1152.2688-.1152.4032 0 .2496.12.448.36.5952.24.1472.5712.2208.9936.2208zM52.1136 141v-4.6656h.6528l.0672.672h.0288c.224-.224.4592-.4112.7056-.5616.2464-.1504.5328-.2256.8592-.2256.4928 0 .8528.1536 1.08.4608.2272.3072.3408.7616.3408 1.3632V141h-.7872v-2.8512c0-.4416-.0704-.76-.2112-.9552-.1408-.1952-.3648-.2928-.672-.2928-.2432 0-.4576.0608-.6432.1824-.1856.1216-.3968.3008-.6336.5376V141h-.7872zm9.5712.1152c-.3968 0-.76-.0768-1.0896-.2304-.3296-.1536-.6128-.3728-.8496-.6576-.2368-.2848-.4208-.6304-.552-1.0368-.1312-.4064-.1968-.8624-.1968-1.368s.0656-.9584.1968-1.3584c.1312-.4.3152-.7392.552-1.0176.2368-.2784.52-.4912.8496-.6384.3296-.1472.6928-.2208 1.0896-.2208.3968 0 .76.0752 1.0896.2256.3296.1504.6144.3648.8544.6432.24.2784.4256.6176.5568 1.0176.1312.4.1968.8496.1968 1.3488 0 .5056-.0656.9616-.1968 1.368-.1312.4064-.3168.752-.5568 1.0368-.24.2848-.5248.504-.8544.6576-.3296.1536-.6928.2304-1.0896.2304zm0-.7008c.2816 0 .536-.0608.7632-.1824.2272-.1216.4224-.296.5856-.5232s.2896-.4992.3792-.816c.0896-.3168.1344-.6736.1344-1.0704 0-.3904-.0448-.7424-.1344-1.056-.0896-.3136-.216-.5792-.3792-.7968-.1632-.2176-.3584-.3856-.5856-.504s-.4816-.1776-.7632-.1776-.536.0592-.7632.1776c-.2272.1184-.4224.2864-.5856.504-.1632.2176-.2896.4832-.3792.7968-.0896.3136-.1344.6656-.1344 1.056 0 .3968.0448.7536.1344 1.0704.0896.3168.216.5888.3792.816.1632.2272.3584.4016.5856.5232.2272.1216.4816.1824.7632.1824zm5.3376.7008c-.4992 0-.8624-.1536-1.0896-.4608-.2272-.3072-.3408-.7616-.3408-1.3632v-2.9568h.7968v2.8512c0 .4416.0688.76.2064.9552.1376.1952.36.2928.6672.2928.2432 0 .4576-.0624.6432-.1872.1856-.1248.3904-.3248.6144-.6v-3.312h.7872V141h-.6528l-.0672-.7296h-.0288c-.2176.256-.4464.4608-.6864.6144-.24.1536-.5232.2304-.8496.2304zm5.328 0c-.2496 0-.4592-.0384-.6288-.1152-.1696-.0768-.3072-.1824-.4128-.3168-.1056-.1344-.1808-.2976-.2256-.4896-.0448-.192-.0672-.4032-.0672-.6336v-2.5824h-.6912v-.5952l.7296-.048.096-1.3056h.6624v1.3056h1.2576v.6432h-1.2576v2.592c0 .288.0528.5104.1584.6672.1056.1568.2928.2352.5616.2352.0832 0 .1728-.0128.2688-.0384a2.0474 2.0474 0 0 0 .2592-.0864l.1536.5952a4.0815 4.0815 0 0 1-.4176.12 1.954 1.954 0 0 1-.4464.0528z" opacity="0.9"/><path fill="#FFF" fill-rule="nonzero" d="M34.4826 232.7124c.3054-.2706.5544-.6024.7122-.9858l2.0052 1.0026V226.2c0-.3312-.2688-.6-.6-.6H23.4c-.3312 0-.6.2688-.6.6v7.44l3.5934-2.7948 2.427 1.8204 1.3884-.9264c.1578.3774.4056.7044.7068.972l-2.1366 1.4238-2.373-1.7796-3.606 2.805V238.2c0 .3312.2688.6.6.6h13.2c.3312 0 .6-.2688.6-.6v-4.1292l-2.7174-1.3584zM33 232.1694V237.6h-.6v-5.4306c-.684-.1392-1.2-.7452-1.2-1.4694 0-.7242.516-1.3302 1.2-1.4694V226.8h.6v2.4306c.684.1392 1.2.7452 1.2 1.4694 0 .7242-.516 1.3302-1.2 1.4694z"/><path fill="#FFF" d="M45.2868 125.4v-6.2976h.96l1.2096 3.36c.0768.2176.152.4368.2256.6576.0736.2208.1488.44.2256.6576h.0384c.0768-.2176.1488-.4368.216-.6576.0672-.2208.1392-.44.216-.6576l1.1904-3.36h.9696V125.4h-.7488v-3.4656c0-.2816.0128-.592.0384-.9312.0256-.3392.048-.6496.0672-.9312h-.0384l-.4992 1.4304-1.1904 3.264h-.528l-1.1904-3.264-.4992-1.4304h-.0384c.0192.2816.04.592.0624.9312.0224.3392.0336.6496.0336.9312V125.4h-.72zm7.9776.1152c-.3904 0-.7152-.1152-.9744-.3456-.2592-.2304-.3888-.5568-.3888-.9792 0-.512.2272-.904.6816-1.176.4544-.272 1.1808-.4624 2.1792-.5712 0-.1472-.0144-.2912-.0432-.432-.0288-.1408-.0784-.2656-.1488-.3744-.0704-.1088-.168-.1968-.2928-.264-.1248-.0672-.2832-.1008-.4752-.1008-.2688 0-.5216.0512-.7584.1536-.2368.1024-.448.2176-.6336.3456l-.3072-.5472c.2176-.1408.4832-.2768.7968-.408.3136-.1312.6592-.1968 1.0368-.1968.5696 0 .9824.1744 1.2384.5232.256.3488.384.8144.384 1.3968V125.4h-.6528l-.0672-.5568H54.81c-.224.1856-.464.344-.72.4752-.256.1312-.5312.1968-.8256.1968zm.2304-.6336c.224 0 .4352-.0528.6336-.1584.1984-.1056.4096-.2608.6336-.4656v-1.296c-.3904.0512-.7184.112-.984.1824-.2656.0704-.48.1536-.6432.2496s-.2816.2064-.3552.3312a.7888.7888 0 0 0-.1104.408c0 .2688.08.4608.24.576.16.1152.3552.1728.5856.1728zm3.5328.5184v-4.6656h.6528l.0672.8448h.0288c.16-.2944.3536-.528.5808-.7008.2272-.1728.4752-.2592.744-.2592.1856 0 .352.032.4992.096l-.1536.6912a1.7752 1.7752 0 0 0-.2112-.0576c-.064-.0128-.144-.0192-.24-.0192-.1984 0-.4048.08-.6192.24-.2144.16-.4016.4384-.5616.8352V125.4h-.7872zm4.5792 0l-1.68-4.6656h.816l.8832 2.6496c.0704.2304.1424.4608.216.6912.0736.2304.1456.4576.216.6816h.0384c.0704-.224.1408-.4512.2112-.6816l.2112-.6912.8832-2.6496h.7776L62.5284 125.4h-.9216zm3.4752 0v-4.6656h.7872V125.4h-.7872zm.4032-5.6256c-.1536 0-.2832-.048-.3888-.144-.1056-.096-.1584-.2176-.1584-.3648 0-.1536.0528-.2768.1584-.3696.1056-.0928.2352-.1392.3888-.1392s.2832.0464.3888.1392c.1056.0928.1584.216.1584.3696 0 .1472-.0528.2688-.1584.3648-.1056.096-.2352.144-.3888.144zm1.9584 5.6256v-4.6656h.6528l.0672.672h.0288c.224-.224.4592-.4112.7056-.5616.2464-.1504.5328-.2256.8592-.2256.4928 0 .8528.1536 1.08.4608.2272.3072.3408.7616.3408 1.3632V125.4h-.7872v-2.8512c0-.4416-.0704-.76-.2112-.9552-.1408-.1952-.3648-.2928-.672-.2928-.2432 0-.4576.0608-.6432.1824-.1856.1216-.3968.3008-.6336.5376V125.4h-.7872zm7.248 0v-6.2976h3.6288v.672h-2.832v2.1312h2.4v.672h-2.4V125.4h-.7968zm6.3456.1152c-.288 0-.5616-.0544-.8208-.1632-.2592-.1088-.488-.2672-.6864-.4752-.1984-.208-.3568-.464-.4752-.768s-.1776-.648-.1776-1.032c0-.3904.0592-.7376.1776-1.0416.1184-.304.2768-.5616.4752-.7728.1984-.2112.4272-.3712.6864-.48.2592-.1088.5328-.1632.8208-.1632.288 0 .5616.0544.8208.1632.2592.1088.488.2688.6864.48.1984.2112.3568.4688.4752.7728.1184.304.1776.6512.1776 1.0416 0 .384-.0592.728-.1776 1.032-.1184.304-.2768.56-.4752.768-.1984.208-.4272.3664-.6864.4752-.2592.1088-.5328.1632-.8208.1632zm0-.6528c.1984 0 .3808-.0432.5472-.1296.1664-.0864.3088-.208.4272-.3648.1184-.1568.2096-.344.2736-.5616.064-.2176.096-.4608.096-.7296 0-.2688-.032-.5136-.096-.7344-.064-.2208-.1552-.4112-.2736-.5712-.1184-.16-.2608-.2832-.4272-.3696-.1664-.0864-.3488-.1296-.5472-.1296-.1984 0-.3808.0432-.5472.1296-.1664.0864-.3088.2096-.4272.3696-.1184.16-.2096.3504-.2736.5712-.064.2208-.096.4656-.096.7344 0 .2688.032.512.096.7296.064.2176.1552.4048.2736.5616s.2608.2784.4272.3648c.1664.0864.3488.1296.5472.1296zm2.5728.5376l1.5264-2.4384-1.4112-2.2272h.8544l.624 1.0272c.0704.128.144.2576.2208.3888.0768.1312.1568.2608.24.3888h.0384c.0704-.128.1408-.2576.2112-.3888.0704-.1312.1408-.2608.2112-.3888l.5664-1.0272h.8256l-1.4112 2.3136 1.5168 2.352h-.8544l-.6816-1.0848-.2496-.4224a8.9771 8.9771 0 0 0-.2592-.4128h-.0384a10.4635 10.4635 0 0 0-.24.408c-.0768.1376-.1536.28-.2304.4272l-.6336 1.0848H83.61z" opacity="0.9"/><g fill="#FFF" fill-rule="nonzero"><path d="M82.2 136.8l-2.4 2.4 2.4 2.4v-1.8h3.6v-1.2h-3.6z"/><path d="M88.8 144h-5.4c-.36 0-.6-.24-.6-.6v-1.8H84v1.2h4.2v-7.2H84v1.2h-1.2V135c0-.36.24-.6.6-.6h5.4c.36 0 .6.24.6.6v8.4c0 .36-.24.6-.6.6z"/></g><path fill="#FFF" d="M62.3928 38.4V24.2736h2.5056v12.0096h5.8752V38.4h-8.3808zm10.6272 0V27.7944h2.484V38.4H73.02zm1.2528-12.4632c-.8856 0-1.5336-.5832-1.5336-1.404 0-.8424.648-1.4256 1.5336-1.4256s1.5336.5832 1.5336 1.4256c0 .8208-.648 1.404-1.5336 1.404zm8.748 12.7224c-2.6352 0-5.0328-2.0304-5.0328-5.5512 0-3.5424 2.3976-5.5728 5.0328-5.5728 2.6568 0 5.0544 2.0304 5.0544 5.5728 0 3.5208-2.3976 5.5512-5.0544 5.5512zm0-2.0304c1.5552 0 2.5056-1.404 2.5056-3.5208 0-2.1384-.9504-3.5424-2.5056-3.5424-1.5552 0-2.484 1.404-2.484 3.5424 0 2.1168.9288 3.5208 2.484 3.5208z"/><path fill="#00FFA2" fill-opacity="0.33" d="M49.5 33l5.7 3.3003L49.5006 39.6 43.8 36.3003z"/><path fill="#00FFA2" stroke="#046" stroke-width="0.599999964" d="M49.35 37.6026l-6.15-3.5502v-7.1016L49.35 23.4l6.15 3.5508v7.1016z"/><path fill="#FFF" fill-rule="nonzero" d="M66 75c-10.2564 0-18.6 8.3442-18.6 18.6s8.3436 18.6 18.6 18.6c10.2564 0 18.6-8.3442 18.6-18.6S76.2564 75 66 75zm-7.2 16.2c0-3.9702 3.2298-7.2 7.2-7.2s7.2 3.2298 7.2 7.2V93c0 3.9702-3.2298 7.2-7.2 7.2s-7.2-3.2298-7.2-7.2v-1.8zM66 111c-4.0206 0-7.7238-1.3746-10.6734-3.6732C57.0492 104.394 60.156 102.6 63.6 102.6h4.8c3.4398 0 6.5466 1.794 8.2728 4.7274C73.7232 109.626 70.02 111 66 111zM36.6 317.4h-.78c-.12-.42-.3-.84-.54-1.26l.54-.54c.48-.48.48-1.2 0-1.68s-1.2-.48-1.68 0l-.54.54c-.36-.24-.78-.42-1.26-.54v-.72c0-.66-.54-1.2-1.2-1.2-.66 0-1.2.54-1.2 1.2v.78c-.36.12-.78.24-1.2.48l-.48-.54c-.48-.48-1.2-.48-1.68 0s-.48 1.2 0 1.68l.54.54c-.3.42-.42.84-.54 1.26h-.78c-.66 0-1.2.54-1.2 1.2 0 .66.54 1.2 1.2 1.2h.78c.12.42.3.84.54 1.26l-.54.54c-.48.48-.48 1.2 0 1.68s1.2.48 1.68 0l.54-.54c.36.24.78.42 1.26.54v.72c0 .66.54 1.2 1.2 1.2.66 0 1.2-.54 1.2-1.2v-.78c.42-.12.84-.3 1.26-.54l.54.54c.48.48 1.2.48 1.68 0s.48-1.2 0-1.68l-.54-.54c.24-.36.42-.78.54-1.26h.66c.66 0 1.2-.54 1.2-1.2 0-.6-.54-1.14-1.2-1.14zm-5.4 3c-1.02 0-1.8-.78-1.8-1.8s.78-1.8 1.8-1.8 1.8.78 1.8 1.8-.78 1.8-1.8 1.8z"/><g fill="#00FFA2" fill-rule="nonzero" transform="translate(22.8 181.8)"><path d="M10.2 9.6c-1.7706 0-3.2418-.3834-4.2-1.0272V9.6c0 .9942 1.8804 1.8 4.2 1.8 2.3196 0 4.2-.8058 4.2-1.8V8.5728C13.4418 9.2166 11.9706 9.6 10.2 9.6zm0 3c-1.7706 0-3.2418-.3834-4.2-1.0272V12.6c0 .9942 1.8804 1.8 4.2 1.8 2.3196 0 4.2-.8058 4.2-1.8v-1.0272c-.9582.6438-2.4294 1.0272-4.2 1.0272z"/><ellipse cx="10.1999994" cy="6.59999961" rx="4.19999975" ry="1.79999989"/><ellipse cx="4.19999975" cy="1.79999989" rx="4.19999975" ry="1.79999989"/><path d="M4.8 10.7838a12.2254 12.2254 0 0 1-.6.0162c-1.7706 0-3.2418-.3834-4.2-1.0272V10.8c0 .9942 1.8804 1.8 4.2 1.8.204 0 .4038-.0084.6-.0204v-1.7958zm0-3a12.2254 12.2254 0 0 1-.6.0162C2.4294 7.8.9582 7.4166 0 6.7728V7.8c0 .9942 1.8804 1.8 4.2 1.8.204 0 .4038-.0084.6-.0204V7.7838zm1.152-3.1242c-.5412.09-1.1268.1404-1.752.1404C2.4294 4.8.9582 4.4166 0 3.7728V4.8c0 .9942 1.8804 1.8 4.2 1.8.2046 0 .4044-.0084.6018-.0204.0072-.7578.4242-1.416 1.1502-1.92z"/></g><g fill="#FFF" fill-rule="nonzero" transform="translate(22.2 268.2)"><path d="M10.2 9.4272c-1.7706 0-3.2418-.3834-4.2-1.0272v1.0272c0 .9942 1.8804 1.8 4.2 1.8 2.3196 0 4.2-.8058 4.2-1.8V8.4c-.9582.6438-2.4294 1.0272-4.2 1.0272zm0 3c-1.7706 0-3.2418-.3834-4.2-1.0272v1.0272c0 .9942 1.8804 1.8 4.2 1.8 2.3196 0 4.2-.8058 4.2-1.8V11.4c-.9582.6438-2.4294 1.0272-4.2 1.0272zM5.4 5.4h-3V4.2h1.8V2.4h1.2z"/><ellipse cx="10.1999994" cy="6.59999961" rx="4.19999975" ry="1.79999989"/><path d="M4.8 8.4c-1.9854 0-3.6-1.6146-3.6-3.6s1.6146-3.6 3.6-3.6c1.5816 0 3.0006 1.0578 3.4512 2.5716l.0012.0042a9.8042 9.8042 0 0 1 1.2066-.15l-.0582-.1968C8.8002 1.4106 6.9084 0 4.8 0 2.1534 0 0 2.1534 0 4.8s2.1534 4.8 4.8 4.8V8.4z"/></g></g></svg>