<?xml version="1.0" encoding="UTF-8"?>
<svg width="312px" height="230px" viewBox="0 0 312 230" version="1.1" xmlns="http://www.w3.org/2000/svg" xmlns:xlink="http://www.w3.org/1999/xlink">
    <!-- Generator: Sketch 49 (51002) - http://www.bohemiancoding.com/sketch -->
    <title>keep-simple-graphic</title>
    <desc>Created with Sketch.</desc>
    <defs>
        <rect id="path-1" x="0" y="0" width="312" height="230" rx="16"></rect>
        <linearGradient x1="50%" y1="0%" x2="50%" y2="112.896503%" id="linearGradient-3">
            <stop stop-color="#21FDA5" offset="0%"></stop>
            <stop stop-color="#21FDA5" stop-opacity="0" offset="100%"></stop>
        </linearGradient>
        <path d="M-1.50931213,87.7308671 C-0.637909058,86.9176123 0.236277816,86.1250996 1.11324849,85.3533292 L1.11325289,85.3533342 C10.7251989,76.8944244 25.299473,77.5271267 34.1421978,86.7871958 L34.1421978,86.7871958 C41.9241821,94.9364611 54.8038091,95.3385162 63.0789271,87.6904952 L64.0562922,86.7871958 C68.7621948,82.4379114 76.1028742,82.7270075 80.4521586,87.43291 C82.002519,89.1103918 83.0232481,91.2081747 83.3864063,93.4633196 L95.2388318,167.064693 C95.8536472,170.882584 99.4470651,173.479189 103.264955,172.864373 C106.016959,172.421203 108.243976,170.387909 108.935076,167.687483 L114.54211,145.778385 C115.816474,140.798896 120.886224,137.795298 125.865714,139.069663 C126.377678,139.200686 126.877552,139.375077 127.359917,139.590946 L127.359917,139.590946 C133.958442,142.543929 141.229222,143.669623 148.411793,142.850289 L157.808987,141.778327 C170.488356,140.33196 181.539641,132.483089 187.08211,120.987899 L192.033752,110.718096 C194.538026,105.524182 200.778641,103.343798 205.972555,105.848073 C207.753105,106.706575 209.253355,108.052912 210.298838,109.730516 L215.540491,118.141387 C218.72581,123.252619 221.44288,128.641156 223.658576,134.241302 L225.472332,138.825552 C227.236911,143.285504 232.28289,145.470537 236.742842,143.705958 C237.984388,143.214741 239.095953,142.44387 239.99116,141.453246 L256.370254,123.328367 C260.458112,118.804801 266.782907,117.035127 272.624773,118.780363 L272.624773,118.780363 C278.352347,120.491455 284.512387,118.114095 287.605448,112.99883 C296.524176,98.2491567 304.989026,81.5828794 313,63 C313,90.3556469 313,147.022314 313,233 L-1.50931213,233 C-2.16356262,136.764504 -2.16356262,88.3414598 -1.50931213,87.7308671 Z" id="path-4"></path>
        <filter x="-0.6%" y="-1.2%" width="101.3%" height="102.4%" filterUnits="objectBoundingBox" id="filter-5">
            <feGaussianBlur stdDeviation="0" in="SourceGraphic"></feGaussianBlur>
        </filter>
    </defs>
    <g id="Sign-In" stroke="none" stroke-width="1" fill="none" fill-rule="evenodd">
        <g id="Desktop-HD" transform="translate(-853.000000, -1254.000000)">
            <g id="Group-11" transform="translate(268.000000, 1254.000000)">
                <g id="keep-simple-graphic" transform="translate(585.000000, 0.000000)">
                    <mask id="mask-2" fill="white">
                        <use xlink:href="#path-1"></use>
                    </mask>
                    <use id="Card-bg" fill="#FFFFFF" xlink:href="#path-1"></use>
                    <g id="Daily-Graph" opacity="0.100000001" stroke-linecap="round" stroke-linejoin="round" filter="url(#filter-5)" mask="url(#mask-2)">
                        <use fill="url(#linearGradient-3)" fill-rule="evenodd" xlink:href="#path-4"></use>
                        <path stroke="#00FFA2" stroke-width="2" d="M-2.19160585,86.9997889 C-1.31311804,86.1799221 -0.431715972,85.3808684 0.452603495,84.6026307 C10.4672803,75.7893103 25.6521937,76.4485235 34.8654142,86.0965742 C42.2703708,93.8510176 54.5259956,94.2335937 62.4001943,86.9561099 L63.3775594,86.0528105 C68.4890518,81.3286723 76.4624057,81.6426849 81.1865439,86.7541772 C82.870526,88.5762369 83.9792291,90.8548223 84.3736869,93.3043325 L96.2261124,166.905706 C96.7531217,170.178336 99.8333381,172.404102 103.105968,171.877093 C105.464938,171.497215 107.3739,169.75431 107.966299,167.43955 L113.573333,145.530453 C114.984626,140.015923 120.599115,136.689592 126.113646,138.100885 C126.68062,138.245987 127.234205,138.439116 127.768399,138.67818 C134.203364,141.557966 141.293921,142.655757 148.298456,141.856732 L157.69565,140.784771 C170.033952,139.377309 180.787965,131.739568 186.181346,120.553591 L191.132988,110.283788 C193.877124,104.592395 200.715471,102.203172 206.406863,104.947308 C208.357957,105.888039 210.001902,107.36333 211.147522,109.201616 L216.389176,117.612487 C219.606348,122.774831 222.350588,128.217253 224.588441,133.873401 L226.402197,138.457651 C227.96359,142.404053 232.428539,144.337486 236.374941,142.776093 C237.473527,142.341438 238.457098,141.65933 239.249225,140.782774 L255.628319,122.657896 C259.974755,117.84819 266.699625,115.966576 272.911018,117.822207 C278.201983,119.402863 283.892446,117.206728 286.749724,112.481397 C295.643823,97.772456 304.08812,81.1466457 312.081696,62.6041243 L314,58.1542765 L314,63 C314,118.68898 314,118.68898 314,233 L314,234 L-2.50253681,234 L-2.50928902,233.006798 C-2.83642839,184.886974 -3,148.720351 -3,124.506095 C-3,112.39626 -2.9590918,103.274865 -2.87723903,97.1403046 C-2.77018417,89.1169418 -2.70625556,87.4800964 -2.19160585,86.9997889 Z"></path>
                    </g>
                    <path d="M81.632,45 L81.632,37.888 L76.116,26.632 L78.608,26.632 L80.988,31.812 C81.2866682,32.4840034 81.5759986,33.1466634 81.856,33.8 C82.1360014,34.4533366 82.4346651,35.1253299 82.752,35.816 L82.864,35.816 C83.1813349,35.1253299 83.4986651,34.4533366 83.816,33.8 C84.1333349,33.1466634 84.4319986,32.4840034 84.712,31.812 L87.064,26.632 L89.5,26.632 L83.984,37.888 L83.984,45 L81.632,45 Z M95.912,45.336 C95.0719958,45.336 94.2740038,45.1773349 93.518,44.86 C92.7619962,44.5426651 92.0946696,44.0806697 91.516,43.474 C90.9373304,42.8673303 90.4753351,42.1206711 90.13,41.234 C89.7846649,40.3473289 89.612,39.3440056 89.612,38.224 C89.612,37.0853276 89.7846649,36.0726711 90.13,35.186 C90.4753351,34.2993289 90.9373304,33.5480031 91.516,32.932 C92.0946696,32.3159969 92.7619962,31.8493349 93.518,31.532 C94.2740038,31.2146651 95.0719958,31.056 95.912,31.056 C96.7520042,31.056 97.5499962,31.2146651 98.306,31.532 C99.0620038,31.8493349 99.7293304,32.3159969 100.308,32.932 C100.88667,33.5480031 101.348665,34.2993289 101.694,35.186 C102.039335,36.0726711 102.212,37.0853276 102.212,38.224 C102.212,39.3440056 102.039335,40.3473289 101.694,41.234 C101.348665,42.1206711 100.88667,42.8673303 100.308,43.474 C99.7293304,44.0806697 99.0620038,44.5426651 98.306,44.86 C97.5499962,45.1773349 96.7520042,45.336 95.912,45.336 Z M95.912,43.432 C96.4906696,43.432 97.0226642,43.3060013 97.508,43.054 C97.9933358,42.8019987 98.4086649,42.4473356 98.754,41.99 C99.0993351,41.5326644 99.3653324,40.9866698 99.552,40.352 C99.7386676,39.7173302 99.832,39.0080039 99.832,38.224 C99.832,37.4399961 99.7386676,36.7260032 99.552,36.082 C99.3653324,35.4379968 99.0993351,34.882669 98.754,34.416 C98.4086649,33.949331 97.9933358,33.5900013 97.508,33.338 C97.0226642,33.0859987 96.4906696,32.96 95.912,32.96 C95.3333304,32.96 94.8013358,33.0859987 94.316,33.338 C93.8306642,33.5900013 93.4153351,33.949331 93.07,34.416 C92.7246649,34.882669 92.4586676,35.4379968 92.272,36.082 C92.0853324,36.7260032 91.992,37.4399961 91.992,38.224 C91.992,39.0080039 92.0853324,39.7173302 92.272,40.352 C92.4586676,40.9866698 92.7246649,41.5326644 93.07,41.99 C93.4153351,42.4473356 93.8306642,42.8019987 94.316,43.054 C94.8013358,43.3060013 95.3333304,43.432 95.912,43.432 Z M109.772,45.336 C108.315993,45.336 107.25667,44.8880045 106.594,43.992 C105.93133,43.0959955 105.6,41.7706754 105.6,40.016 L105.6,31.392 L107.924,31.392 L107.924,39.708 C107.924,40.9960064 108.124665,41.9246638 108.526,42.494 C108.927335,43.0633362 109.575996,43.348 110.472,43.348 C111.181337,43.348 111.806664,43.1660018 112.348,42.802 C112.889336,42.4379982 113.486663,41.8546707 114.14,41.052 L114.14,31.392 L116.436,31.392 L116.436,45 L114.532,45 L114.336,42.872 L114.252,42.872 C113.61733,43.6186704 112.950003,44.2159978 112.25,44.664 C111.549996,45.1120022 110.724005,45.336 109.772,45.336 Z M121.028,45 L121.028,31.392 L122.932,31.392 L123.128,33.856 L123.212,33.856 C123.678669,32.997329 124.24333,32.3160025 124.906,31.812 C125.56867,31.3079975 126.291996,31.056 127.076,31.056 C127.617336,31.056 128.102665,31.1493324 128.532,31.336 L128.084,33.352 C127.859999,33.277333 127.654668,33.2213335 127.468,33.184 C127.281332,33.1466665 127.048001,33.128 126.768,33.128 C126.18933,33.128 125.587336,33.361331 124.962,33.828 C124.336664,34.294669 123.790669,35.1066609 123.324,36.264 L123.324,45 L121.028,45 Z M136.568,45 L136.568,26.632 L141.804,26.632 C142.830672,26.632 143.768662,26.7253324 144.618,26.912 C145.467338,27.0986676 146.190664,27.4019979 146.788,27.822 C147.385336,28.2420021 147.851998,28.7973299 148.188,29.488 C148.524002,30.1786701 148.692,31.027995 148.692,32.036 C148.692,33.0066715 148.528668,33.8466631 148.202,34.556 C147.875332,35.2653369 147.413336,35.853331 146.816,36.32 C146.218664,36.786669 145.504671,37.1366655 144.674,37.37 C143.843329,37.6033345 142.924005,37.72 141.916,37.72 L138.892,37.72 L138.892,45 L136.568,45 Z M138.892,35.816 L141.636,35.816 C143.241341,35.816 144.431329,35.5126697 145.206,34.906 C145.980671,34.2993303 146.368,33.3426732 146.368,32.036 C146.368,30.71066 145.962004,29.7913359 145.15,29.278 C144.337996,28.7646641 143.129341,28.508 141.524,28.508 L138.892,28.508 L138.892,35.816 Z M156.812,45.336 C155.971996,45.336 155.174004,45.1773349 154.418,44.86 C153.661996,44.5426651 152.99467,44.0806697 152.416,43.474 C151.83733,42.8673303 151.375335,42.1206711 151.03,41.234 C150.684665,40.3473289 150.512,39.3440056 150.512,38.224 C150.512,37.0853276 150.684665,36.0726711 151.03,35.186 C151.375335,34.2993289 151.83733,33.5480031 152.416,32.932 C152.99467,32.3159969 153.661996,31.8493349 154.418,31.532 C155.174004,31.2146651 155.971996,31.056 156.812,31.056 C157.652004,31.056 158.449996,31.2146651 159.206,31.532 C159.962004,31.8493349 160.62933,32.3159969 161.208,32.932 C161.78667,33.5480031 162.248665,34.2993289 162.594,35.186 C162.939335,36.0726711 163.112,37.0853276 163.112,38.224 C163.112,39.3440056 162.939335,40.3473289 162.594,41.234 C162.248665,42.1206711 161.78667,42.8673303 161.208,43.474 C160.62933,44.0806697 159.962004,44.5426651 159.206,44.86 C158.449996,45.1773349 157.652004,45.336 156.812,45.336 Z M156.812,43.432 C157.39067,43.432 157.922664,43.3060013 158.408,43.054 C158.893336,42.8019987 159.308665,42.4473356 159.654,41.99 C159.999335,41.5326644 160.265332,40.9866698 160.452,40.352 C160.638668,39.7173302 160.732,39.0080039 160.732,38.224 C160.732,37.4399961 160.638668,36.7260032 160.452,36.082 C160.265332,35.4379968 159.999335,34.882669 159.654,34.416 C159.308665,33.949331 158.893336,33.5900013 158.408,33.338 C157.922664,33.0859987 157.39067,32.96 156.812,32.96 C156.23333,32.96 155.701336,33.0859987 155.216,33.338 C154.730664,33.5900013 154.315335,33.949331 153.97,34.416 C153.624665,34.882669 153.358668,35.4379968 153.172,36.082 C152.985332,36.7260032 152.892,37.4399961 152.892,38.224 C152.892,39.0080039 152.985332,39.7173302 153.172,40.352 C153.358668,40.9866698 153.624665,41.5326644 153.97,41.99 C154.315335,42.4473356 154.730664,42.8019987 155.216,43.054 C155.701336,43.3060013 156.23333,43.432 156.812,43.432 Z M166.696,45 L166.696,31.392 L168.6,31.392 L168.796,33.856 L168.88,33.856 C169.346669,32.997329 169.91133,32.3160025 170.574,31.812 C171.23667,31.3079975 171.959996,31.056 172.744,31.056 C173.285336,31.056 173.770665,31.1493324 174.2,31.336 L173.752,33.352 C173.527999,33.277333 173.322668,33.2213335 173.136,33.184 C172.949332,33.1466665 172.716001,33.128 172.436,33.128 C171.85733,33.128 171.255336,33.361331 170.63,33.828 C170.004664,34.294669 169.458669,35.1066609 168.992,36.264 L168.992,45 L166.696,45 Z M180.696,45.336 C179.967996,45.336 179.356669,45.2240011 178.862,45 C178.367331,44.7759989 177.966002,44.468002 177.658,44.076 C177.349998,43.683998 177.130667,43.2080028 177,42.648 C176.869333,42.0879972 176.804,41.4720034 176.804,40.8 L176.804,33.268 L174.788,33.268 L174.788,31.532 L176.916,31.392 L177.196,27.584 L179.128,27.584 L179.128,31.392 L182.796,31.392 L182.796,33.268 L179.128,33.268 L179.128,40.828 C179.128,41.6680042 179.281998,42.3166644 179.59,42.774 C179.898002,43.2313356 180.443996,43.46 181.228,43.46 C181.470668,43.46 181.731999,43.422667 182.012,43.348 C182.292001,43.273333 182.543999,43.1893338 182.768,43.096 L183.216,44.832 C182.842665,44.9626673 182.436669,45.0793328 181.998,45.182 C181.559331,45.2846672 181.125335,45.336 180.696,45.336 Z M186.268,45 L186.268,33.268 L184.42,33.268 L184.42,31.532 L186.268,31.392 L186.268,29.236 C186.268,27.835993 186.589997,26.7346707 187.234,25.932 C187.878003,25.1293293 188.881327,24.728 190.244,24.728 C190.673335,24.728 191.079331,24.7699996 191.462,24.854 C191.844669,24.9380004 192.194665,25.0453327 192.512,25.176 L192.008,26.94 C191.503997,26.7159989 190.990669,26.604 190.468,26.604 C189.19866,26.604 188.564,27.4813246 188.564,29.236 L188.564,31.392 L191.448,31.392 L191.448,33.268 L188.564,33.268 L188.564,45 L186.268,45 Z M199.064,45.336 C198.223996,45.336 197.426004,45.1773349 196.67,44.86 C195.913996,44.5426651 195.24667,44.0806697 194.668,43.474 C194.08933,42.8673303 193.627335,42.1206711 193.282,41.234 C192.936665,40.3473289 192.764,39.3440056 192.764,38.224 C192.764,37.0853276 192.936665,36.0726711 193.282,35.186 C193.627335,34.2993289 194.08933,33.5480031 194.668,32.932 C195.24667,32.3159969 195.913996,31.8493349 196.67,31.532 C197.426004,31.2146651 198.223996,31.056 199.064,31.056 C199.904004,31.056 200.701996,31.2146651 201.458,31.532 C202.214004,31.8493349 202.88133,32.3159969 203.46,32.932 C204.03867,33.5480031 204.500665,34.2993289 204.846,35.186 C205.191335,36.0726711 205.364,37.0853276 205.364,38.224 C205.364,39.3440056 205.191335,40.3473289 204.846,41.234 C204.500665,42.1206711 204.03867,42.8673303 203.46,43.474 C202.88133,44.0806697 202.214004,44.5426651 201.458,44.86 C200.701996,45.1773349 199.904004,45.336 199.064,45.336 Z M199.064,43.432 C199.64267,43.432 200.174664,43.3060013 200.66,43.054 C201.145336,42.8019987 201.560665,42.4473356 201.906,41.99 C202.251335,41.5326644 202.517332,40.9866698 202.704,40.352 C202.890668,39.7173302 202.984,39.0080039 202.984,38.224 C202.984,37.4399961 202.890668,36.7260032 202.704,36.082 C202.517332,35.4379968 202.251335,34.882669 201.906,34.416 C201.560665,33.949331 201.145336,33.5900013 200.66,33.338 C200.174664,33.0859987 199.64267,32.96 199.064,32.96 C198.48533,32.96 197.953336,33.0859987 197.468,33.338 C196.982664,33.5900013 196.567335,33.949331 196.222,34.416 C195.876665,34.882669 195.610668,35.4379968 195.424,36.082 C195.237332,36.7260032 195.144,37.4399961 195.144,38.224 C195.144,39.0080039 195.237332,39.7173302 195.424,40.352 C195.610668,40.9866698 195.876665,41.5326644 196.222,41.99 C196.567335,42.4473356 196.982664,42.8019987 197.468,43.054 C197.953336,43.3060013 198.48533,43.432 199.064,43.432 Z M211.384,45.336 C210.506662,45.336 209.881335,45.0746693 209.508,44.552 C209.134665,44.0293307 208.948,43.264005 208.948,42.256 L208.948,25.064 L211.244,25.064 L211.244,42.424 C211.244,42.7973352 211.309333,43.0586659 211.44,43.208 C211.570667,43.3573341 211.719999,43.432 211.888,43.432 L212.098,43.432 C212.163334,43.432 212.261333,43.4133335 212.392,43.376 L212.7,45.112 C212.550666,45.186667 212.373334,45.2426665 212.168,45.28 C211.962666,45.3173335 211.701335,45.336 211.384,45.336 Z M216.088,45 L216.088,31.392 L218.384,31.392 L218.384,45 L216.088,45 Z M217.264,28.592 C216.815998,28.592 216.438002,28.4520014 216.13,28.172 C215.821998,27.8919986 215.668,27.5373355 215.668,27.108 C215.668,26.6599978 215.821998,26.300668 216.13,26.03 C216.438002,25.759332 216.815998,25.624 217.264,25.624 C217.712002,25.624 218.089998,25.759332 218.398,26.03 C218.706002,26.300668 218.86,26.6599978 218.86,27.108 C218.86,27.5373355 218.706002,27.8919986 218.398,28.172 C218.089998,28.4520014 217.712002,28.592 217.264,28.592 Z M228.268,45.336 C227.427996,45.336 226.630004,45.1773349 225.874,44.86 C225.117996,44.5426651 224.45067,44.0806697 223.872,43.474 C223.29333,42.8673303 222.831335,42.1206711 222.486,41.234 C222.140665,40.3473289 221.968,39.3440056 221.968,38.224 C221.968,37.0853276 222.140665,36.0726711 222.486,35.186 C222.831335,34.2993289 223.29333,33.5480031 223.872,32.932 C224.45067,32.3159969 225.117996,31.8493349 225.874,31.532 C226.630004,31.2146651 227.427996,31.056 228.268,31.056 C229.108004,31.056 229.905996,31.2146651 230.662,31.532 C231.418004,31.8493349 232.08533,32.3159969 232.664,32.932 C233.24267,33.5480031 233.704665,34.2993289 234.05,35.186 C234.395335,36.0726711 234.568,37.0853276 234.568,38.224 C234.568,39.3440056 234.395335,40.3473289 234.05,41.234 C233.704665,42.1206711 233.24267,42.8673303 232.664,43.474 C232.08533,44.0806697 231.418004,44.5426651 230.662,44.86 C229.905996,45.1773349 229.108004,45.336 228.268,45.336 Z M228.268,43.432 C228.84667,43.432 229.378664,43.3060013 229.864,43.054 C230.349336,42.8019987 230.764665,42.4473356 231.11,41.99 C231.455335,41.5326644 231.721332,40.9866698 231.908,40.352 C232.094668,39.7173302 232.188,39.0080039 232.188,38.224 C232.188,37.4399961 232.094668,36.7260032 231.908,36.082 C231.721332,35.4379968 231.455335,34.882669 231.11,34.416 C230.764665,33.949331 230.349336,33.5900013 229.864,33.338 C229.378664,33.0859987 228.84667,32.96 228.268,32.96 C227.68933,32.96 227.157336,33.0859987 226.672,33.338 C226.186664,33.5900013 225.771335,33.949331 225.426,34.416 C225.080665,34.882669 224.814668,35.4379968 224.628,36.082 C224.441332,36.7260032 224.348,37.4399961 224.348,38.224 C224.348,39.0080039 224.441332,39.7173302 224.628,40.352 C224.814668,40.9866698 225.080665,41.5326644 225.426,41.99 C225.771335,42.4473356 226.186664,42.8019987 226.672,43.054 C227.157336,43.3060013 227.68933,43.432 228.268,43.432 Z" id="Coin-Abbr" fill="#004466" mask="url(#mask-2)"></path>
                    <path d="M98.804,117.08 L98.804,112.28 C95.876,111.992 92.66,110.648 90.5,108.632 L92.996,104.888 C95.252,106.664 97.508,107.864 100.1,107.864 C103.22,107.864 104.756,106.328 104.756,103.736 C104.756,97.3999997 91.7,98.3119997 91.7,89.2879997 C91.7,84.8239997 94.484,81.6559997 98.804,80.8879997 L98.804,75.9919997 L102.644,75.9919997 L102.644,80.7919997 C105.716,81.1759997 107.828,82.6639997 109.604,84.5359997 L106.772,87.7519997 C104.996,86.1199997 103.508,85.2079997 101.204,85.2079997 C98.612,85.2079997 97.028,86.5519997 97.028,89.0479997 C97.028,94.8079997 110.084,93.6559997 110.084,103.352 C110.084,107.912 107.396,111.272 102.644,112.136 L102.644,117.08 L98.804,117.08 Z M116.516,111.8 L116.516,107.288 L123.332,107.288 L123.332,87.2239997 L117.716,87.2239997 L117.716,83.7679997 C120.74,83.1919997 122.852,82.4239997 124.772,81.2719997 L128.9,81.2719997 L128.9,107.288 L134.9,107.288 L134.9,111.8 L116.516,111.8 Z M141.044,120.536 L139.844,117.512 C142.964,116.312 144.74,114.104 144.692,111.704 L144.26,111.704 C142.388,111.704 140.708,110.456 140.708,108.296 C140.708,106.232 142.388,104.888 144.404,104.888 C146.996,104.888 148.532,107 148.532,110.552 C148.532,115.256 145.796,118.904 141.044,120.536 Z M162.356,112.376 C157.412,112.376 154.196,110.408 151.94,108.152 L154.484,104.6 C156.308,106.328 158.564,107.864 161.636,107.864 C165.044,107.864 167.54,105.704 167.54,102.008 C167.54,98.3599997 165.284,96.2959997 161.924,96.2959997 C159.956,96.2959997 158.852,96.8239997 157.028,98.0239997 L154.388,96.3439997 L155.3,81.2719997 L171.62,81.2719997 L171.62,85.9279997 L160.1,85.9279997 L159.476,93.3199997 C160.772,92.6959997 161.924,92.3119997 163.508,92.3119997 C168.74,92.3119997 173.108,95.2879997 173.108,101.864 C173.108,108.536 167.972,112.376 162.356,112.376 Z M187.7,112.376 C181.364,112.376 177.332,106.712 177.332,96.3919997 C177.332,86.0719997 181.364,80.6959997 187.7,80.6959997 C194.036,80.6959997 198.068,86.1199997 198.068,96.3919997 C198.068,106.712 194.036,112.376 187.7,112.376 Z M187.7,108.056 C190.676,108.056 192.788,105.032 192.788,96.3919997 C192.788,87.7519997 190.676,85.0159997 187.7,85.0159997 C184.772,85.0159997 182.612,87.7519997 182.612,96.3919997 C182.612,105.032 184.772,108.056 187.7,108.056 Z M201.86,111.8 L201.86,108.584 C210.356,100.376 215.684,94.9999997 215.684,90.3439997 C215.684,87.1279997 213.908,85.0639997 210.644,85.0639997 C208.292,85.0639997 206.324,86.6479997 204.692,88.4719997 L201.62,85.3999997 C204.404,82.4239997 207.188,80.6959997 211.364,80.6959997 C217.22,80.6959997 221.012,84.3919997 221.012,90.0559997 C221.012,95.4799997 215.972,101.048 209.924,107.432 C211.508,107.288 213.524,107.096 215.012,107.096 L222.5,107.096 L222.5,111.8 L201.86,111.8 Z" id="Dollar-Value" fill="#004466" mask="url(#mask-2)"></path>
                    <g id="Coin-Price-Row" mask="url(#mask-2)">
                        <g transform="translate(134.000000, 166.000000)">
                            <g id="Coin-Price-Indicator/Up" fill="none" transform="translate(27.600000, 2.800000)" fill-rule="nonzero">
                                <path d="M0,6 C0,2.68548387 2.68548387,0 6,0 C9.31451613,0 12,2.68548387 12,6 C12,9.31451613 9.31451613,12 6,12 C2.68548387,12 0,9.31451613 0,6 Z M7.06451613,8.80645161 L7.06451613,6 L8.77983871,6 C9.03870968,6 9.16935484,5.68548387 8.98548387,5.50403226 L6.20564516,2.73870968 C6.09193548,2.625 5.91048387,2.625 5.79677419,2.73870968 L3.01451613,5.50403226 C2.83064516,5.68790323 2.96129032,6 3.22016129,6 L4.93548387,6 L4.93548387,8.80645161 C4.93548387,8.96612903 5.06612903,9.09677419 5.22580645,9.09677419 L6.77419355,9.09677419 C6.93387097,9.09677419 7.06451613,8.96612903 7.06451613,8.80645161 Z" id="up-arrow-circle" fill="#20F7A2"></path>
                            </g>
                            <path d="M2.03199982,12.7479997 L2.96799982,11.3259997 C3.99399982,12.0099997 5.01999982,12.4959997 6.26199982,12.4959997 C7.41399982,12.4959997 8.00799982,12.0279997 8.00799982,11.3079997 C8.00799982,9.45399971 2.53599982,9.77799971 2.53599982,6.55599971 C2.53599982,5.00799971 3.68799982,3.96399971 5.46999982,3.72999971 L5.46999982,1.37199971 L6.90999982,1.37199971 L6.90999982,3.71199971 C8.16999982,3.85599971 9.03399982,4.39599971 9.77199982,5.13399971 L8.72799982,6.33999971 C7.88199982,5.70999971 7.23399982,5.36799971 6.13599982,5.36799971 C5.14599982,5.36799971 4.53399982,5.79999971 4.53399982,6.51999971 C4.53399982,8.13999971 10.0239998,7.86999971 10.0239998,11.1639997 C10.0239998,12.6939997 8.87199982,13.8459997 6.90999982,14.1339997 L6.90999982,16.7799997 L5.46999982,16.7799997 L5.46999982,14.1699997 C4.22799982,14.0439997 2.91399982,13.4859997 2.03199982,12.7479997 Z M16.6119998,15.0159997 C14.5959998,15.0159997 13.3359998,14.2779997 12.4179998,13.4319997 L13.3719998,12.0999997 C14.1459998,12.7479997 15.0459998,13.3239997 16.3599998,13.3239997 C17.7999998,13.3239997 18.8979998,12.5139997 18.8979998,11.1279997 C18.8979998,9.75999971 17.9079998,8.98599971 16.4499998,8.98599971 C15.6039998,8.98599971 15.1179998,9.18399971 14.3259998,9.63399971 L13.3359998,9.00399971 L13.6959998,3.35199971 L20.4459998,3.35199971 L20.4459998,5.09799971 L15.4959998,5.09799971 L15.2439998,7.86999971 C15.8379998,7.63599971 16.3419998,7.49199971 17.0439998,7.49199971 C19.2039998,7.49199971 20.9859998,8.60799971 20.9859998,11.0739997 C20.9859998,13.5759997 18.8979998,15.0159997 16.6119998,15.0159997 Z" id="Coin-Price" fill="#004466" fill-rule="evenodd"></path>
                        </g>
                    </g>
                </g>
            </g>
        </g>
    </g>
</svg>