<svg xmlns="http://www.w3.org/2000/svg" xmlns:xlink="http://www.w3.org/1999/xlink" width="312px" height="230px" version="1.1" viewBox="0 0 312 230"><title>keep-simple-graphic</title><defs><rect id="path-1" width="312" height="230" x="0" y="0" rx="16"/><linearGradient id="linearGradient-3" x1="50%" x2="50%" y1="0%" y2="112.896503%"><stop offset="0%" stop-color="#21FDA5"/><stop offset="100%" stop-color="#21FDA5" stop-opacity="0"/></linearGradient><path id="path-4" d="M-1.50931213,87.7308671 C-0.637909058,86.9176123 0.236277816,86.1250996 1.11324849,85.3533292 L1.11325289,85.3533342 C10.7251989,76.8944244 25.299473,77.5271267 34.1421978,86.7871958 L34.1421978,86.7871958 C41.9241821,94.9364611 54.8038091,95.3385162 63.0789271,87.6904952 L64.0562922,86.7871958 C68.7621948,82.4379114 76.1028742,82.7270075 80.4521586,87.43291 C82.002519,89.1103918 83.0232481,91.2081747 83.3864063,93.4633196 L95.2388318,167.064693 C95.8536472,170.882584 99.4470651,173.479189 103.264955,172.864373 C106.016959,172.421203 108.243976,170.387909 108.935076,167.687483 L114.54211,145.778385 C115.816474,140.798896 120.886224,137.795298 125.865714,139.069663 C126.377678,139.200686 126.877552,139.375077 127.359917,139.590946 L127.359917,139.590946 C133.958442,142.543929 141.229222,143.669623 148.411793,142.850289 L157.808987,141.778327 C170.488356,140.33196 181.539641,132.483089 187.08211,120.987899 L192.033752,110.718096 C194.538026,105.524182 200.778641,103.343798 205.972555,105.848073 C207.753105,106.706575 209.253355,108.052912 210.298838,109.730516 L215.540491,118.141387 C218.72581,123.252619 221.44288,128.641156 223.658576,134.241302 L225.472332,138.825552 C227.236911,143.285504 232.28289,145.470537 236.742842,143.705958 C237.984388,143.214741 239.095953,142.44387 239.99116,141.453246 L256.370254,123.328367 C260.458112,118.804801 266.782907,117.035127 272.624773,118.780363 L272.624773,118.780363 C278.352347,120.491455 284.512387,118.114095 287.605448,112.99883 C296.524176,98.2491567 304.989026,81.5828794 313,63 C313,90.3556469 313,147.022314 313,233 L-1.50931213,233 C-2.16356262,136.764504 -2.16356262,88.3414598 -1.50931213,87.7308671 Z"/><filter id="filter-5" width="101.3%" height="102.4%" x="-0.6%" y="-1.2%" filterUnits="objectBoundingBox"><feGaussianBlur in="SourceGraphic" stdDeviation="0"/></filter></defs><g id="Sign-In" fill="none" fill-rule="evenodd" stroke="none" stroke-width="1"><g id="Desktop-HD" transform="translate(-853.000000, -1254.000000)"><g id="Group-11" transform="translate(268.000000, 1254.000000)"><g id="keep-simple-graphic" transform="translate(585.000000, 0.000000)"><rect id="Card-bg" width="302" height="199" x="5" y="16" rx="11.1999998"/><mask id="mask-2" fill="#fff"><use xlink:href="#path-1"/></mask><use id="Card-bg" fill="#FFF" xlink:href="#path-1"/><g id="Daily-Graph" stroke-linecap="round" stroke-linejoin="round" filter="url(#filter-5)" mask="url(#mask-2)" opacity="0.100000001"><use fill="url(#linearGradient-3)" fill-rule="evenodd" xlink:href="#path-4"/><path stroke="#00FFA2" stroke-width="2" d="M-2.19160585,86.9997889 C-1.31311804,86.1799221 -0.431715972,85.3808684 0.452603495,84.6026307 C10.4672803,75.7893103 25.6521937,76.4485235 34.8654142,86.0965742 C42.2703708,93.8510176 54.5259956,94.2335937 62.4001943,86.9561099 L63.3775594,86.0528105 C68.4890518,81.3286723 76.4624057,81.6426849 81.1865439,86.7541772 C82.870526,88.5762369 83.9792291,90.8548223 84.3736869,93.3043325 L96.2261124,166.905706 C96.7531217,170.178336 99.8333381,172.404102 103.105968,171.877093 C105.464938,171.497215 107.3739,169.75431 107.966299,167.43955 L113.573333,145.530453 C114.984626,140.015923 120.599115,136.689592 126.113646,138.100885 C126.68062,138.245987 127.234205,138.439116 127.768399,138.67818 C134.203364,141.557966 141.293921,142.655757 148.298456,141.856732 L157.69565,140.784771 C170.033952,139.377309 180.787965,131.739568 186.181346,120.553591 L191.132988,110.283788 C193.877124,104.592395 200.715471,102.203172 206.406863,104.947308 C208.357957,105.888039 210.001902,107.36333 211.147522,109.201616 L216.389176,117.612487 C219.606348,122.774831 222.350588,128.217253 224.588441,133.873401 L226.402197,138.457651 C227.96359,142.404053 232.428539,144.337486 236.374941,142.776093 C237.473527,142.341438 238.457098,141.65933 239.249225,140.782774 L255.628319,122.657896 C259.974755,117.84819 266.699625,115.966576 272.911018,117.822207 C278.201983,119.402863 283.892446,117.206728 286.749724,112.481397 C295.643823,97.772456 304.08812,81.1466457 312.081696,62.6041243 L314,58.1542765 L314,63 C314,118.68898 314,118.68898 314,233 L314,234 L-2.50253681,234 L-2.50928902,233.006798 C-2.83642839,184.886974 -3,148.720351 -3,124.506095 C-3,112.39626 -2.9590918,103.274865 -2.87723903,97.1403046 C-2.77018417,89.1169418 -2.70625556,87.4800964 -2.19160585,86.9997889 Z"/></g><text id="Coin-Abbr" fill="#046" font-family="SourceSansPro-Regular, Source Sans Pro" font-size="28" font-weight="normal" mask="url(#mask-2)"><tspan x="76.144" y="45">Your Portfolio</tspan></text><text id="Dollar-Value" fill="#046" font-family="SourceSansPro-Semibold, Source Sans Pro" font-size="48" font-weight="500" line-spacing="16.7999997" mask="url(#mask-2)"><tspan x="88" y="142">$1,502</tspan></text><g id="Coin-Price-Row" mask="url(#mask-2)"><g transform="translate(134.000000, 166.000000)"><g id="Coin-Price-Indicator/Up" fill-rule="nonzero" transform="translate(27.600000, 2.800000)"><path id="up-arrow-circle" fill="#20F7A2" d="M0,6 C0,2.68548387 2.68548387,0 6,0 C9.31451613,0 12,2.68548387 12,6 C12,9.31451613 9.31451613,12 6,12 C2.68548387,12 0,9.31451613 0,6 Z M7.06451613,8.80645161 L7.06451613,6 L8.77983871,6 C9.03870968,6 9.16935484,5.68548387 8.98548387,5.50403226 L6.20564516,2.73870968 C6.09193548,2.625 5.91048387,2.625 5.79677419,2.73870968 L3.01451613,5.50403226 C2.83064516,5.68790323 2.96129032,6 3.22016129,6 L4.93548387,6 L4.93548387,8.80645161 C4.93548387,8.96612903 5.06612903,9.09677419 5.22580645,9.09677419 L6.77419355,9.09677419 C6.93387097,9.09677419 7.06451613,8.96612903 7.06451613,8.80645161 Z"/></g><text id="Coin-Price" font-family="SourceCodePro-Semibold, Source Code Pro" font-size="18" font-weight="500" line-spacing="16.7999997"><tspan x="0.499999821" y="18" fill="#046">$5</tspan></text></g></g></g></g></g></g></svg>