<svg xmlns="http://www.w3.org/2000/svg" xmlns:xlink="http://www.w3.org/1999/xlink" width="312" height="230" viewBox="0 0 312 230"><defs><rect id="a" width="312" height="230" rx="16"/><linearGradient id="d" x1="50%" x2="50%" y1="0%" y2="112.8965%"><stop offset="0%" stop-color="#21FDA5"/><stop offset="100%" stop-color="#21FDA5" stop-opacity="0"/></linearGradient><filter id="b" width="101.3%" height="102.4%" x="-.6%" y="-1.2%" filterUnits="objectBoundingBox"><feGaussianBlur in="SourceGraphic"/></filter></defs><g fill="none" fill-rule="evenodd"><mask id="c" fill="#fff"><use xlink:href="#a"/></mask><use fill="#FFF" xlink:href="#a"/><g stroke-linecap="round" stroke-linejoin="round" filter="url(#b)" mask="url(#c)" opacity=".1"><path fill="url(#d)" stroke="#00FFA2" stroke-width="2" d="M-2.1916 86.9998a122.1625 122.1625 0 0 1 2.6442-2.3972c10.0147-8.8133 25.1996-8.154 34.4128 1.494 7.405 7.7544 19.6606 8.137 27.5348.8595l.9774-.9033c5.1115-4.7241 13.0848-4.4101 17.809.7014a12.6026 12.6026 0 0 1 3.187 6.5501l11.8525 73.6014c.527 3.2726 3.6072 5.4984 6.8799 4.9714 2.359-.3799 4.2679-2.1228 4.8603-4.4376l5.607-21.909c1.4113-5.5146 7.0258-8.841 12.5403-7.4296.567.145 1.1206.3382 1.6548.5773a39.3432 39.3432 0 0 0 20.53 3.1785l9.3973-1.072c12.3383-1.4074 23.0923-9.0451 28.4856-20.2311l4.9517-10.2698c2.7441-5.6914 9.5825-8.0806 15.2739-5.3365a11.4405 11.4405 0 0 1 4.7406 4.2543l5.2417 8.4109a101 101 0 0 1 8.1992 16.2609l1.8138 4.5843c1.5614 3.9464 6.0263 5.8798 9.9727 4.3184a7.6846 7.6846 0 0 0 2.8743-1.9933l16.3791-18.1249c4.3465-4.8097 11.0713-6.6913 17.2827-4.8357 5.291 1.5807 10.9814-.6155 13.8387-5.3408 8.8941-14.709 17.3384-31.3348 25.332-49.8773L314 58.1543V234H-2.5025l-.0068-.9932C-2.8364 184.887-3 148.7204-3 124.5061c0-12.1098.041-21.2312.1228-27.3658.107-8.0234.171-9.6602.6856-10.1405z"/></g><path fill="#046" d="M81.632 69v-7.112l-5.516-11.256h2.492l2.38 5.18c.2987.672.588 1.3347.868 1.988s.5787 1.3253.896 2.016h.112a103.922 103.922 0 0 1 .952-2.016c.3173-.6533.616-1.316.896-1.988l2.352-5.18H89.5l-5.516 11.256V69h-2.352zm14.28.336c-.84 0-1.638-.1587-2.394-.476-.756-.3173-1.4233-.7793-2.002-1.386-.5787-.6067-1.0407-1.3533-1.386-2.24-.3453-.8867-.518-1.89-.518-3.01 0-1.1387.1727-2.1513.518-3.038.3453-.8867.8073-1.638 1.386-2.254.5787-.616 1.246-1.0827 2.002-1.4.756-.3173 1.554-.476 2.394-.476.84 0 1.638.1587 2.394.476.756.3173 1.4233.784 2.002 1.4.5787.616 1.0407 1.3673 1.386 2.254.3453.8867.518 1.8993.518 3.038 0 1.12-.1727 2.1233-.518 3.01-.3453.8867-.8073 1.6333-1.386 2.24-.5787.6067-1.246 1.0687-2.002 1.386-.756.3173-1.554.476-2.394.476zm0-1.904c.5787 0 1.1107-.126 1.596-.378.4853-.252.9007-.6067 1.246-1.064.3453-.4573.6113-1.0033.798-1.638.1867-.6347.28-1.344.28-2.128s-.0933-1.498-.28-2.142c-.1867-.644-.4527-1.1993-.798-1.666-.3453-.4667-.7607-.826-1.246-1.078-.4853-.252-1.0173-.378-1.596-.378s-1.1107.126-1.596.378c-.4853.252-.9007.6113-1.246 1.078-.3453.4667-.6113 1.022-.798 1.666-.1867.644-.28 1.358-.28 2.142 0 .784.0933 1.4933.28 2.128.1867.6347.4527 1.1807.798 1.638.3453.4573.7607.812 1.246 1.064.4853.252 1.0173.378 1.596.378zm13.86 1.904c-1.456 0-2.5153-.448-3.178-1.344-.6627-.896-.994-2.2213-.994-3.976v-8.624h2.324v8.316c0 1.288.2007 2.2167.602 2.786.4013.5693 1.05.854 1.946.854.7093 0 1.3347-.182 1.876-.546.5413-.364 1.1387-.9473 1.792-1.75v-9.66h2.296V69h-1.904l-.196-2.128h-.084c-.6347.7467-1.302 1.344-2.002 1.792-.7.448-1.526.672-2.478.672zM121.028 69V55.392h1.904l.196 2.464h.084c.4667-.8587 1.0313-1.54 1.694-2.044.6627-.504 1.386-.756 2.17-.756.5413 0 1.0267.0933 1.456.28l-.448 2.016c-.224-.0747-.4293-.1307-.616-.168-.1867-.0373-.42-.056-.7-.056-.5787 0-1.1807.2333-1.806.7-.6253.4667-1.1713 1.2787-1.638 2.436V69h-2.296zm15.54 0V50.632h5.236c1.0267 0 1.9647.0933 2.814.28.8493.1867 1.5727.49 2.17.91.5973.42 1.064.9753 1.4 1.666.336.6907.504 1.54.504 2.548 0 .9707-.1633 1.8107-.49 2.52s-.7887 1.2973-1.386 1.764c-.5973.4667-1.3113.8167-2.142 1.05-.8307.2333-1.75.35-2.758.35h-3.024V69h-2.324zm2.324-9.184h2.744c1.6053 0 2.7953-.3033 3.57-.91.7747-.6067 1.162-1.5633 1.162-2.87 0-1.3253-.406-2.2447-1.218-2.758-.812-.5133-2.0207-.77-3.626-.77h-2.632v7.308zm17.92 9.52c-.84 0-1.638-.1587-2.394-.476-.756-.3173-1.4233-.7793-2.002-1.386-.5787-.6067-1.0407-1.3533-1.386-2.24-.3453-.8867-.518-1.89-.518-3.01 0-1.1387.1727-2.1513.518-3.038.3453-.8867.8073-1.638 1.386-2.254.5787-.616 1.246-1.0827 2.002-1.4.756-.3173 1.554-.476 2.394-.476.84 0 1.638.1587 2.394.476.756.3173 1.4233.784 2.002 1.4.5787.616 1.0407 1.3673 1.386 2.254.3453.8867.518 1.8993.518 3.038 0 1.12-.1727 2.1233-.518 3.01-.3453.8867-.8073 1.6333-1.386 2.24-.5787.6067-1.246 1.0687-2.002 1.386-.756.3173-1.554.476-2.394.476zm0-1.904c.5787 0 1.1107-.126 1.596-.378.4853-.252.9007-.6067 1.246-1.064.3453-.4573.6113-1.0033.798-1.638.1867-.6347.28-1.344.28-2.128s-.0933-1.498-.28-2.142c-.1867-.644-.4527-1.1993-.798-1.666-.3453-.4667-.7607-.826-1.246-1.078-.4853-.252-1.0173-.378-1.596-.378s-1.1107.126-1.596.378c-.4853.252-.9007.6113-1.246 1.078-.3453.4667-.6113 1.022-.798 1.666-.1867.644-.28 1.358-.28 2.142 0 .784.0933 1.4933.28 2.128.1867.6347.4527 1.1807.798 1.638.3453.4573.7607.812 1.246 1.064.4853.252 1.0173.378 1.596.378zM166.696 69V55.392h1.904l.196 2.464h.084c.4667-.8587 1.0313-1.54 1.694-2.044.6627-.504 1.386-.756 2.17-.756.5413 0 1.0267.0933 1.456.28l-.448 2.016c-.224-.0747-.4293-.1307-.616-.168-.1867-.0373-.42-.056-.7-.056-.5787 0-1.1807.2333-1.806.7-.6253.4667-1.1713 1.2787-1.638 2.436V69h-2.296zm14 .336c-.728 0-1.3393-.112-1.834-.336-.4947-.224-.896-.532-1.204-.924-.308-.392-.5273-.868-.658-1.428-.1307-.56-.196-1.176-.196-1.848v-7.532h-2.016v-1.736l2.128-.14.28-3.808h1.932v3.808h3.668v1.876h-3.668v7.56c0 .84.154 1.4887.462 1.946.308.4573.854.686 1.638.686.2427 0 .504-.0373.784-.112s.532-.1587.756-.252l.448 1.736c-.3733.1307-.7793.2473-1.218.35-.4387.1027-.8727.154-1.302.154zm5.572-.336V57.268h-1.848v-1.736l1.848-.14v-2.156c0-1.4.322-2.5013.966-3.304.644-.8027 1.6473-1.204 3.01-1.204.4293 0 .8353.042 1.218.126.3827.084.7327.1913 1.05.322l-.504 1.764c-.504-.224-1.0173-.336-1.54-.336-1.2693 0-1.904.8773-1.904 2.632v2.156h2.884v1.876h-2.884V69h-2.296zm12.796.336c-.84 0-1.638-.1587-2.394-.476-.756-.3173-1.4233-.7793-2.002-1.386-.5787-.6067-1.0407-1.3533-1.386-2.24-.3453-.8867-.518-1.89-.518-3.01 0-1.1387.1727-2.1513.518-3.038.3453-.8867.8073-1.638 1.386-2.254.5787-.616 1.246-1.0827 2.002-1.4.756-.3173 1.554-.476 2.394-.476.84 0 1.638.1587 2.394.476.756.3173 1.4233.784 2.002 1.4.5787.616 1.0407 1.3673 1.386 2.254.3453.8867.518 1.8993.518 3.038 0 1.12-.1727 2.1233-.518 3.01-.3453.8867-.8073 1.6333-1.386 2.24-.5787.6067-1.246 1.0687-2.002 1.386-.756.3173-1.554.476-2.394.476zm0-1.904c.5787 0 1.1107-.126 1.596-.378.4853-.252.9007-.6067 1.246-1.064.3453-.4573.6113-1.0033.798-1.638.1867-.6347.28-1.344.28-2.128s-.0933-1.498-.28-2.142c-.1867-.644-.4527-1.1993-.798-1.666-.3453-.4667-.7607-.826-1.246-1.078-.4853-.252-1.0173-.378-1.596-.378s-1.1107.126-1.596.378c-.4853.252-.9007.6113-1.246 1.078-.3453.4667-.6113 1.022-.798 1.666-.1867.644-.28 1.358-.28 2.142 0 .784.0933 1.4933.28 2.128.1867.6347.4527 1.1807.798 1.638.3453.4573.7607.812 1.246 1.064.4853.252 1.0173.378 1.596.378zm12.32 1.904c-.8773 0-1.5027-.2613-1.876-.784-.3733-.5227-.56-1.288-.56-2.296V49.064h2.296v17.36c0 .3733.0653.6347.196.784s.28.224.448.224h.21c.0653 0 .1633-.0187.294-.056l.308 1.736c-.1493.0747-.3267.1307-.532.168-.2053.0373-.4667.056-.784.056zm4.704-.336V55.392h2.296V69h-2.296zm1.176-16.408c-.448 0-.826-.14-1.134-.42-.308-.28-.462-.6347-.462-1.064 0-.448.154-.8073.462-1.078.308-.2707.686-.406 1.134-.406.448 0 .826.1353 1.134.406.308.2707.462.63.462 1.078 0 .4293-.154.784-.462 1.064-.308.28-.686.42-1.134.42zm11.004 16.744c-.84 0-1.638-.1587-2.394-.476-.756-.3173-1.4233-.7793-2.002-1.386-.5787-.6067-1.0407-1.3533-1.386-2.24-.3453-.8867-.518-1.89-.518-3.01 0-1.1387.1727-2.1513.518-3.038.3453-.8867.8073-1.638 1.386-2.254.5787-.616 1.246-1.0827 2.002-1.4.756-.3173 1.554-.476 2.394-.476.84 0 1.638.1587 2.394.476.756.3173 1.4233.784 2.002 1.4.5787.616 1.0407 1.3673 1.386 2.254.3453.8867.518 1.8993.518 3.038 0 1.12-.1727 2.1233-.518 3.01-.3453.8867-.8073 1.6333-1.386 2.24-.5787.6067-1.246 1.0687-2.002 1.386-.756.3173-1.554.476-2.394.476zm0-1.904c.5787 0 1.1107-.126 1.596-.378.4853-.252.9007-.6067 1.246-1.064.3453-.4573.6113-1.0033.798-1.638.1867-.6347.28-1.344.28-2.128s-.0933-1.498-.28-2.142c-.1867-.644-.4527-1.1993-.798-1.666-.3453-.4667-.7607-.826-1.246-1.078-.4853-.252-1.0173-.378-1.596-.378s-1.1107.126-1.596.378c-.4853.252-.9007.6113-1.246 1.078-.3453.4667-.6113 1.022-.798 1.666-.1867.644-.28 1.358-.28 2.142 0 .784.0933 1.4933.28 2.128.1867.6347.4527 1.1807.798 1.638.3453.4573.7607.812 1.246 1.064.4853.252 1.0173.378 1.596.378zM98.804 141.08v-4.8c-2.928-.288-6.144-1.632-8.304-3.648l2.496-3.744c2.256 1.776 4.512 2.976 7.104 2.976 3.12 0 4.656-1.536 4.656-4.128 0-6.336-13.056-5.424-13.056-14.448 0-4.464 2.784-7.632 7.104-8.4v-4.896h3.84v4.8c3.072.384 5.184 1.872 6.96 3.744l-2.832 3.216c-1.776-1.632-3.264-2.544-5.568-2.544-2.592 0-4.176 1.344-4.176 3.84 0 5.76 13.056 4.608 13.056 14.304 0 4.56-2.688 7.92-7.44 8.784v4.944h-3.84zm17.712-5.28v-4.512h6.816v-20.064h-5.616v-3.456c3.024-.576 5.136-1.344 7.056-2.496h4.128v26.016h6v4.512h-18.384zm24.528 8.736l-1.2-3.024c3.12-1.2 4.896-3.408 4.848-5.808h-.432c-1.872 0-3.552-1.248-3.552-3.408 0-2.064 1.68-3.408 3.696-3.408 2.592 0 4.128 2.112 4.128 5.664 0 4.704-2.736 8.352-7.488 9.984zm21.312-8.16c-4.944 0-8.16-1.968-10.416-4.224l2.544-3.552c1.824 1.728 4.08 3.264 7.152 3.264 3.408 0 5.904-2.16 5.904-5.856 0-3.648-2.256-5.712-5.616-5.712-1.968 0-3.072.528-4.896 1.728l-2.64-1.68.912-15.072h16.32v4.656H160.1l-.624 7.392c1.296-.624 2.448-1.008 4.032-1.008 5.232 0 9.6 2.976 9.6 9.552 0 6.672-5.136 10.512-10.752 10.512zm25.344 0c-6.336 0-10.368-5.664-10.368-15.984s4.032-15.696 10.368-15.696 10.368 5.424 10.368 15.696c0 10.32-4.032 15.984-10.368 15.984zm0-4.32c2.976 0 5.088-3.024 5.088-11.664s-2.112-11.376-5.088-11.376c-2.928 0-5.088 2.736-5.088 11.376 0 8.64 2.16 11.664 5.088 11.664zm14.16 3.744v-3.216c8.496-8.208 13.824-13.584 13.824-18.24 0-3.216-1.776-5.28-5.04-5.28-2.352 0-4.32 1.584-5.952 3.408l-3.072-3.072c2.784-2.976 5.568-4.704 9.744-4.704 5.856 0 9.648 3.696 9.648 9.36 0 5.424-5.04 10.992-11.088 17.376 1.584-.144 3.6-.336 5.088-.336h7.488v4.704h-20.64z" mask="url(#c)"/></g></svg>