<svg xmlns="http://www.w3.org/2000/svg" width="227px" height="83px" viewBox="0 0 227 83"><g fill="#00FFA2" fill-rule="evenodd"><path d="M97.964 78V7.368h12.528v60.048h29.376V78H97.964zm53.136 0V24.972h12.42V78H151.1zm6.264-62.316c-4.428 0-7.668-2.916-7.668-7.02 0-4.212 3.24-7.128 7.668-7.128s7.668 2.916 7.668 7.128c0 4.104-3.24 7.02-7.668 7.02zm43.74 63.612c-13.176 0-25.164-10.152-25.164-27.756 0-17.712 11.988-27.864 25.164-27.864 13.284 0 25.272 10.152 25.272 27.864 0 17.604-11.988 27.756-25.272 27.756zm0-10.152c7.776 0 12.528-7.02 12.528-17.604 0-10.692-4.752-17.712-12.528-17.712-7.776 0-12.42 7.02-12.42 17.712 0 10.584 4.644 17.604 12.42 17.604z"/><path fill-opacity="0.33" d="M33.5 50L62 66.5015 33.503 83 5 66.5015z"/><path stroke="#046" stroke-width="3" d="M33 73L2 55.2522V19.7507L33 2l31 17.7507v35.5015z"/></g></svg>