<svg xmlns="http://www.w3.org/2000/svg" width="38" height="43" viewBox="0 0 38 43"><title>lio_logo</title><g fill="none" fill-rule="evenodd" stroke-width=".83"><path fill="#046" stroke="#046" d="M29.256 27.79L37 23.305v8.975l-7.744 4.486zM19.837 33.248l7.744-4.485v8.972l-7.743 4.485z"/><path fill="#00FFA2" stroke="#00FFA2" d="M10.42 28.762l7.743 4.486v8.97l-7.744-4.484z"/><path fill="#046" stroke="#046" d="M19 22.82l7.744 4.487L19 31.793l-7.744-4.486zM9.58 6.45l7.746 4.487-7.744 4.486-7.745-4.486zM28.42 15.423l-7.746-4.486L28.42 6.45l7.743 4.487zM18.163 21.365L10.42 25.85v-8.97l7.743-4.487zM27.58 25.85l-7.743-4.487v-8.97l7.744 4.485z"/><path fill="#00FFA2" stroke="#00FFA2" d="M1 12.392l7.744 4.486v8.97L1 21.364z"/><path fill="#046" stroke="#046" d="M37 21.365l-7.744 4.485v-8.97L37 12.392zM19 1l7.74 4.483L19 9.967l-7.74-4.484z"/><path fill="#00FFA2" stroke="#00FFA2" d="M1 32.28v-8.976l7.744 4.485v8.976z"/></g></svg>