<svg xmlns="http://www.w3.org/2000/svg" width="138" height="114" viewBox="0 0 138 114"><path fill="#FFF" fill-rule="evenodd" d="M1.992 17V1.304h3.144l2.784 7.68c.336.984.672 2.04 1.008 3.072h.096c.336-1.032.648-2.088.984-3.072l2.712-7.68h3.168V17H13.32V9.824c0-1.464.216-3.552.36-4.992h-.096L12.312 8.48l-2.568 7.056H8.088L5.496 8.48 4.248 4.832h-.096c.12 1.44.36 3.528.36 4.992V17h-2.52zm20.496.288c-2.064 0-3.48-1.392-3.48-3.456 0-2.52 2.088-3.84 6.936-4.368-.048-1.248-.552-2.304-2.16-2.304-1.152 0-2.256.528-3.312 1.152l-1.008-1.848c1.296-.816 2.976-1.536 4.848-1.536 2.928 0 4.392 1.8 4.392 5.088V17h-2.28l-.192-1.296h-.096c-1.056.888-2.256 1.584-3.648 1.584zm.888-2.16c.96 0 1.68-.48 2.568-1.296v-2.64c-3.216.408-4.272 1.248-4.272 2.424 0 1.056.72 1.512 1.704 1.512zm12.768 2.16c-2.952 0-4.848-2.28-4.848-6.168 0-3.84 2.424-6.192 4.992-6.192 1.344 0 2.184.504 3.096 1.296l-.096-1.896V.056h2.76V17h-2.28l-.192-1.272h-.096c-.864.864-2.064 1.56-3.336 1.56zm.672-2.28c.912 0 1.68-.408 2.472-1.32V8.192c-.816-.72-1.608-.984-2.4-.984-1.512 0-2.736 1.416-2.736 3.888 0 2.544.96 3.912 2.664 3.912zm13.776 2.28c-3.264 0-5.808-2.28-5.808-6.168 0-3.84 2.664-6.192 5.424-6.192 3.192 0 4.872 2.304 4.872 5.592 0 .528-.048 1.056-.12 1.344h-7.488c.24 2.088 1.584 3.288 3.48 3.288 1.008 0 1.872-.312 2.736-.864l.936 1.728c-1.128.744-2.544 1.272-4.032 1.272zm-3.144-7.296h5.232c0-1.824-.792-2.928-2.4-2.928-1.392 0-2.592 1.032-2.832 2.928zm20.784 7.296c-1.08 0-2.232-.552-3.216-1.536h-.072L64.704 17H62.52V.056h2.76v4.368l-.072 1.968c.984-.864 2.208-1.464 3.408-1.464 2.952 0 4.656 2.352 4.656 5.976 0 4.056-2.424 6.384-5.04 6.384zm-.576-2.28c1.56 0 2.76-1.392 2.76-4.056 0-2.352-.768-3.744-2.544-3.744-.864 0-1.68.432-2.592 1.32v5.496c.84.72 1.68.984 2.376.984zm9.024 6.84c-.648 0-1.104-.096-1.536-.24l.504-2.16c.216.072.552.168.84.168 1.248 0 1.968-.84 2.352-2.016l.216-.744-4.632-11.64h2.808L79.272 11c.336 1.032.672 2.208 1.032 3.312h.096c.288-1.08.6-2.256.888-3.312l1.776-5.784h2.664l-4.272 12.312c-.984 2.664-2.208 4.32-4.776 4.32zM60.4234 51.1156H56.422v-2.9683h11.757v2.9683h-3.987V73h-3.7686V51.1156zm16.1417-2.9683h4.3361L85.4992 73H81.687l-.684-4.4525h-4.5398L75.8085 73h-3.8269l4.5835-24.8527zM80.5666 65.71l-1.7461-12.3828h-.16L76.8998 65.71h3.6668zm10.4377-17.5628h3.7687c.4753 0 .9967.0218 1.5642.0654.5675.0437 1.135.1456 1.7024.3056.5675.16 1.1156.405 1.6443.7348.5287.3298.9967.7785 1.4041 1.346.4074.5675.7348 1.278.9822 2.1317.2474.8536.371 1.8916.371 3.1138v.873c0 1.329-.114 2.4664-.3419 3.4122-.228.9458-.5311 1.7413-.9094 2.3864-.3783.645-.8173 1.1616-1.3169 1.5496-.4995.388-1.0185.6815-1.5569.8803-.5384.1989-1.0816.3299-1.6297.393-.548.063-1.0646.0945-1.5496.0945h-.3638V73h-3.7687V48.1473zm3.9578 14.5216c.679 0 1.2514-.0994 1.717-.2982.4657-.199.8367-.5093 1.1132-.9313.2764-.422.4753-.9652.5966-1.6297.1212-.6645.1818-1.4623.1818-2.3936v-2.2408c0-.7372-.0533-1.375-.16-1.9134s-.2983-.9822-.5748-1.3314c-.2764-.3493-.6475-.6087-1.1131-.7785-.4656-.1698-1.0525-.2546-1.7607-.2546h-.1891v11.7715h.1891zm-37.1287 34.41h20.2983v2.9538H57.8334V97.079zm27.3603-11.9316h9.5017v2.9683h-5.733v7.4355h4.4962v2.9683h-4.4962V110h-3.7687V85.1473zm15.1231 0h3.7687V110h-3.7687V85.1473zm9.2737 0h3.856l2.7355 19.6872h.16l2.7502-19.6872h3.8414L118.4083 110h-4.307l-4.5108-24.8527zm18.8481 0h9.2107v2.9683h-5.442v7.4355h4.2052v2.9683h-4.2052v8.5122h5.5875V110h-9.3562V85.1473zM9.5388 105.2326c-2.8528 0-5.438-1.3373-7.0427-3.2093 1.783 5.8837 7.0427 8.5581 12.748 8.5581 7.3102 0 11.9458-5.438 11.9458-18.81 0-11.411-6.3294-15.69-11.1434-15.69-6.5969 0-9.6279 3.7442-10.6085 5.9729H3.8333L6.7752 48h35.9264v1.3372c0 7.7558-5.1706 13.1938-15.9574 13.1938-6.3295 0-15.066-3.9225-18.5426-6.3294L6.062 78.4884c2.3178-4.3682 9.628-8.5582 18.186-8.5582 8.7365 0 21.752 5.3489 21.752 20.593 0 15.2442-11.2326 22.5543-25.8527 22.5543C4.814 113.0775 0 105.5891 0 97.566c0-6.7752 4.5465-10.4302 9.3605-10.4302s9.0038 2.6744 9.0038 8.6472c0 5.6163-4.1899 9.4497-8.8255 9.4497z"/></svg>