<svg width="138px" height="114px" viewBox="0 0 138 114" version="1.1" xmlns="http://www.w3.org/2000/svg" xmlns:xlink="http://www.w3.org/1999/xlink"><title>Group 6</title><desc>Created with Sketch.</desc><g id="Sign-In" stroke="none" stroke-width="1" fill="none" fill-rule="evenodd"><g id="Desktop-HD" transform="translate(-118.000000, -2477.000000)" fill="#FFFFFF"><g id="Group-6" transform="translate(118.000000, 2470.000000)"><text id="Made-by" font-family="SourceSansPro-Semibold, Source Sans Pro" font-size="24" font-weight="500"><tspan x="0" y="24">Made by</tspan></text><g id="Group-5" transform="translate(0.000000, 50.000000)"><text id="TAP-—FIVE" font-family="FjallaOne-Regular, Fjalla One" font-size="29.7999992" font-weight="normal" letter-spacing="3.104167"><tspan x="56" y="30">TAP</tspan> <tspan x="56" y="67">—FIVE</tspan></text><path d="M9.53875969,62.2325581 C6.68604651,62.2325581 4.10077519,60.8953488 2.49612403,59.0232558 C4.27906977,64.9069767 9.53875969,67.5813953 15.244186,67.5813953 C22.5542636,67.5813953 27.1899225,62.1434109 27.1899225,48.7713178 C27.1899225,37.3604651 20.8604651,33.0813953 16.0465116,33.0813953 C9.4496124,33.0813953 6.41860465,36.8255814 5.4379845,39.0542636 L3.83333333,39.0542636 L6.7751938,5 L42.7015504,5 L42.7015504,6.3372093 C42.7015504,14.0930233 37.5310078,19.5310078 26.744186,19.5310078 C20.4147287,19.5310078 11.6782946,15.6085271 8.20155039,13.2015504 L6.0620155,35.4883721 C8.37984496,31.120155 15.6899225,26.9302326 24.248062,26.9302326 C32.9844961,26.9302326 46,32.2790698 46,47.5232558 C46,62.7674419 34.7674419,70.0775194 20.1472868,70.0775194 C4.81395349,70.0775194 0,62.5891473 0,54.5658915 C0,47.7906977 4.54651163,44.1356589 9.36046512,44.1356589 C14.1744186,44.1356589 18.3643411,46.8100775 18.3643411,52.7829457 C18.3643411,58.3992248 14.1744186,62.2325581 9.53875969,62.2325581 Z" id="5"/></g></g></g></g></svg>